<?xml version="1.0" encoding="UTF-8" standalone="no" ?>
<!DOCTYPE sesx>
<sesx version="1.9">

  <session appBuild="22.0.0.96" appVersion="22.0" audioChannelType="fivePointOne" bitDepth="32" duration="15603975" sampleRate="44100">
    <tracks>
      <audioTrack automationLaneOpenState="false" id="10001" index="1" select="false" visible="true">
        <trackParameters trackHeight="30" trackHue="160" trackMinimized="false">
          <name>Faixa 1</name>
        </trackParameters>
        <trackAudioParameters audioChannelType="stereo" automationMode="1" monitoring="false" recordArmed="false" solo="false" soloSafe="false">
          <trackOutput outputID="10000" type="trackID"/>
          <trackInput inputID="1"/>
          <component componentGuid="3b6b4a9c-cca0-4fa5-b742-82e73d581392" componentID="Audition.Fader" id="trackFader" name="volume" powered="true">
            <parameter index="0" name="volume" parameterValue="5.62341403961181640625"/>
            <parameter index="1" name="static gain" parameterValue="1"/>
          </component>
          <component componentGuid="5f230049-9a29-495b-8243-5c291c123d18" componentID="Audition.Mute" id="trackMute" name="Mute" powered="true">
            <parameter index="0" parameterValue="0"/>
            <parameter index="1" name="mute" parameterValue="0"/>
          </component>
          <component componentGuid="7582fdb4-82f6-47ff-9510-039e0fd28015" componentID="Audition.StereoTo51Panner" id="trackPan" name="StereoTo51Panner" powered="true">
            <parameter index="0" name="Panorâmica: Ângulo" parameterValue="1.5707962512969970703125"/>
            <parameter index="1" name="Panorâmica: Raio" parameterValue="1"/>
            <parameter index="2" name="Panorâmica: Centro" parameterValue="1"/>
            <parameter index="3" name="Panorâmica: LFE" parameterValue="0"/>
            <parameter index="4" name="Panorâmica: difusão estéreo" parameterValue="0.523599147796630859375"/>
            <parameter index="5" name="leftEnable" parameterValue="1"/>
            <parameter index="6" name="rightEnable" parameterValue="1"/>
            <parameter index="7" name="centerEnable" parameterValue="1"/>
            <parameter index="8" name="lfeEnable" parameterValue="1"/>
            <parameter index="9" name="leftSurroundEnable" parameterValue="1"/>
            <parameter index="10" name="rightSurroundEnable" parameterValue="1"/>
            <parameter index="11" name="leftSolo" parameterValue="0"/>
            <parameter index="12" name="rightSolo" parameterValue="0"/>
            <parameter index="13" name="centerSolo" parameterValue="0"/>
            <parameter index="14" name="lfeSolo" parameterValue="0"/>
            <parameter index="15" name="leftSurroundSolo" parameterValue="0"/>
            <parameter index="16" name="rightSurroundSolo" parameterValue="0"/>
          </component>
          <component componentGuid="10824503-49e3-40c7-9930-1f124153d9ca" componentID="Audition.EQ" id="trackEQ" name="EQ" powered="false">
            <parameter index="0" name="Frequência de estante inferior" parameterValue="0.0009078529546968638896942138671875"/>
            <parameter index="1" name="Ganho de estante inferior" parameterValue="0.5"/>
            <parameter index="2" name="Frequência de prateleira superior" parameterValue="0.816159784793853759765625"/>
            <parameter index="3" name="Ganho de estante superior" parameterValue="0.5"/>
            <parameter index="4" name="Frequência central de banda de EQ 1" parameterValue="0.0013617794029414653778076171875"/>
            <parameter index="5" name="Banda de EQ 1 Q" parameterValue="0.000199989997781813144683837890625"/>
            <parameter index="6" name="Ganho de banda de EQ 1" parameterValue="0.5"/>
            <parameter index="7" name="Ativar Banda de EQ 1" parameterValue="1"/>
            <parameter index="8" name="Frequências centrais de banda de EQ 2" parameterValue="0.008170676417648792266845703125"/>
            <parameter index="9" name="Banda de EQ 2 Q" parameterValue="0.000199989997781813144683837890625"/>
            <parameter index="10" name="Ganho de banda de EQ 2" parameterValue="0.5"/>
            <parameter index="11" name="Ativar banda de EQ 2" parameterValue="1"/>
            <parameter index="12" name="Frequências centrais de banda de EQ 3" parameterValue="0.0354062654078006744384765625"/>
            <parameter index="13" name="Banda de EQ 3 Q" parameterValue="0.000199989997781813144683837890625"/>
            <parameter index="14" name="Ganho de banda de EQ 3" parameterValue="0.5"/>
            <parameter index="15" name="Ativar banda de EQ 3" parameterValue="1"/>
            <parameter index="16" name="Frequência central de banda de EQ 4" parameterValue="0.144348621368408203125"/>
            <parameter index="17" name="Banda de EQ 4 Q" parameterValue="0.000199989997781813144683837890625"/>
            <parameter index="18" name="Ganho de banda de EQ 4" parameterValue="0.5"/>
            <parameter index="19" name="Ativar banda de EQ 4" parameterValue="1"/>
            <parameter index="20" name="Frequências centrais de banda de EQ 5" parameterValue="0.580118000507354736328125"/>
            <parameter index="21" name="Banda de EQ 5 Q" parameterValue="0.000199989997781813144683837890625"/>
            <parameter index="22" name="Ganho de banda de EQ 5" parameterValue="0.5"/>
            <parameter index="23" name="Ativar banda de EQ 5" parameterValue="1"/>
            <parameter index="24" name="Ganho" parameterValue="0.666666686534881591796875"/>
            <parameter index="25" name="ConstantQ" parameterValue="1"/>
            <parameter index="26" name="Ordem de filtro de estante inferior" parameterValue="0"/>
            <parameter index="27" name="Ordem de filtro de estante superior" parameterValue="0"/>
            <parameter index="28" name="Modo ultra silencioso" parameterValue="0"/>
            <parameter index="29" name="Ativar estante inferior" parameterValue="1"/>
            <parameter index="30" name="Ativar estante superior" parameterValue="1"/>
            <parameter index="31" name="Taxa de amostragem original" parameterValue="0.22968749701976776123046875"/>
            <parameter index="32" name="Largura de banda de banda de EQ 1" parameterValue="0.002499990165233612060546875"/>
            <parameter index="33" name="Largura de banda de EQ 2" parameterValue="0.0099999904632568359375"/>
            <parameter index="34" name="Largura de banda de EQ 3" parameterValue="0.0399999916553497314453125"/>
            <parameter index="35" name="Largura de banda de EQ 4" parameterValue="0.15999998152256011962890625"/>
            <parameter index="36" name="Largura de banda de EQ 5" parameterValue="0.63999998569488525390625"/>
            <parameter index="37" name="Ativar filtro de alta frequência" parameterValue="0"/>
            <parameter index="38" name="Frequência de corte de alta frequência" parameterValue="0"/>
            <parameter index="39" name="Inclinação de alta frequência" parameterValue="0.4000000059604644775390625"/>
            <parameter index="40" name="Ativar filtro de passagem de baixa aprovação" parameterValue="0"/>
            <parameter index="41" name="Frequência de corte de passe para baixo" parameterValue="0.906945049762725830078125"/>
            <parameter index="42" name="Inclinação de passe para baixo" parameterValue="0.4000000059604644775390625"/>
            <parameter index="43" name="Desvio" parameterValue="0"/>
            <parameter index="44" name="Faixa de gráfico baixa" parameterValue="1"/>
          </component>
        </trackAudioParameters>
        <editParameter parameterIndex="0" slotIndex="4294967280"/>
        <audioClip clipAutoCrossfade="true" crossFadeHeadClipID="-1" crossFadeTailClipID="1" endPoint="1887348" fileID="0" hue="-1" id="0" lockedInTime="false" looped="false" name="Ato1Perg3Esc1D - NORMAL 44100 1" offline="false" select="false" sourceInPoint="49117" sourceOutPoint="1830308" startPoint="106157" zOrder="0">
          <effectsRack preFader="true">
            <component componentGuid="eea8398c-908f-47cf-91aa-3f136fadc819" componentID="Audition.ComponentGroup" id="rackMix" powered="true">
              <parameter index="0" parameterValue="0"/>
              <parameter index="1" parameterValue="0"/>
            </component>
            <component componentGuid="27914c02-87d0-46e9-a42c-0358ad260aa6" id="rackInput" powered="true">
              <parameter index="0" parameterValue="1"/>
              <parameter index="1" parameterValue="0"/>
            </component>
            <component componentGuid="59c6f267-042a-4a99-a1d8-45d6e6d9f86b" id="rackOutput" powered="true">
              <parameter index="0" parameterValue="1"/>
              <parameter index="1" parameterValue="0"/>
            </component>
            <slot powered="true" slotIndex="0">
              <component componentGuid="3c6e7705-30bc-4333-ae23-cb1f6e44c8f8" componentID="4f327230-f04c-4c34-9ea5-a998b4459221" name="Filtro de FFT" presetName="(Personalizado)">
                <busConfig><![CDATA[{"in":[{"layout":[100,101],"name":"","type":0}],"out":[{"layout":[100,101],"name":"","type":0}]}]]></busConfig>
                <presetChunkData><![CDATA[AEQsRwAAAAAQP3w9AADAPgAAAAAOdFo6AACAPwAAAAAAAIA/AADgQPv8bToAAAAAwyG0O3eQ+D6qFyk8XxcKPyfBVTweJD4/l+drPg00Pz+Lz+o+AAAAAAAAgD8AAAAA]]></presetChunkData>
              </component>
            </slot>
            <slot powered="true" slotIndex="1">
              <component componentGuid="372ff10e-7d17-4b52-a3f2-08c63fb46e88" componentID="c23a8acb-affc-4ff4-9ca6-2b560b340a56" name="Conjunto de guitarras" presetName="(Personalizado)">
                <busConfig><![CDATA[{"in":[{"layout":[100,101],"name":"","type":0}],"out":[{"layout":[100,101],"name":"","type":0}]}]]></busConfig>
                <presetChunkData><![CDATA[EyBuYWZldFMNAAAAAQAAAOYSIUIAAHpEAACgQZ/noUEAAMhCAAEAAAAAAAABAAAAAAAAAAkAAAA=]]></presetChunkData>
              </component>
            </slot>
            <slot powered="true" slotIndex="2">
              <component componentGuid="64de6742-f902-47d4-8199-f26b99586faa" componentID="c5ca9e29-df07-42a6-8800-ba80324e5cbc" name="Misturador de canais" presetName="(Personalizado)">
                <busConfig><![CDATA[{"in":[{"layout":[100,101],"name":"","type":0}],"out":[{"layout":[100,101],"name":"","type":0}]}]]></busConfig>
                <parameter index="0" name="Número de canais" parameterValue="0.25"/>
                <parameter index="1" name="E para E" parameterValue="0.75"/>
                <parameter index="2" name="D para E" parameterValue="0.75"/>
                <parameter index="3" name="3 para E" parameterValue="0.5"/>
                <parameter index="4" name="4 para E" parameterValue="0.5"/>
                <parameter index="5" name="5 para E" parameterValue="0.5"/>
                <parameter index="6" name="6 para E" parameterValue="0.5"/>
                <parameter index="7" name="7 para E" parameterValue="0.5"/>
                <parameter index="8" name="8 para E" parameterValue="0.5"/>
                <parameter index="9" name="E para D" parameterValue="0.75"/>
                <parameter index="10" name="D para D" parameterValue="0.75"/>
                <parameter index="11" name="3 para D" parameterValue="0.5"/>
                <parameter index="12" name="4 para D" parameterValue="0.5"/>
                <parameter index="13" name="5 para D" parameterValue="0.5"/>
                <parameter index="14" name="6 para D" parameterValue="0.5"/>
                <parameter index="15" name="7 para D" parameterValue="0.5"/>
                <parameter index="16" name="8 para D" parameterValue="0.5"/>
                <parameter index="17" name="E para 3" parameterValue="0.5"/>
                <parameter index="18" name="D para 3" parameterValue="0.5"/>
                <parameter index="19" name="3 para 3" parameterValue="1"/>
                <parameter index="20" name="4 para 3" parameterValue="0.5"/>
                <parameter index="21" name="5 para 3" parameterValue="0.5"/>
                <parameter index="22" name="6 para 3" parameterValue="0.5"/>
                <parameter index="23" name="7 para 3" parameterValue="0.5"/>
                <parameter index="24" name="8 para 3" parameterValue="0.5"/>
                <parameter index="25" name="E para 4" parameterValue="0.5"/>
                <parameter index="26" name="D para 4" parameterValue="0.5"/>
                <parameter index="27" name="3 para 4" parameterValue="0.5"/>
                <parameter index="28" name="4 para 4" parameterValue="1"/>
                <parameter index="29" name="5 para 4" parameterValue="0.5"/>
                <parameter index="30" name="6 para 4" parameterValue="0.5"/>
                <parameter index="31" name="7 para 4" parameterValue="0.5"/>
                <parameter index="32" name="8 para 4" parameterValue="0.5"/>
                <parameter index="33" name="E para 5" parameterValue="0.5"/>
                <parameter index="34" name="D para 5" parameterValue="0.5"/>
                <parameter index="35" name="3 para 5" parameterValue="0.5"/>
                <parameter index="36" name="4 para 5" parameterValue="0.5"/>
                <parameter index="37" name="5 para 5" parameterValue="1"/>
                <parameter index="38" name="6 para 5" parameterValue="0.5"/>
                <parameter index="39" name="7 para 5" parameterValue="0.5"/>
                <parameter index="40" name="8 para 5" parameterValue="0.5"/>
                <parameter index="41" name="E para 6" parameterValue="0.5"/>
                <parameter index="42" name="D para 6" parameterValue="0.5"/>
                <parameter index="43" name="3 para 6" parameterValue="0.5"/>
                <parameter index="44" name="4 para 6" parameterValue="0.5"/>
                <parameter index="45" name="5 para 6" parameterValue="0.5"/>
                <parameter index="46" name="6 para 6" parameterValue="1"/>
                <parameter index="47" name="7 para 6" parameterValue="0.5"/>
                <parameter index="48" name="8 para 6" parameterValue="0.5"/>
                <parameter index="49" name="E para 7" parameterValue="0.5"/>
                <parameter index="50" name="D para 7" parameterValue="0.5"/>
                <parameter index="51" name="3 para 7" parameterValue="0.5"/>
                <parameter index="52" name="4 para 7" parameterValue="0.5"/>
                <parameter index="53" name="5 para 7" parameterValue="0.5"/>
                <parameter index="54" name="6 para 7" parameterValue="0.5"/>
                <parameter index="55" name="7 para 7" parameterValue="1"/>
                <parameter index="56" name="8 para 7" parameterValue="0.5"/>
                <parameter index="57" name="E para 8" parameterValue="0.5"/>
                <parameter index="58" name="D para 8" parameterValue="0.5"/>
                <parameter index="59" name="3 para 8" parameterValue="0.5"/>
                <parameter index="60" name="4 para 8" parameterValue="0.5"/>
                <parameter index="61" name="5 para 8" parameterValue="0.5"/>
                <parameter index="62" name="6 para 8" parameterValue="0.5"/>
                <parameter index="63" name="7 para 8" parameterValue="0.5"/>
                <parameter index="64" name="8 para 8" parameterValue="1"/>
              </component>
            </slot>
          </effectsRack>
          <component componentGuid="f9e42e10-f3c3-4fde-bf2d-e14d72e1ca81" componentID="Audition.Fader" id="clipGain" name="volume" powered="true">
            <parameter index="0" name="volume" parameterValue="1"/>
            <parameter index="1" name="static gain" parameterValue="1"/>
          </component>
          <component componentGuid="e0c4746f-e5d3-4a05-acaf-847dd9e0fb98" componentID="Audition.Mute" id="clipMute" name="Mute" powered="true">
            <parameter index="0" parameterValue="0"/>
            <parameter index="1" name="mute" parameterValue="0"/>
          </component>
          <component componentGuid="5fc4aff6-e8de-4080-aea5-7303ef22b2a9" componentID="Audition.StereoPanner" id="clipPan" name="StereoPanner" powered="true">
            <parameter index="0" name="Deslocar" parameterValue="0"/>
          </component>
          <fadeIn crossFadeLinkType="linkedAsymmetric" endPoint="0" shape="19" startPoint="0" type="log"/>
          <fadeOut crossFadeLinkType="linkedAsymmetric" endPoint="1781191" shape="19" startPoint="1754720" type="log"/>
          <editParameter parameterIndex="0" slotIndex="4294967280"/>
          <editParameter parameterIndex="0" slotIndex="4294967281"/>
          <channelMap>
            <channel index="0" sourceIndex="0"/>
            <channel index="1" sourceIndex="1"/>
          </channelMap>
        </audioClip>
        <audioClip clipAutoCrossfade="true" crossFadeHeadClipID="0" crossFadeTailClipID="-1" endPoint="3940525" fileID="1" hue="-1" id="1" lockedInTime="false" looped="false" name="Ato1Perg3Esc2E 44100 1" offline="false" select="false" sourceInPoint="74468" sourceOutPoint="2154116" startPoint="1860877" zOrder="40">
          <effectsRack preFader="true">
            <component componentGuid="633ae3fe-2b6f-4691-b8de-7fe35e81f50d" componentID="Audition.ComponentGroup" id="rackMix" powered="true">
              <parameter index="0" parameterValue="0"/>
              <parameter index="1" parameterValue="0"/>
            </component>
            <component componentGuid="d7a6d3bc-1533-468c-a4c1-bf92eecf519a" id="rackInput" powered="true">
              <parameter index="0" parameterValue="1"/>
              <parameter index="1" parameterValue="0"/>
            </component>
            <component componentGuid="0dff8631-41b3-4c96-ad4d-1c91130b5f14" id="rackOutput" powered="true">
              <parameter index="0" parameterValue="1"/>
              <parameter index="1" parameterValue="0"/>
            </component>
            <slot powered="true" slotIndex="0">
              <component componentGuid="56b39970-0be7-494c-891a-c4590d02ffc0" componentID="4f327230-f04c-4c34-9ea5-a998b4459221" name="Filtro de FFT" presetName="(Personalizado)">
                <busConfig><![CDATA[{"in":[{"layout":[100,101],"name":"","type":0}],"out":[{"layout":[100,101],"name":"","type":0}]}]]></busConfig>
                <presetChunkData><![CDATA[AEQsRwAAAAAQP3w9AADAPgAAAAAOdFo6AACAPwAAAAAAAIA/AADgQPv8bToAAAAAwyG0O3eQ+D6qFyk8XxcKPyfBVTweJD4/l+drPg00Pz+Lz+o+AAAAAAAAgD8AAAAA]]></presetChunkData>
              </component>
            </slot>
            <slot powered="true" slotIndex="1">
              <component componentGuid="e4e21e10-41bb-45c0-a007-4752621f74b7" componentID="c23a8acb-affc-4ff4-9ca6-2b560b340a56" name="Conjunto de guitarras" presetName="(Personalizado)">
                <busConfig><![CDATA[{"in":[{"layout":[100,101],"name":"","type":0}],"out":[{"layout":[100,101],"name":"","type":0}]}]]></busConfig>
                <presetChunkData><![CDATA[EyBuYWZldFMNAAAAAQAAAOYSIUIAAHpEAACgQZ/noUEAAMhCAAEAAAAAAAABAAAAAAAAAAkAAAA=]]></presetChunkData>
              </component>
            </slot>
            <slot powered="true" slotIndex="2">
              <component componentGuid="019c903d-4655-44e3-afc8-be933ede4534" componentID="c5ca9e29-df07-42a6-8800-ba80324e5cbc" name="Misturador de canais" presetName="(Personalizado)">
                <busConfig><![CDATA[{"in":[{"layout":[100,101],"name":"","type":0}],"out":[{"layout":[100,101],"name":"","type":0}]}]]></busConfig>
                <parameter index="0" name="Número de canais" parameterValue="0.25"/>
                <parameter index="1" name="E para E" parameterValue="0.75"/>
                <parameter index="2" name="D para E" parameterValue="0.75"/>
                <parameter index="3" name="3 para E" parameterValue="0.5"/>
                <parameter index="4" name="4 para E" parameterValue="0.5"/>
                <parameter index="5" name="5 para E" parameterValue="0.5"/>
                <parameter index="6" name="6 para E" parameterValue="0.5"/>
                <parameter index="7" name="7 para E" parameterValue="0.5"/>
                <parameter index="8" name="8 para E" parameterValue="0.5"/>
                <parameter index="9" name="E para D" parameterValue="0.75"/>
                <parameter index="10" name="D para D" parameterValue="0.75"/>
                <parameter index="11" name="3 para D" parameterValue="0.5"/>
                <parameter index="12" name="4 para D" parameterValue="0.5"/>
                <parameter index="13" name="5 para D" parameterValue="0.5"/>
                <parameter index="14" name="6 para D" parameterValue="0.5"/>
                <parameter index="15" name="7 para D" parameterValue="0.5"/>
                <parameter index="16" name="8 para D" parameterValue="0.5"/>
                <parameter index="17" name="E para 3" parameterValue="0.5"/>
                <parameter index="18" name="D para 3" parameterValue="0.5"/>
                <parameter index="19" name="3 para 3" parameterValue="1"/>
                <parameter index="20" name="4 para 3" parameterValue="0.5"/>
                <parameter index="21" name="5 para 3" parameterValue="0.5"/>
                <parameter index="22" name="6 para 3" parameterValue="0.5"/>
                <parameter index="23" name="7 para 3" parameterValue="0.5"/>
                <parameter index="24" name="8 para 3" parameterValue="0.5"/>
                <parameter index="25" name="E para 4" parameterValue="0.5"/>
                <parameter index="26" name="D para 4" parameterValue="0.5"/>
                <parameter index="27" name="3 para 4" parameterValue="0.5"/>
                <parameter index="28" name="4 para 4" parameterValue="1"/>
                <parameter index="29" name="5 para 4" parameterValue="0.5"/>
                <parameter index="30" name="6 para 4" parameterValue="0.5"/>
                <parameter index="31" name="7 para 4" parameterValue="0.5"/>
                <parameter index="32" name="8 para 4" parameterValue="0.5"/>
                <parameter index="33" name="E para 5" parameterValue="0.5"/>
                <parameter index="34" name="D para 5" parameterValue="0.5"/>
                <parameter index="35" name="3 para 5" parameterValue="0.5"/>
                <parameter index="36" name="4 para 5" parameterValue="0.5"/>
                <parameter index="37" name="5 para 5" parameterValue="1"/>
                <parameter index="38" name="6 para 5" parameterValue="0.5"/>
                <parameter index="39" name="7 para 5" parameterValue="0.5"/>
                <parameter index="40" name="8 para 5" parameterValue="0.5"/>
                <parameter index="41" name="E para 6" parameterValue="0.5"/>
                <parameter index="42" name="D para 6" parameterValue="0.5"/>
                <parameter index="43" name="3 para 6" parameterValue="0.5"/>
                <parameter index="44" name="4 para 6" parameterValue="0.5"/>
                <parameter index="45" name="5 para 6" parameterValue="0.5"/>
                <parameter index="46" name="6 para 6" parameterValue="1"/>
                <parameter index="47" name="7 para 6" parameterValue="0.5"/>
                <parameter index="48" name="8 para 6" parameterValue="0.5"/>
                <parameter index="49" name="E para 7" parameterValue="0.5"/>
                <parameter index="50" name="D para 7" parameterValue="0.5"/>
                <parameter index="51" name="3 para 7" parameterValue="0.5"/>
                <parameter index="52" name="4 para 7" parameterValue="0.5"/>
                <parameter index="53" name="5 para 7" parameterValue="0.5"/>
                <parameter index="54" name="6 para 7" parameterValue="0.5"/>
                <parameter index="55" name="7 para 7" parameterValue="1"/>
                <parameter index="56" name="8 para 7" parameterValue="0.5"/>
                <parameter index="57" name="E para 8" parameterValue="0.5"/>
                <parameter index="58" name="D para 8" parameterValue="0.5"/>
                <parameter index="59" name="3 para 8" parameterValue="0.5"/>
                <parameter index="60" name="4 para 8" parameterValue="0.5"/>
                <parameter index="61" name="5 para 8" parameterValue="0.5"/>
                <parameter index="62" name="6 para 8" parameterValue="0.5"/>
                <parameter index="63" name="7 para 8" parameterValue="0.5"/>
                <parameter index="64" name="8 para 8" parameterValue="1"/>
              </component>
            </slot>
          </effectsRack>
          <component componentGuid="4a428fff-67d3-4856-a157-36046911c98d" componentID="Audition.Fader" id="clipGain" name="volume" powered="true">
            <parameter index="0" name="volume" parameterValue="1"/>
            <parameter index="1" name="static gain" parameterValue="1"/>
          </component>
          <component componentGuid="f02ee8b9-4987-42d1-b758-68ce20539d4a" componentID="Audition.Mute" id="clipMute" name="Mute" powered="true">
            <parameter index="0" parameterValue="0"/>
            <parameter index="1" name="mute" parameterValue="0"/>
          </component>
          <component componentGuid="a8cce5fc-ccfe-4020-9fdd-62a5f7ba3cf1" componentID="Audition.StereoPanner" id="clipPan" name="StereoPanner" powered="true">
            <parameter index="0" name="Deslocar" parameterValue="0"/>
          </component>
          <fadeIn crossFadeLinkType="linkedAsymmetric" endPoint="26471" shape="18" startPoint="0" type="log"/>
          <fadeOut crossFadeLinkType="linkedAsymmetric" endPoint="2079648" shape="19" startPoint="2079648" type="log"/>
          <editParameter parameterIndex="0" slotIndex="4294967280"/>
          <editParameter parameterIndex="0" slotIndex="4294967281"/>
          <channelMap>
            <channel index="0" sourceIndex="0"/>
            <channel index="1" sourceIndex="1"/>
          </channelMap>
        </audioClip>
        <audioClip clipAutoCrossfade="true" crossFadeHeadClipID="-1" crossFadeTailClipID="3" endPoint="6498136" fileID="2" hue="-1" id="2" lockedInTime="false" looped="false" name="Radio turning on sound effect 44100 2" offline="false" select="false" sourceInPoint="0" sourceOutPoint="131241" startPoint="6366895" zOrder="33">
          <properties properties="{&quot;BasicAdjustmentsProperty&quot;:{&quot;type&quot;:&quot;tree::any&quot;,&quot;value&quot;:{&quot;AdjustmentMode&quot;:{&quot;type&quot;:&quot;UTF8String&quot;,&quot;value&quot;:&quot;ambience&quot;},&quot;ClipType&quot;:{&quot;type&quot;:&quot;std::int32_t&quot;,&quot;value&quot;:5},&quot;PresetGuid&quot;:{&quot;type&quot;:&quot;UTF8String&quot;,&quot;value&quot;:&quot;b3526c89-21a6-48b6-bb5e-7f323a45a206&quot;},&quot;SoundEffectsSection&quot;:{&quot;type&quot;:&quot;tree::any&quot;,&quot;value&quot;:{&quot;Enabled&quot;:{&quot;type&quot;:&quot;bool&quot;,&quot;value&quot;:true},&quot;Reverb&quot;:{&quot;type&quot;:&quot;tree::any&quot;,&quot;value&quot;:{&quot;3&quot;:{&quot;type&quot;:&quot;tree::any&quot;,&quot;value&quot;:{&quot;Value&quot;:{&quot;type&quot;:&quot;float&quot;,&quot;value&quot;:1}}}}}}},&quot;StereoWidthSection&quot;:{&quot;type&quot;:&quot;tree::any&quot;,&quot;value&quot;:{&quot;Enabled&quot;:{&quot;type&quot;:&quot;bool&quot;,&quot;value&quot;:true}}},&quot;VolumeSection&quot;:{&quot;type&quot;:&quot;tree::any&quot;,&quot;value&quot;:{&quot;Enabled&quot;:{&quot;type&quot;:&quot;bool&quot;,&quot;value&quot;:true},&quot;Gain&quot;:{&quot;type&quot;:&quot;tree::any&quot;,&quot;value&quot;:{&quot;2&quot;:{&quot;type&quot;:&quot;tree::any&quot;,&quot;value&quot;:{&quot;Value&quot;:{&quot;type&quot;:&quot;float&quot;,&quot;value&quot;:-5}}},&quot;Enabled&quot;:{&quot;type&quot;:&quot;bool&quot;,&quot;value&quot;:true},&quot;UUID&quot;:{&quot;type&quot;:&quot;UTF8String&quot;,&quot;value&quot;:&quot;e6b6cf97-148f-4523-91d8-ef25bc16b922&quot;}}}}}}}}"/>
          <effectsRack preFader="true">
            <component componentGuid="7535b0b8-d04a-49b5-8e25-3d07fbbd5f87" componentID="Audition.ComponentGroup" id="rackMix" powered="true">
              <parameter index="0" parameterValue="0"/>
              <parameter index="1" parameterValue="0"/>
            </component>
            <component componentGuid="bfbb5f03-e777-4ad6-be6d-178ac2684bc8" id="rackInput" powered="true">
              <parameter index="0" parameterValue="1"/>
              <parameter index="1" parameterValue="0"/>
            </component>
            <component componentGuid="69664671-f9fc-4da8-ab69-183638bce768" id="rackOutput" powered="true">
              <parameter index="0" parameterValue="1"/>
              <parameter index="1" parameterValue="0"/>
            </component>
            <slot powered="true" slotIndex="0">
              <component componentGuid="e6b6cf97-148f-4523-91d8-ef25bc16b922" componentID="e0b23f05-f1a7-4ef7-9b50-7ec3e3002058" name="Limitador pesado" presetName="(Padrão)">
                <busConfig><![CDATA[{"in":[{"layout":[100,101],"name":"","type":0}],"out":[{"layout":[100,101],"name":"","type":0}]}]]></busConfig>
                <parameter index="0" name="Amplitude máxima" parameterValue="0.99800002574920654296875"/>
                <parameter index="1" name="Aumento de entrada" parameterValue="0.63333332538604736328125"/>
                <parameter index="2" name="Período look-ahead" parameterValue="0.13333301246166229248046875"/>
                <parameter index="3" name="Tempo de liberação" parameterValue="0.375"/>
                <parameter index="4" name="Vincular canais" parameterValue="1"/>
                <parameter index="5" name="Diminuir para o limite superior" parameterValue="1"/>
                <parameter index="6" name="Limitar pico verdadeiro" parameterValue="1"/>
              </component>
            </slot>
          </effectsRack>
          <component componentGuid="4462772c-d0b0-4887-8edb-57adb65d4d56" componentID="Audition.Fader" id="clipGain" name="volume" powered="true">
            <parameter index="0" name="volume" parameterValue="1"/>
            <parameter index="1" name="static gain" parameterValue="1"/>
          </component>
          <component componentGuid="5c245e93-e8e9-4e9e-a36a-1da60431e7c9" componentID="Audition.Mute" id="clipMute" name="Mute" powered="true">
            <parameter index="0" parameterValue="0"/>
            <parameter index="1" name="mute" parameterValue="0"/>
          </component>
          <component componentGuid="1f5988a5-bc91-41a8-9f4b-1e5a38030c1e" componentID="Audition.StereoPanner" id="clipPan" name="StereoPanner" powered="true">
            <parameter index="0" name="Deslocar" parameterValue="0"/>
          </component>
          <fadeIn crossFadeLinkType="linkedAsymmetric" endPoint="0" shape="19" startPoint="0" type="log"/>
          <fadeOut crossFadeLinkType="linkedAsymmetric" endPoint="131241" shape="19" startPoint="104571" type="log"/>
          <editParameter parameterIndex="0" slotIndex="4294967280"/>
          <editParameter parameterIndex="0" slotIndex="4294967281"/>
          <channelMap>
            <channel index="0" sourceIndex="0"/>
            <channel index="1" sourceIndex="1"/>
          </channelMap>
        </audioClip>
        <audioClip clipAutoCrossfade="true" crossFadeHeadClipID="2" crossFadeTailClipID="-1" endPoint="7216442" fileID="1" hue="-1" id="3" lockedInTime="false" looped="false" name="Ato1Perg3Esc2E 44100 1" offline="false" select="false" sourceInPoint="4745492" sourceOutPoint="5490468" startPoint="6471466" zOrder="32">
          <component componentGuid="80808a44-e539-435d-850c-8e8c13527f98" componentID="Audition.Fader" id="clipGain" name="volume" powered="true">
            <parameter index="0" name="volume" parameterValue="1"/>
            <parameter index="1" name="static gain" parameterValue="1"/>
          </component>
          <component componentGuid="89a8d9e0-0692-43ad-93d8-0ee2c6790e26" componentID="Audition.Mute" id="clipMute" name="Mute" powered="true">
            <parameter index="0" parameterValue="0"/>
            <parameter index="1" name="mute" parameterValue="0"/>
          </component>
          <component componentGuid="42857518-c4fa-49c5-8410-67e8e9c13d3f" componentID="Audition.StereoPanner" id="clipPan" name="StereoPanner" powered="true">
            <parameter index="0" name="Deslocar" parameterValue="0"/>
          </component>
          <fadeIn crossFadeLinkType="linkedAsymmetric" endPoint="26670" shape="18" startPoint="0" type="log"/>
          <fadeOut crossFadeLinkType="linkedAsymmetric" endPoint="744976" shape="19" startPoint="744976" type="log"/>
          <editParameter parameterIndex="0" slotIndex="4294967280"/>
          <editParameter parameterIndex="0" slotIndex="4294967281"/>
          <channelMap>
            <channel index="0" sourceIndex="0"/>
            <channel index="1" sourceIndex="1"/>
          </channelMap>
        </audioClip>
        <audioClip clipAutoCrossfade="true" crossFadeHeadClipID="-1" crossFadeTailClipID="5" endPoint="7744082" fileID="2" hue="-1" id="4" lockedInTime="false" looped="false" name="Radio turning on sound effect 44100 2" offline="false" select="false" sourceInPoint="0" sourceOutPoint="131241" startPoint="7612841" zOrder="34">
          <properties properties="{&quot;BasicAdjustmentsProperty&quot;:{&quot;type&quot;:&quot;tree::any&quot;,&quot;value&quot;:{&quot;AdjustmentMode&quot;:{&quot;type&quot;:&quot;UTF8String&quot;,&quot;value&quot;:&quot;ambience&quot;},&quot;ClipType&quot;:{&quot;type&quot;:&quot;std::int32_t&quot;,&quot;value&quot;:5},&quot;PresetGuid&quot;:{&quot;type&quot;:&quot;UTF8String&quot;,&quot;value&quot;:&quot;b3526c89-21a6-48b6-bb5e-7f323a45a206&quot;},&quot;SoundEffectsSection&quot;:{&quot;type&quot;:&quot;tree::any&quot;,&quot;value&quot;:{&quot;Enabled&quot;:{&quot;type&quot;:&quot;bool&quot;,&quot;value&quot;:true},&quot;Reverb&quot;:{&quot;type&quot;:&quot;tree::any&quot;,&quot;value&quot;:{&quot;3&quot;:{&quot;type&quot;:&quot;tree::any&quot;,&quot;value&quot;:{&quot;Value&quot;:{&quot;type&quot;:&quot;float&quot;,&quot;value&quot;:1}}}}}}},&quot;StereoWidthSection&quot;:{&quot;type&quot;:&quot;tree::any&quot;,&quot;value&quot;:{&quot;Enabled&quot;:{&quot;type&quot;:&quot;bool&quot;,&quot;value&quot;:true}}},&quot;VolumeSection&quot;:{&quot;type&quot;:&quot;tree::any&quot;,&quot;value&quot;:{&quot;Enabled&quot;:{&quot;type&quot;:&quot;bool&quot;,&quot;value&quot;:true},&quot;Gain&quot;:{&quot;type&quot;:&quot;tree::any&quot;,&quot;value&quot;:{&quot;2&quot;:{&quot;type&quot;:&quot;tree::any&quot;,&quot;value&quot;:{&quot;Value&quot;:{&quot;type&quot;:&quot;float&quot;,&quot;value&quot;:-5}}},&quot;Enabled&quot;:{&quot;type&quot;:&quot;bool&quot;,&quot;value&quot;:true},&quot;UUID&quot;:{&quot;type&quot;:&quot;UTF8String&quot;,&quot;value&quot;:&quot;b0a2e5ff-f61f-4ee5-bc61-a5e594a89b99&quot;}}}}}}}}"/>
          <effectsRack preFader="true">
            <component componentGuid="be8a9aa6-ecd1-405e-b2df-d40256f729cf" componentID="Audition.ComponentGroup" id="rackMix" powered="true">
              <parameter index="0" parameterValue="0"/>
              <parameter index="1" parameterValue="0"/>
            </component>
            <component componentGuid="f41cb252-e8b3-4c05-aac1-62c6cb71d6ce" id="rackInput" powered="true">
              <parameter index="0" parameterValue="1"/>
              <parameter index="1" parameterValue="0"/>
            </component>
            <component componentGuid="e972ff59-cf63-478d-9b21-e435c62ce87a" id="rackOutput" powered="true">
              <parameter index="0" parameterValue="1"/>
              <parameter index="1" parameterValue="0"/>
            </component>
            <slot powered="true" slotIndex="0">
              <component componentGuid="b0a2e5ff-f61f-4ee5-bc61-a5e594a89b99" componentID="e0b23f05-f1a7-4ef7-9b50-7ec3e3002058" name="Limitador pesado" presetName="(Padrão)">
                <busConfig><![CDATA[{"in":[{"layout":[100,101],"name":"","type":0}],"out":[{"layout":[100,101],"name":"","type":0}]}]]></busConfig>
                <parameter index="0" name="Amplitude máxima" parameterValue="0.99800002574920654296875"/>
                <parameter index="1" name="Aumento de entrada" parameterValue="0.63333332538604736328125"/>
                <parameter index="2" name="Período look-ahead" parameterValue="0.13333301246166229248046875"/>
                <parameter index="3" name="Tempo de liberação" parameterValue="0.375"/>
                <parameter index="4" name="Vincular canais" parameterValue="1"/>
                <parameter index="5" name="Diminuir para o limite superior" parameterValue="1"/>
                <parameter index="6" name="Limitar pico verdadeiro" parameterValue="1"/>
              </component>
            </slot>
          </effectsRack>
          <component componentGuid="3715aef2-ae4a-4d96-a44f-a82341e726a6" componentID="Audition.Fader" id="clipGain" name="volume" powered="true">
            <parameter index="0" name="volume" parameterValue="1"/>
            <parameter index="1" name="static gain" parameterValue="1"/>
          </component>
          <component componentGuid="fba60dd8-6499-4caf-af87-688b56350908" componentID="Audition.Mute" id="clipMute" name="Mute" powered="true">
            <parameter index="0" parameterValue="0"/>
            <parameter index="1" name="mute" parameterValue="0"/>
          </component>
          <component componentGuid="81e84512-62d3-4f21-8edc-0e9761443691" componentID="Audition.StereoPanner" id="clipPan" name="StereoPanner" powered="true">
            <parameter index="0" name="Deslocar" parameterValue="0"/>
          </component>
          <fadeIn crossFadeLinkType="linkedAsymmetric" endPoint="0" shape="19" startPoint="0" type="log"/>
          <fadeOut crossFadeLinkType="linkedAsymmetric" endPoint="131241" shape="19" startPoint="81618" type="log"/>
          <editParameter parameterIndex="0" slotIndex="4294967280"/>
          <editParameter parameterIndex="0" slotIndex="4294967281"/>
          <channelMap>
            <channel index="0" sourceIndex="0"/>
            <channel index="1" sourceIndex="1"/>
          </channelMap>
        </audioClip>
        <audioClip clipAutoCrossfade="true" crossFadeHeadClipID="4" crossFadeTailClipID="6" endPoint="8287754" fileID="1" hue="-1" id="5" lockedInTime="false" looped="false" name="Ato1Perg3Esc2E 44100 1" offline="false" select="false" sourceInPoint="6233085" sourceOutPoint="6826380" startPoint="7694459" zOrder="35">
          <effectsRack preFader="true">
            <component componentGuid="dbd1a800-0331-4ee6-b847-d9eda851783e" componentID="Audition.ComponentGroup" id="rackMix" powered="true">
              <parameter index="0" parameterValue="0"/>
              <parameter index="1" parameterValue="0"/>
            </component>
            <component componentGuid="37c4a4ab-c767-4f28-83ab-329dee8e0fc9" id="rackInput" powered="true">
              <parameter index="0" parameterValue="1"/>
              <parameter index="1" parameterValue="0"/>
            </component>
            <component componentGuid="aa77d584-17a6-4b6b-969c-68ee1864baae" id="rackOutput" powered="true">
              <parameter index="0" parameterValue="1"/>
              <parameter index="1" parameterValue="0"/>
            </component>
            <slot powered="true" slotIndex="0">
              <component componentGuid="fa72b63b-d1c2-4900-b299-2000ee8e2643" componentID="4f327230-f04c-4c34-9ea5-a998b4459221" name="Filtro de FFT" presetName="(Personalizado)">
                <busConfig><![CDATA[{"in":[{"layout":[100,101],"name":"","type":0}],"out":[{"layout":[100,101],"name":"","type":0}]}]]></busConfig>
                <presetChunkData><![CDATA[AEQsRwAAAAAQP3w9AADAPgAAAAAOdFo6AACAPwAAAAAAAIA/AADgQPv8bToAAAAAwyG0O3eQ+D6qFyk8XxcKPyfBVTweJD4/l+drPg00Pz+Lz+o+AAAAAAAAgD8AAAAA]]></presetChunkData>
              </component>
            </slot>
            <slot powered="true" slotIndex="1">
              <component componentGuid="9ed50403-4cb0-46bb-985f-8a2a90b77d45" componentID="c23a8acb-affc-4ff4-9ca6-2b560b340a56" name="Conjunto de guitarras" presetName="(Personalizado)">
                <busConfig><![CDATA[{"in":[{"layout":[100,101],"name":"","type":0}],"out":[{"layout":[100,101],"name":"","type":0}]}]]></busConfig>
                <presetChunkData><![CDATA[EyBuYWZldFMNAAAAAQAAAOYSIUIAAHpEAACgQZ/noUEAAMhCAAEAAAAAAAABAAAAAAAAAAkAAAA=]]></presetChunkData>
              </component>
            </slot>
            <slot powered="true" slotIndex="2">
              <component componentGuid="6ec51050-1305-412e-9a87-2001210f6f88" componentID="c5ca9e29-df07-42a6-8800-ba80324e5cbc" name="Misturador de canais" presetName="(Personalizado)">
                <busConfig><![CDATA[{"in":[{"layout":[100,101],"name":"","type":0}],"out":[{"layout":[100,101],"name":"","type":0}]}]]></busConfig>
                <parameter index="0" name="Número de canais" parameterValue="0.25"/>
                <parameter index="1" name="E para E" parameterValue="0.75"/>
                <parameter index="2" name="D para E" parameterValue="0.75"/>
                <parameter index="3" name="3 para E" parameterValue="0.5"/>
                <parameter index="4" name="4 para E" parameterValue="0.5"/>
                <parameter index="5" name="5 para E" parameterValue="0.5"/>
                <parameter index="6" name="6 para E" parameterValue="0.5"/>
                <parameter index="7" name="7 para E" parameterValue="0.5"/>
                <parameter index="8" name="8 para E" parameterValue="0.5"/>
                <parameter index="9" name="E para D" parameterValue="0.75"/>
                <parameter index="10" name="D para D" parameterValue="0.75"/>
                <parameter index="11" name="3 para D" parameterValue="0.5"/>
                <parameter index="12" name="4 para D" parameterValue="0.5"/>
                <parameter index="13" name="5 para D" parameterValue="0.5"/>
                <parameter index="14" name="6 para D" parameterValue="0.5"/>
                <parameter index="15" name="7 para D" parameterValue="0.5"/>
                <parameter index="16" name="8 para D" parameterValue="0.5"/>
                <parameter index="17" name="E para 3" parameterValue="0.5"/>
                <parameter index="18" name="D para 3" parameterValue="0.5"/>
                <parameter index="19" name="3 para 3" parameterValue="1"/>
                <parameter index="20" name="4 para 3" parameterValue="0.5"/>
                <parameter index="21" name="5 para 3" parameterValue="0.5"/>
                <parameter index="22" name="6 para 3" parameterValue="0.5"/>
                <parameter index="23" name="7 para 3" parameterValue="0.5"/>
                <parameter index="24" name="8 para 3" parameterValue="0.5"/>
                <parameter index="25" name="E para 4" parameterValue="0.5"/>
                <parameter index="26" name="D para 4" parameterValue="0.5"/>
                <parameter index="27" name="3 para 4" parameterValue="0.5"/>
                <parameter index="28" name="4 para 4" parameterValue="1"/>
                <parameter index="29" name="5 para 4" parameterValue="0.5"/>
                <parameter index="30" name="6 para 4" parameterValue="0.5"/>
                <parameter index="31" name="7 para 4" parameterValue="0.5"/>
                <parameter index="32" name="8 para 4" parameterValue="0.5"/>
                <parameter index="33" name="E para 5" parameterValue="0.5"/>
                <parameter index="34" name="D para 5" parameterValue="0.5"/>
                <parameter index="35" name="3 para 5" parameterValue="0.5"/>
                <parameter index="36" name="4 para 5" parameterValue="0.5"/>
                <parameter index="37" name="5 para 5" parameterValue="1"/>
                <parameter index="38" name="6 para 5" parameterValue="0.5"/>
                <parameter index="39" name="7 para 5" parameterValue="0.5"/>
                <parameter index="40" name="8 para 5" parameterValue="0.5"/>
                <parameter index="41" name="E para 6" parameterValue="0.5"/>
                <parameter index="42" name="D para 6" parameterValue="0.5"/>
                <parameter index="43" name="3 para 6" parameterValue="0.5"/>
                <parameter index="44" name="4 para 6" parameterValue="0.5"/>
                <parameter index="45" name="5 para 6" parameterValue="0.5"/>
                <parameter index="46" name="6 para 6" parameterValue="1"/>
                <parameter index="47" name="7 para 6" parameterValue="0.5"/>
                <parameter index="48" name="8 para 6" parameterValue="0.5"/>
                <parameter index="49" name="E para 7" parameterValue="0.5"/>
                <parameter index="50" name="D para 7" parameterValue="0.5"/>
                <parameter index="51" name="3 para 7" parameterValue="0.5"/>
                <parameter index="52" name="4 para 7" parameterValue="0.5"/>
                <parameter index="53" name="5 para 7" parameterValue="0.5"/>
                <parameter index="54" name="6 para 7" parameterValue="0.5"/>
                <parameter index="55" name="7 para 7" parameterValue="1"/>
                <parameter index="56" name="8 para 7" parameterValue="0.5"/>
                <parameter index="57" name="E para 8" parameterValue="0.5"/>
                <parameter index="58" name="D para 8" parameterValue="0.5"/>
                <parameter index="59" name="3 para 8" parameterValue="0.5"/>
                <parameter index="60" name="4 para 8" parameterValue="0.5"/>
                <parameter index="61" name="5 para 8" parameterValue="0.5"/>
                <parameter index="62" name="6 para 8" parameterValue="0.5"/>
                <parameter index="63" name="7 para 8" parameterValue="0.5"/>
                <parameter index="64" name="8 para 8" parameterValue="1"/>
              </component>
            </slot>
          </effectsRack>
          <component componentGuid="8c6977be-0ffb-4fca-b6ea-1b51b8bb3985" componentID="Audition.Fader" id="clipGain" name="volume" powered="true">
            <parameter index="0" name="volume" parameterValue="1"/>
            <parameter index="1" name="static gain" parameterValue="1"/>
          </component>
          <component componentGuid="881e5495-93be-49c2-9695-80fd3abc254d" componentID="Audition.Mute" id="clipMute" name="Mute" powered="true">
            <parameter index="0" parameterValue="0"/>
            <parameter index="1" name="mute" parameterValue="0"/>
          </component>
          <component componentGuid="798de0e5-a1f6-4b60-89f7-d70a840a3d3d" componentID="Audition.StereoPanner" id="clipPan" name="StereoPanner" powered="true">
            <parameter index="0" name="Deslocar" parameterValue="0"/>
          </component>
          <fadeIn crossFadeLinkType="linkedAsymmetric" endPoint="49623" shape="18" startPoint="0" type="log"/>
          <fadeOut crossFadeLinkType="linkedAsymmetric" endPoint="593295" shape="19" startPoint="577930" type="log"/>
          <editParameter parameterIndex="0" slotIndex="4294967280"/>
          <editParameter parameterIndex="0" slotIndex="4294967281"/>
          <channelMap>
            <channel index="0" sourceIndex="0"/>
            <channel index="1" sourceIndex="1"/>
          </channelMap>
        </audioClip>
        <audioClip clipAutoCrossfade="true" crossFadeHeadClipID="5" crossFadeTailClipID="-1" endPoint="8403630" fileID="2" hue="-1" id="6" lockedInTime="false" looped="false" name="Radio turning on sound effect 44100 2" offline="false" select="false" sourceInPoint="0" sourceOutPoint="131241" startPoint="8272389" zOrder="36">
          <properties properties="{&quot;BasicAdjustmentsProperty&quot;:{&quot;type&quot;:&quot;tree::any&quot;,&quot;value&quot;:{&quot;AdjustmentMode&quot;:{&quot;type&quot;:&quot;UTF8String&quot;,&quot;value&quot;:&quot;ambience&quot;},&quot;ClipType&quot;:{&quot;type&quot;:&quot;std::int32_t&quot;,&quot;value&quot;:5},&quot;PresetGuid&quot;:{&quot;type&quot;:&quot;UTF8String&quot;,&quot;value&quot;:&quot;b3526c89-21a6-48b6-bb5e-7f323a45a206&quot;},&quot;SoundEffectsSection&quot;:{&quot;type&quot;:&quot;tree::any&quot;,&quot;value&quot;:{&quot;Enabled&quot;:{&quot;type&quot;:&quot;bool&quot;,&quot;value&quot;:true},&quot;Reverb&quot;:{&quot;type&quot;:&quot;tree::any&quot;,&quot;value&quot;:{&quot;3&quot;:{&quot;type&quot;:&quot;tree::any&quot;,&quot;value&quot;:{&quot;Value&quot;:{&quot;type&quot;:&quot;float&quot;,&quot;value&quot;:1}}}}}}},&quot;StereoWidthSection&quot;:{&quot;type&quot;:&quot;tree::any&quot;,&quot;value&quot;:{&quot;Enabled&quot;:{&quot;type&quot;:&quot;bool&quot;,&quot;value&quot;:true}}},&quot;VolumeSection&quot;:{&quot;type&quot;:&quot;tree::any&quot;,&quot;value&quot;:{&quot;Enabled&quot;:{&quot;type&quot;:&quot;bool&quot;,&quot;value&quot;:true},&quot;Gain&quot;:{&quot;type&quot;:&quot;tree::any&quot;,&quot;value&quot;:{&quot;2&quot;:{&quot;type&quot;:&quot;tree::any&quot;,&quot;value&quot;:{&quot;Value&quot;:{&quot;type&quot;:&quot;float&quot;,&quot;value&quot;:-5}}},&quot;Enabled&quot;:{&quot;type&quot;:&quot;bool&quot;,&quot;value&quot;:true},&quot;UUID&quot;:{&quot;type&quot;:&quot;UTF8String&quot;,&quot;value&quot;:&quot;209b6aa4-9e3c-467e-9ab3-f8fc59e3c4ef&quot;}}}}}}}}"/>
          <effectsRack preFader="true">
            <component componentGuid="d06f1c58-7acd-4eec-8d71-206b4b9ac64f" componentID="Audition.ComponentGroup" id="rackMix" powered="true">
              <parameter index="0" parameterValue="0"/>
              <parameter index="1" parameterValue="0"/>
            </component>
            <component componentGuid="0ffc8af0-26d6-4a36-9816-c84df62903cc" id="rackInput" powered="true">
              <parameter index="0" parameterValue="1"/>
              <parameter index="1" parameterValue="0"/>
            </component>
            <component componentGuid="1bd976ac-f903-4734-92af-62f64c5521d9" id="rackOutput" powered="true">
              <parameter index="0" parameterValue="1"/>
              <parameter index="1" parameterValue="0"/>
            </component>
            <slot powered="true" slotIndex="0">
              <component componentGuid="209b6aa4-9e3c-467e-9ab3-f8fc59e3c4ef" componentID="e0b23f05-f1a7-4ef7-9b50-7ec3e3002058" name="Limitador pesado" presetName="(Padrão)">
                <busConfig><![CDATA[{"in":[{"layout":[100,101],"name":"","type":0}],"out":[{"layout":[100,101],"name":"","type":0}]}]]></busConfig>
                <parameter index="0" name="Amplitude máxima" parameterValue="0.99800002574920654296875"/>
                <parameter index="1" name="Aumento de entrada" parameterValue="0.63333332538604736328125"/>
                <parameter index="2" name="Período look-ahead" parameterValue="0.13333301246166229248046875"/>
                <parameter index="3" name="Tempo de liberação" parameterValue="0.375"/>
                <parameter index="4" name="Vincular canais" parameterValue="1"/>
                <parameter index="5" name="Diminuir para o limite superior" parameterValue="1"/>
                <parameter index="6" name="Limitar pico verdadeiro" parameterValue="1"/>
              </component>
            </slot>
          </effectsRack>
          <component componentGuid="7c33f5c5-ebe8-4b9b-96dc-ed9111906be8" componentID="Audition.Fader" id="clipGain" name="volume" powered="true">
            <parameter index="0" name="volume" parameterValue="1"/>
            <parameter index="1" name="static gain" parameterValue="1"/>
          </component>
          <component componentGuid="61bc79f1-2fd8-4dc6-b0eb-a44198393a3b" componentID="Audition.Mute" id="clipMute" name="Mute" powered="true">
            <parameter index="0" parameterValue="0"/>
            <parameter index="1" name="mute" parameterValue="0"/>
          </component>
          <component componentGuid="71b715ea-542c-4225-bb67-2f5d3494f0fc" componentID="Audition.StereoPanner" id="clipPan" name="StereoPanner" powered="true">
            <parameter index="0" name="Deslocar" parameterValue="0"/>
          </component>
          <fadeIn crossFadeLinkType="linkedAsymmetric" endPoint="15365" shape="18" startPoint="0" type="log"/>
          <fadeOut crossFadeLinkType="linkedAsymmetric" endPoint="131241" shape="19" startPoint="131241" type="log"/>
          <editParameter parameterIndex="0" slotIndex="4294967280"/>
          <editParameter parameterIndex="0" slotIndex="4294967281"/>
          <channelMap>
            <channel index="0" sourceIndex="0"/>
            <channel index="1" sourceIndex="1"/>
          </channelMap>
        </audioClip>
      </audioTrack>
      <audioTrack automationLaneOpenState="false" id="10002" index="2" select="false" visible="true">
        <trackParameters trackHeight="30" trackHue="267" trackMinimized="false">
          <name>Faixa 2</name>
        </trackParameters>
        <trackAudioParameters audioChannelType="stereo" automationMode="1" monitoring="false" recordArmed="false" solo="false" soloSafe="false">
          <trackOutput outputID="10000" type="trackID"/>
          <trackInput inputID="1"/>
          <component componentGuid="4e450e1c-ce2d-4d42-8451-362c6f1e359e" componentID="Audition.Fader" id="trackFader" name="volume" powered="true">
            <parameter index="0" name="volume" parameterValue="1"/>
            <parameter index="1" name="static gain" parameterValue="1"/>
          </component>
          <component componentGuid="1407ee2f-d4a0-4b6b-bb62-d3177e0b6f0f" componentID="Audition.Mute" id="trackMute" name="Mute" powered="true">
            <parameter index="0" parameterValue="0"/>
            <parameter index="1" name="mute" parameterValue="0"/>
          </component>
          <component componentGuid="0d571b02-cda0-4c5a-abd2-71be5558cc30" componentID="Audition.StereoTo51Panner" id="trackPan" name="StereoTo51Panner" powered="true">
            <parameter index="0" name="Panorâmica: Ângulo" parameterValue="2.4858973026275634765625"/>
            <parameter index="1" name="Panorâmica: Raio" parameterValue="0.74550998210906982421875"/>
            <parameter index="2" name="Panorâmica: Centro" parameterValue="1"/>
            <parameter index="3" name="Panorâmica: LFE" parameterValue="0"/>
            <parameter index="4" name="Panorâmica: difusão estéreo" parameterValue="0.523599147796630859375"/>
            <parameter index="5" name="leftEnable" parameterValue="1"/>
            <parameter index="6" name="rightEnable" parameterValue="1"/>
            <parameter index="7" name="centerEnable" parameterValue="1"/>
            <parameter index="8" name="lfeEnable" parameterValue="1"/>
            <parameter index="9" name="leftSurroundEnable" parameterValue="1"/>
            <parameter index="10" name="rightSurroundEnable" parameterValue="1"/>
            <parameter index="11" name="leftSolo" parameterValue="0"/>
            <parameter index="12" name="rightSolo" parameterValue="0"/>
            <parameter index="13" name="centerSolo" parameterValue="0"/>
            <parameter index="14" name="lfeSolo" parameterValue="0"/>
            <parameter index="15" name="leftSurroundSolo" parameterValue="0"/>
            <parameter index="16" name="rightSurroundSolo" parameterValue="0"/>
          </component>
          <component componentGuid="4bdf75bc-c5ee-4c9d-a2e8-6737396bd025" componentID="Audition.EQ" id="trackEQ" name="EQ" powered="false">
            <parameter index="0" name="Frequência de estante inferior" parameterValue="0.0009078529546968638896942138671875"/>
            <parameter index="1" name="Ganho de estante inferior" parameterValue="0.5"/>
            <parameter index="2" name="Frequência de prateleira superior" parameterValue="0.816159784793853759765625"/>
            <parameter index="3" name="Ganho de estante superior" parameterValue="0.5"/>
            <parameter index="4" name="Frequência central de banda de EQ 1" parameterValue="0.0013617794029414653778076171875"/>
            <parameter index="5" name="Banda de EQ 1 Q" parameterValue="0.000199989997781813144683837890625"/>
            <parameter index="6" name="Ganho de banda de EQ 1" parameterValue="0.5"/>
            <parameter index="7" name="Ativar Banda de EQ 1" parameterValue="1"/>
            <parameter index="8" name="Frequências centrais de banda de EQ 2" parameterValue="0.008170676417648792266845703125"/>
            <parameter index="9" name="Banda de EQ 2 Q" parameterValue="0.000199989997781813144683837890625"/>
            <parameter index="10" name="Ganho de banda de EQ 2" parameterValue="0.5"/>
            <parameter index="11" name="Ativar banda de EQ 2" parameterValue="1"/>
            <parameter index="12" name="Frequências centrais de banda de EQ 3" parameterValue="0.0354062654078006744384765625"/>
            <parameter index="13" name="Banda de EQ 3 Q" parameterValue="0.000199989997781813144683837890625"/>
            <parameter index="14" name="Ganho de banda de EQ 3" parameterValue="0.5"/>
            <parameter index="15" name="Ativar banda de EQ 3" parameterValue="1"/>
            <parameter index="16" name="Frequência central de banda de EQ 4" parameterValue="0.144348621368408203125"/>
            <parameter index="17" name="Banda de EQ 4 Q" parameterValue="0.000199989997781813144683837890625"/>
            <parameter index="18" name="Ganho de banda de EQ 4" parameterValue="0.5"/>
            <parameter index="19" name="Ativar banda de EQ 4" parameterValue="1"/>
            <parameter index="20" name="Frequências centrais de banda de EQ 5" parameterValue="0.580118000507354736328125"/>
            <parameter index="21" name="Banda de EQ 5 Q" parameterValue="0.000199989997781813144683837890625"/>
            <parameter index="22" name="Ganho de banda de EQ 5" parameterValue="0.5"/>
            <parameter index="23" name="Ativar banda de EQ 5" parameterValue="1"/>
            <parameter index="24" name="Ganho" parameterValue="0.666666686534881591796875"/>
            <parameter index="25" name="ConstantQ" parameterValue="1"/>
            <parameter index="26" name="Ordem de filtro de estante inferior" parameterValue="0"/>
            <parameter index="27" name="Ordem de filtro de estante superior" parameterValue="0"/>
            <parameter index="28" name="Modo ultra silencioso" parameterValue="0"/>
            <parameter index="29" name="Ativar estante inferior" parameterValue="1"/>
            <parameter index="30" name="Ativar estante superior" parameterValue="1"/>
            <parameter index="31" name="Taxa de amostragem original" parameterValue="0.22968749701976776123046875"/>
            <parameter index="32" name="Largura de banda de banda de EQ 1" parameterValue="0.002499990165233612060546875"/>
            <parameter index="33" name="Largura de banda de EQ 2" parameterValue="0.0099999904632568359375"/>
            <parameter index="34" name="Largura de banda de EQ 3" parameterValue="0.0399999916553497314453125"/>
            <parameter index="35" name="Largura de banda de EQ 4" parameterValue="0.15999998152256011962890625"/>
            <parameter index="36" name="Largura de banda de EQ 5" parameterValue="0.63999998569488525390625"/>
            <parameter index="37" name="Ativar filtro de alta frequência" parameterValue="0"/>
            <parameter index="38" name="Frequência de corte de alta frequência" parameterValue="0"/>
            <parameter index="39" name="Inclinação de alta frequência" parameterValue="0.4000000059604644775390625"/>
            <parameter index="40" name="Ativar filtro de passagem de baixa aprovação" parameterValue="0"/>
            <parameter index="41" name="Frequência de corte de passe para baixo" parameterValue="0.906945049762725830078125"/>
            <parameter index="42" name="Inclinação de passe para baixo" parameterValue="0.4000000059604644775390625"/>
            <parameter index="43" name="Desvio" parameterValue="0"/>
            <parameter index="44" name="Faixa de gráfico baixa" parameterValue="1"/>
          </component>
        </trackAudioParameters>
        <editParameter parameterIndex="0" slotIndex="4294967280"/>
        <audioClip clipAutoCrossfade="true" crossFadeHeadClipID="-1" crossFadeTailClipID="-1" endPoint="131241" fileID="3" hue="-1" id="0" lockedInTime="false" looped="false" name="Radio turning on sound effect 44100 1" offline="false" select="false" sourceInPoint="0" sourceOutPoint="131241" startPoint="0" zOrder="0">
          <properties properties="{&quot;BasicAdjustmentsProperty&quot;:{&quot;type&quot;:&quot;tree::any&quot;,&quot;value&quot;:{&quot;AdjustmentMode&quot;:{&quot;type&quot;:&quot;UTF8String&quot;,&quot;value&quot;:&quot;ambience&quot;},&quot;ClipType&quot;:{&quot;type&quot;:&quot;std::int32_t&quot;,&quot;value&quot;:5},&quot;PresetGuid&quot;:{&quot;type&quot;:&quot;UTF8String&quot;,&quot;value&quot;:&quot;b3526c89-21a6-48b6-bb5e-7f323a45a206&quot;},&quot;SoundEffectsSection&quot;:{&quot;type&quot;:&quot;tree::any&quot;,&quot;value&quot;:{&quot;Enabled&quot;:{&quot;type&quot;:&quot;bool&quot;,&quot;value&quot;:true},&quot;Reverb&quot;:{&quot;type&quot;:&quot;tree::any&quot;,&quot;value&quot;:{&quot;3&quot;:{&quot;type&quot;:&quot;tree::any&quot;,&quot;value&quot;:{&quot;Value&quot;:{&quot;type&quot;:&quot;float&quot;,&quot;value&quot;:1}}}}}}},&quot;StereoWidthSection&quot;:{&quot;type&quot;:&quot;tree::any&quot;,&quot;value&quot;:{&quot;Enabled&quot;:{&quot;type&quot;:&quot;bool&quot;,&quot;value&quot;:true}}},&quot;VolumeSection&quot;:{&quot;type&quot;:&quot;tree::any&quot;,&quot;value&quot;:{&quot;Enabled&quot;:{&quot;type&quot;:&quot;bool&quot;,&quot;value&quot;:true},&quot;Gain&quot;:{&quot;type&quot;:&quot;tree::any&quot;,&quot;value&quot;:{&quot;2&quot;:{&quot;type&quot;:&quot;tree::any&quot;,&quot;value&quot;:{&quot;Value&quot;:{&quot;type&quot;:&quot;float&quot;,&quot;value&quot;:-5}}},&quot;Enabled&quot;:{&quot;type&quot;:&quot;bool&quot;,&quot;value&quot;:true},&quot;UUID&quot;:{&quot;type&quot;:&quot;UTF8String&quot;,&quot;value&quot;:&quot;c89c48ba-4a16-4274-9620-42fdf7f273fb&quot;}}}}}}}}"/>
          <effectsRack preFader="true">
            <component componentGuid="d5a05392-8760-49e2-8c88-4058f36edb94" componentID="Audition.ComponentGroup" id="rackMix" powered="true">
              <parameter index="0" parameterValue="0"/>
              <parameter index="1" parameterValue="0"/>
            </component>
            <component componentGuid="33d686bd-45be-4d1e-a686-95cb60f20f67" id="rackInput" powered="true">
              <parameter index="0" parameterValue="1"/>
              <parameter index="1" parameterValue="0"/>
            </component>
            <component componentGuid="801e1458-ed2c-43de-978c-90e11fc46ea0" id="rackOutput" powered="true">
              <parameter index="0" parameterValue="1"/>
              <parameter index="1" parameterValue="0"/>
            </component>
            <slot powered="true" slotIndex="0">
              <component componentGuid="c89c48ba-4a16-4274-9620-42fdf7f273fb" componentID="e0b23f05-f1a7-4ef7-9b50-7ec3e3002058" name="Limitador pesado" presetName="(Padrão)">
                <busConfig><![CDATA[{"in":[{"layout":[100,101],"name":"","type":0}],"out":[{"layout":[100,101],"name":"","type":0}]}]]></busConfig>
                <parameter index="0" name="Amplitude máxima" parameterValue="0.99800002574920654296875"/>
                <parameter index="1" name="Aumento de entrada" parameterValue="0.63333332538604736328125"/>
                <parameter index="2" name="Período look-ahead" parameterValue="0.13333301246166229248046875"/>
                <parameter index="3" name="Tempo de liberação" parameterValue="0.375"/>
                <parameter index="4" name="Vincular canais" parameterValue="1"/>
                <parameter index="5" name="Diminuir para o limite superior" parameterValue="1"/>
                <parameter index="6" name="Limitar pico verdadeiro" parameterValue="1"/>
              </component>
            </slot>
          </effectsRack>
          <component componentGuid="e7e5dedb-490d-4ddb-bad7-0dece2204899" componentID="Audition.Fader" id="clipGain" name="volume" powered="true">
            <parameter index="0" name="volume" parameterValue="1"/>
            <parameter index="1" name="static gain" parameterValue="1"/>
          </component>
          <component componentGuid="bc5e6ac1-8b04-4a9b-b969-677d2e92012d" componentID="Audition.Mute" id="clipMute" name="Mute" powered="true">
            <parameter index="0" parameterValue="0"/>
            <parameter index="1" name="mute" parameterValue="0"/>
          </component>
          <component componentGuid="ef579181-7bf6-4b06-b4de-2960c1fe21ef" componentID="Audition.StereoPanner" id="clipPan" name="StereoPanner" powered="true">
            <parameter index="0" name="Deslocar" parameterValue="0"/>
          </component>
          <fadeIn crossFadeLinkType="linkedAsymmetric" endPoint="0" shape="19" startPoint="0" type="log"/>
          <fadeOut crossFadeLinkType="linkedAsymmetric" endPoint="131241" shape="19" startPoint="131241" type="log"/>
          <editParameter parameterIndex="0" slotIndex="4294967280"/>
          <editParameter parameterIndex="0" slotIndex="4294967281"/>
          <channelMap>
            <channel index="0" sourceIndex="0"/>
            <channel index="1" sourceIndex="1"/>
          </channelMap>
        </audioClip>
        <audioClip clipAutoCrossfade="true" crossFadeHeadClipID="-1" crossFadeTailClipID="-1" endPoint="492230" fileID="4" hue="-1" id="1" lockedInTime="false" looped="false" name="soco 44100 1" offline="false" select="false" sourceInPoint="0" sourceOutPoint="94438" startPoint="397792" zOrder="8">
          <component componentGuid="6f5807d1-a4a3-4b60-9525-4d6438048455" componentID="Audition.Fader" id="clipGain" name="volume" powered="true">
            <parameter index="0" name="volume" parameterValue="1"/>
            <parameter index="1" name="static gain" parameterValue="1"/>
          </component>
          <component componentGuid="f623518f-6a7e-46b9-80f9-c4fbb3464fcb" componentID="Audition.Mute" id="clipMute" name="Mute" powered="true">
            <parameter index="0" parameterValue="0"/>
            <parameter index="1" name="mute" parameterValue="0"/>
          </component>
          <component componentGuid="d511d231-d696-4b02-8af4-d8fb1635fcfb" componentID="Audition.StereoPanner" id="clipPan" name="StereoPanner" powered="true">
            <parameter index="0" name="Deslocar" parameterValue="0"/>
          </component>
          <fadeIn crossFadeLinkType="linkedAsymmetric" endPoint="0" shape="19" startPoint="0" type="log"/>
          <fadeOut crossFadeLinkType="linkedAsymmetric" endPoint="94438" shape="19" startPoint="94438" type="log"/>
          <editParameter parameterIndex="0" slotIndex="4294967280"/>
          <editParameter parameterIndex="0" slotIndex="4294967281"/>
          <channelMap>
            <channel index="0" sourceIndex="0"/>
            <channel index="1" sourceIndex="1"/>
          </channelMap>
        </audioClip>
        <audioClip clipAutoCrossfade="true" crossFadeHeadClipID="-1" crossFadeTailClipID="-1" endPoint="3746401" fileID="5" hue="-1" id="2" lockedInTime="false" looped="false" name="heartbeat sound effect" offline="true" select="false" sourceInPoint="0" sourceOutPoint="1485217" startPoint="2261184" zOrder="35">
          <component componentGuid="482bcaa4-1164-47bd-a42a-4a199c32b594" componentID="Audition.Fader" id="clipGain" name="volume" powered="true">
            <parameter index="0" name="volume" parameterValue="1"/>
            <parameter index="1" name="static gain" parameterValue="1"/>
          </component>
          <component componentGuid="3f473cd6-a670-447e-a704-f94ee817c7dd" componentID="Audition.Mute" id="clipMute" name="Mute" powered="true">
            <parameter index="0" parameterValue="0"/>
            <parameter index="1" name="mute" parameterValue="0"/>
          </component>
          <component componentGuid="8f22c4a7-2ab6-4383-84c3-f460bb9f3bd5" componentID="Audition.StereoPanner" id="clipPan" name="StereoPanner" powered="true">
            <parameter index="0" name="Deslocar" parameterValue="0"/>
          </component>
          <fadeIn crossFadeLinkType="linkedAsymmetric" endPoint="0" shape="19" startPoint="0" type="log"/>
          <fadeOut crossFadeLinkType="linkedAsymmetric" endPoint="1485217" shape="19" startPoint="1353669" type="log"/>
          <editParameter parameterIndex="0" slotIndex="4294967280"/>
          <editParameter parameterIndex="0" slotIndex="4294967281"/>
          <channelMap>
            <channel index="0" sourceIndex="0"/>
            <channel index="1" sourceIndex="1"/>
          </channelMap>
        </audioClip>
        <audioClip clipAutoCrossfade="true" crossFadeHeadClipID="-1" crossFadeTailClipID="-1" endPoint="6381155" fileID="1" hue="-1" id="3" lockedInTime="false" looped="false" name="Ato1Perg3Esc2E 44100 1" offline="false" select="false" sourceInPoint="2154116" sourceOutPoint="4621907" startPoint="3913364" zOrder="32">
          <component componentGuid="a72ca310-efb0-48d2-a2f5-565b3a0d3046" componentID="Audition.Fader" id="clipGain" name="volume" powered="true">
            <parameter index="0" name="volume" parameterValue="1"/>
            <parameter index="1" name="static gain" parameterValue="1"/>
          </component>
          <component componentGuid="83c3fab5-017a-41fc-a6c6-b5214464270a" componentID="Audition.Mute" id="clipMute" name="Mute" powered="true">
            <parameter index="0" parameterValue="0"/>
            <parameter index="1" name="mute" parameterValue="0"/>
          </component>
          <component componentGuid="e860621d-de94-45f6-a390-ec431b2d12a3" componentID="Audition.StereoPanner" id="clipPan" name="StereoPanner" powered="true">
            <parameter index="0" name="Deslocar" parameterValue="0"/>
          </component>
          <fadeIn crossFadeLinkType="linkedAsymmetric" endPoint="0" shape="19" startPoint="0" type="log"/>
          <fadeOut crossFadeLinkType="linkedAsymmetric" endPoint="2467791" shape="19" startPoint="2467791" type="log"/>
          <editParameter parameterIndex="0" slotIndex="4294967280"/>
          <editParameter parameterIndex="0" slotIndex="4294967281"/>
          <channelMap>
            <channel index="0" sourceIndex="0"/>
            <channel index="1" sourceIndex="1"/>
          </channelMap>
        </audioClip>
        <audioClip clipAutoCrossfade="true" crossFadeHeadClipID="-1" crossFadeTailClipID="-1" endPoint="6968988" fileID="6" hue="-1" id="4" lockedInTime="false" looped="false" name="atsound-effect 44100 1" offline="false" select="false" sourceInPoint="0" sourceOutPoint="249782" startPoint="6719206" zOrder="36">
          <component componentGuid="544df106-2b8b-47d5-b422-e63166517763" componentID="Audition.Fader" id="clipGain" name="volume" powered="true">
            <parameter index="0" name="volume" parameterValue="1"/>
            <parameter index="1" name="static gain" parameterValue="1"/>
          </component>
          <component componentGuid="2018b919-f63d-4477-9af8-2d386434a435" componentID="Audition.Mute" id="clipMute" name="Mute" powered="true">
            <parameter index="0" parameterValue="0"/>
            <parameter index="1" name="mute" parameterValue="0"/>
          </component>
          <component componentGuid="161645df-f2b8-4b52-8c63-090a960fcfcb" componentID="Audition.StereoPanner" id="clipPan" name="StereoPanner" powered="true">
            <parameter index="0" name="Deslocar" parameterValue="0"/>
          </component>
          <fadeIn crossFadeLinkType="linkedAsymmetric" endPoint="0" shape="19" startPoint="0" type="log"/>
          <fadeOut crossFadeLinkType="linkedAsymmetric" endPoint="249782" shape="19" startPoint="249782" type="log"/>
          <editParameter parameterIndex="0" slotIndex="4294967281"/>
          <editParameter parameterIndex="0" slotIndex="4294967280"/>
          <channelMap>
            <channel index="0" sourceIndex="0"/>
            <channel index="1" sourceIndex="1"/>
          </channelMap>
        </audioClip>
        <audioClip clipAutoCrossfade="true" crossFadeHeadClipID="-1" crossFadeTailClipID="6" endPoint="7282400" fileID="2" hue="-1" id="5" lockedInTime="false" looped="false" name="Radio turning on sound effect 44100 2" offline="false" select="false" sourceInPoint="0" sourceOutPoint="131241" startPoint="7151159" zOrder="33">
          <properties properties="{&quot;BasicAdjustmentsProperty&quot;:{&quot;type&quot;:&quot;tree::any&quot;,&quot;value&quot;:{&quot;AdjustmentMode&quot;:{&quot;type&quot;:&quot;UTF8String&quot;,&quot;value&quot;:&quot;ambience&quot;},&quot;ClipType&quot;:{&quot;type&quot;:&quot;std::int32_t&quot;,&quot;value&quot;:5},&quot;PresetGuid&quot;:{&quot;type&quot;:&quot;UTF8String&quot;,&quot;value&quot;:&quot;b3526c89-21a6-48b6-bb5e-7f323a45a206&quot;},&quot;SoundEffectsSection&quot;:{&quot;type&quot;:&quot;tree::any&quot;,&quot;value&quot;:{&quot;Enabled&quot;:{&quot;type&quot;:&quot;bool&quot;,&quot;value&quot;:true},&quot;Reverb&quot;:{&quot;type&quot;:&quot;tree::any&quot;,&quot;value&quot;:{&quot;3&quot;:{&quot;type&quot;:&quot;tree::any&quot;,&quot;value&quot;:{&quot;Value&quot;:{&quot;type&quot;:&quot;float&quot;,&quot;value&quot;:1}}}}}}},&quot;StereoWidthSection&quot;:{&quot;type&quot;:&quot;tree::any&quot;,&quot;value&quot;:{&quot;Enabled&quot;:{&quot;type&quot;:&quot;bool&quot;,&quot;value&quot;:true}}},&quot;VolumeSection&quot;:{&quot;type&quot;:&quot;tree::any&quot;,&quot;value&quot;:{&quot;Enabled&quot;:{&quot;type&quot;:&quot;bool&quot;,&quot;value&quot;:true},&quot;Gain&quot;:{&quot;type&quot;:&quot;tree::any&quot;,&quot;value&quot;:{&quot;2&quot;:{&quot;type&quot;:&quot;tree::any&quot;,&quot;value&quot;:{&quot;Value&quot;:{&quot;type&quot;:&quot;float&quot;,&quot;value&quot;:-5}}},&quot;Enabled&quot;:{&quot;type&quot;:&quot;bool&quot;,&quot;value&quot;:true},&quot;UUID&quot;:{&quot;type&quot;:&quot;UTF8String&quot;,&quot;value&quot;:&quot;5bf3e5c3-5c34-41df-8254-c35a4ef5dfeb&quot;}}}}}}}}"/>
          <effectsRack preFader="true">
            <component componentGuid="503b5420-c705-4311-95a9-c2c885acff3a" componentID="Audition.ComponentGroup" id="rackMix" powered="true">
              <parameter index="0" parameterValue="0"/>
              <parameter index="1" parameterValue="0"/>
            </component>
            <component componentGuid="a90e9916-b8f0-407d-8769-d6d97ad51a13" id="rackInput" powered="true">
              <parameter index="0" parameterValue="1"/>
              <parameter index="1" parameterValue="0"/>
            </component>
            <component componentGuid="7b5dad76-a988-4022-a1b0-2993275ce968" id="rackOutput" powered="true">
              <parameter index="0" parameterValue="1"/>
              <parameter index="1" parameterValue="0"/>
            </component>
            <slot powered="true" slotIndex="0">
              <component componentGuid="5bf3e5c3-5c34-41df-8254-c35a4ef5dfeb" componentID="e0b23f05-f1a7-4ef7-9b50-7ec3e3002058" name="Limitador pesado" presetName="(Padrão)">
                <busConfig><![CDATA[{"in":[{"layout":[100,101],"name":"","type":0}],"out":[{"layout":[100,101],"name":"","type":0}]}]]></busConfig>
                <parameter index="0" name="Amplitude máxima" parameterValue="0.99800002574920654296875"/>
                <parameter index="1" name="Aumento de entrada" parameterValue="0.63333332538604736328125"/>
                <parameter index="2" name="Período look-ahead" parameterValue="0.13333301246166229248046875"/>
                <parameter index="3" name="Tempo de liberação" parameterValue="0.375"/>
                <parameter index="4" name="Vincular canais" parameterValue="1"/>
                <parameter index="5" name="Diminuir para o limite superior" parameterValue="1"/>
                <parameter index="6" name="Limitar pico verdadeiro" parameterValue="1"/>
              </component>
            </slot>
          </effectsRack>
          <component componentGuid="f09c7c0e-73a1-4fbe-8ecb-08d683ab6039" componentID="Audition.Fader" id="clipGain" name="volume" powered="true">
            <parameter index="0" name="volume" parameterValue="1"/>
            <parameter index="1" name="static gain" parameterValue="1"/>
          </component>
          <component componentGuid="a08c6f9e-bf8c-4e15-9229-6d9493c11d02" componentID="Audition.Mute" id="clipMute" name="Mute" powered="true">
            <parameter index="0" parameterValue="0"/>
            <parameter index="1" name="mute" parameterValue="0"/>
          </component>
          <component componentGuid="85b1c1ed-496f-4b15-8a56-031a9dde6b9f" componentID="Audition.StereoPanner" id="clipPan" name="StereoPanner" powered="true">
            <parameter index="0" name="Deslocar" parameterValue="0"/>
          </component>
          <fadeIn crossFadeLinkType="linkedAsymmetric" endPoint="0" shape="19" startPoint="0" type="log"/>
          <fadeOut crossFadeLinkType="linkedAsymmetric" endPoint="131241" shape="19" startPoint="85881" type="log"/>
          <editParameter parameterIndex="0" slotIndex="4294967280"/>
          <editParameter parameterIndex="0" slotIndex="4294967281"/>
          <channelMap>
            <channel index="0" sourceIndex="0"/>
            <channel index="1" sourceIndex="1"/>
          </channelMap>
        </audioClip>
        <audioClip clipAutoCrossfade="true" crossFadeHeadClipID="5" crossFadeTailClipID="-1" endPoint="7619990" fileID="1" hue="-1" id="6" lockedInTime="false" looped="false" name="Ato1Perg3Esc2E 44100 1" offline="false" select="false" sourceInPoint="5544339" sourceOutPoint="5927289" startPoint="7237040" zOrder="34">
          <component componentGuid="4e96c013-dbd5-44f6-a065-d15e9423cfd4" componentID="Audition.Fader" id="clipGain" name="volume" powered="true">
            <parameter index="0" name="volume" parameterValue="1"/>
            <parameter index="1" name="static gain" parameterValue="1"/>
          </component>
          <component componentGuid="8f24db80-db02-49d6-ada9-c5a1cd6c4354" componentID="Audition.Mute" id="clipMute" name="Mute" powered="true">
            <parameter index="0" parameterValue="0"/>
            <parameter index="1" name="mute" parameterValue="0"/>
          </component>
          <component componentGuid="0952369b-47f3-4435-aa8e-0a489637551d" componentID="Audition.StereoPanner" id="clipPan" name="StereoPanner" powered="true">
            <parameter index="0" name="Deslocar" parameterValue="0"/>
          </component>
          <fadeIn crossFadeLinkType="linkedAsymmetric" endPoint="45360" shape="18" startPoint="0" type="log"/>
          <fadeOut crossFadeLinkType="linkedAsymmetric" endPoint="382950" shape="19" startPoint="382950" type="log"/>
          <editParameter parameterIndex="0" slotIndex="4294967281"/>
          <editParameter parameterIndex="0" slotIndex="4294967280"/>
          <channelMap>
            <channel index="0" sourceIndex="0"/>
            <channel index="1" sourceIndex="1"/>
          </channelMap>
        </audioClip>
      </audioTrack>
      <audioTrack automationLaneOpenState="false" id="10003" index="3" select="false" visible="true">
        <trackParameters trackHeight="30" trackHue="51" trackMinimized="false">
          <name>Faixa 3</name>
        </trackParameters>
        <trackAudioParameters audioChannelType="stereo" automationMode="1" monitoring="false" recordArmed="false" solo="false" soloSafe="false">
          <trackOutput outputID="10000" type="trackID"/>
          <trackInput inputID="1"/>
          <component componentGuid="3d255e35-985d-44d9-9133-b9226c70320f" componentID="Audition.Fader" id="trackFader" name="volume" powered="true">
            <parameter index="0" name="volume" parameterValue="1"/>
            <parameter index="1" name="static gain" parameterValue="1"/>
          </component>
          <component componentGuid="7a68feda-bda6-4f0b-8b88-3c78c208b65a" componentID="Audition.Mute" id="trackMute" name="Mute" powered="true">
            <parameter index="0" parameterValue="0"/>
            <parameter index="1" name="mute" parameterValue="0"/>
          </component>
          <component componentGuid="336bd5fa-5b8b-4a75-9fc5-c6b7defe37b7" componentID="Audition.StereoTo51Panner" id="trackPan" name="StereoTo51Panner" powered="true">
            <parameter index="0" name="Panorâmica: Ângulo" parameterValue="1.5707962512969970703125"/>
            <parameter index="1" name="Panorâmica: Raio" parameterValue="1"/>
            <parameter index="2" name="Panorâmica: Centro" parameterValue="1"/>
            <parameter index="3" name="Panorâmica: LFE" parameterValue="0"/>
            <parameter index="4" name="Panorâmica: difusão estéreo" parameterValue="0.523599147796630859375"/>
            <parameter index="5" name="leftEnable" parameterValue="1"/>
            <parameter index="6" name="rightEnable" parameterValue="1"/>
            <parameter index="7" name="centerEnable" parameterValue="1"/>
            <parameter index="8" name="lfeEnable" parameterValue="1"/>
            <parameter index="9" name="leftSurroundEnable" parameterValue="1"/>
            <parameter index="10" name="rightSurroundEnable" parameterValue="1"/>
            <parameter index="11" name="leftSolo" parameterValue="0"/>
            <parameter index="12" name="rightSolo" parameterValue="0"/>
            <parameter index="13" name="centerSolo" parameterValue="0"/>
            <parameter index="14" name="lfeSolo" parameterValue="0"/>
            <parameter index="15" name="leftSurroundSolo" parameterValue="0"/>
            <parameter index="16" name="rightSurroundSolo" parameterValue="0"/>
          </component>
          <component componentGuid="6ac06f4d-73b8-4f2c-8870-75cac899cb5d" componentID="Audition.EQ" id="trackEQ" name="EQ" powered="false">
            <parameter index="0" name="Frequência de estante inferior" parameterValue="0.0009078529546968638896942138671875"/>
            <parameter index="1" name="Ganho de estante inferior" parameterValue="0.5"/>
            <parameter index="2" name="Frequência de prateleira superior" parameterValue="0.816159784793853759765625"/>
            <parameter index="3" name="Ganho de estante superior" parameterValue="0.5"/>
            <parameter index="4" name="Frequência central de banda de EQ 1" parameterValue="0.0013617794029414653778076171875"/>
            <parameter index="5" name="Banda de EQ 1 Q" parameterValue="0.000199989997781813144683837890625"/>
            <parameter index="6" name="Ganho de banda de EQ 1" parameterValue="0.5"/>
            <parameter index="7" name="Ativar Banda de EQ 1" parameterValue="1"/>
            <parameter index="8" name="Frequências centrais de banda de EQ 2" parameterValue="0.008170676417648792266845703125"/>
            <parameter index="9" name="Banda de EQ 2 Q" parameterValue="0.000199989997781813144683837890625"/>
            <parameter index="10" name="Ganho de banda de EQ 2" parameterValue="0.5"/>
            <parameter index="11" name="Ativar banda de EQ 2" parameterValue="1"/>
            <parameter index="12" name="Frequências centrais de banda de EQ 3" parameterValue="0.0354062654078006744384765625"/>
            <parameter index="13" name="Banda de EQ 3 Q" parameterValue="0.000199989997781813144683837890625"/>
            <parameter index="14" name="Ganho de banda de EQ 3" parameterValue="0.5"/>
            <parameter index="15" name="Ativar banda de EQ 3" parameterValue="1"/>
            <parameter index="16" name="Frequência central de banda de EQ 4" parameterValue="0.144348621368408203125"/>
            <parameter index="17" name="Banda de EQ 4 Q" parameterValue="0.000199989997781813144683837890625"/>
            <parameter index="18" name="Ganho de banda de EQ 4" parameterValue="0.5"/>
            <parameter index="19" name="Ativar banda de EQ 4" parameterValue="1"/>
            <parameter index="20" name="Frequências centrais de banda de EQ 5" parameterValue="0.580118000507354736328125"/>
            <parameter index="21" name="Banda de EQ 5 Q" parameterValue="0.000199989997781813144683837890625"/>
            <parameter index="22" name="Ganho de banda de EQ 5" parameterValue="0.5"/>
            <parameter index="23" name="Ativar banda de EQ 5" parameterValue="1"/>
            <parameter index="24" name="Ganho" parameterValue="0.666666686534881591796875"/>
            <parameter index="25" name="ConstantQ" parameterValue="1"/>
            <parameter index="26" name="Ordem de filtro de estante inferior" parameterValue="0"/>
            <parameter index="27" name="Ordem de filtro de estante superior" parameterValue="0"/>
            <parameter index="28" name="Modo ultra silencioso" parameterValue="0"/>
            <parameter index="29" name="Ativar estante inferior" parameterValue="1"/>
            <parameter index="30" name="Ativar estante superior" parameterValue="1"/>
            <parameter index="31" name="Taxa de amostragem original" parameterValue="0.22968749701976776123046875"/>
            <parameter index="32" name="Largura de banda de banda de EQ 1" parameterValue="0.002499990165233612060546875"/>
            <parameter index="33" name="Largura de banda de EQ 2" parameterValue="0.0099999904632568359375"/>
            <parameter index="34" name="Largura de banda de EQ 3" parameterValue="0.0399999916553497314453125"/>
            <parameter index="35" name="Largura de banda de EQ 4" parameterValue="0.15999998152256011962890625"/>
            <parameter index="36" name="Largura de banda de EQ 5" parameterValue="0.63999998569488525390625"/>
            <parameter index="37" name="Ativar filtro de alta frequência" parameterValue="0"/>
            <parameter index="38" name="Frequência de corte de alta frequência" parameterValue="0"/>
            <parameter index="39" name="Inclinação de alta frequência" parameterValue="0.4000000059604644775390625"/>
            <parameter index="40" name="Ativar filtro de passagem de baixa aprovação" parameterValue="0"/>
            <parameter index="41" name="Frequência de corte de passe para baixo" parameterValue="0.906945049762725830078125"/>
            <parameter index="42" name="Inclinação de passe para baixo" parameterValue="0.4000000059604644775390625"/>
            <parameter index="43" name="Desvio" parameterValue="0"/>
            <parameter index="44" name="Faixa de gráfico baixa" parameterValue="1"/>
          </component>
        </trackAudioParameters>
        <editParameter parameterIndex="0" slotIndex="4294967280"/>
        <audioClip clipAutoCrossfade="true" crossFadeHeadClipID="-1" crossFadeTailClipID="-1" endPoint="1860877" fileID="7" hue="-1" id="0" lockedInTime="false" looped="false" name="Radio Static - Sound Effect (1)" offline="false" select="false" sourceInPoint="0" sourceOutPoint="1756304" startPoint="104573" zOrder="0">
          <properties properties="{&quot;BasicAdjustmentsProperty&quot;:{&quot;type&quot;:&quot;tree::any&quot;,&quot;value&quot;:{&quot;AdjustmentMode&quot;:{&quot;type&quot;:&quot;UTF8String&quot;,&quot;value&quot;:&quot;ambience&quot;},&quot;ClipType&quot;:{&quot;type&quot;:&quot;std::int32_t&quot;,&quot;value&quot;:5},&quot;PresetGuid&quot;:{&quot;type&quot;:&quot;UTF8String&quot;,&quot;value&quot;:&quot;b3526c89-21a6-48b6-bb5e-7f323a45a206&quot;},&quot;SoundEffectsSection&quot;:{&quot;type&quot;:&quot;tree::any&quot;,&quot;value&quot;:{&quot;Enabled&quot;:{&quot;type&quot;:&quot;bool&quot;,&quot;value&quot;:true},&quot;Reverb&quot;:{&quot;type&quot;:&quot;tree::any&quot;,&quot;value&quot;:{&quot;3&quot;:{&quot;type&quot;:&quot;tree::any&quot;,&quot;value&quot;:{&quot;Value&quot;:{&quot;type&quot;:&quot;float&quot;,&quot;value&quot;:1}}}}}}},&quot;StereoWidthSection&quot;:{&quot;type&quot;:&quot;tree::any&quot;,&quot;value&quot;:{&quot;Enabled&quot;:{&quot;type&quot;:&quot;bool&quot;,&quot;value&quot;:true}}},&quot;VolumeSection&quot;:{&quot;type&quot;:&quot;tree::any&quot;,&quot;value&quot;:{&quot;Enabled&quot;:{&quot;type&quot;:&quot;bool&quot;,&quot;value&quot;:true},&quot;Gain&quot;:{&quot;type&quot;:&quot;tree::any&quot;,&quot;value&quot;:{&quot;2&quot;:{&quot;type&quot;:&quot;tree::any&quot;,&quot;value&quot;:{&quot;Value&quot;:{&quot;type&quot;:&quot;float&quot;,&quot;value&quot;:-5}}},&quot;Enabled&quot;:{&quot;type&quot;:&quot;bool&quot;,&quot;value&quot;:true},&quot;UUID&quot;:{&quot;type&quot;:&quot;UTF8String&quot;,&quot;value&quot;:&quot;c54b1763-2f78-41ed-b2b7-d67b93a64b55&quot;}}}}}}}}"/>
          <effectsRack preFader="true">
            <component componentGuid="493746f5-252a-4f57-8f8a-40ca35837100" componentID="Audition.ComponentGroup" id="rackMix" powered="true">
              <parameter index="0" parameterValue="0"/>
              <parameter index="1" parameterValue="0"/>
            </component>
            <component componentGuid="59396f3d-4d06-4457-b3df-55980e4cf119" id="rackInput" powered="true">
              <parameter index="0" parameterValue="1"/>
              <parameter index="1" parameterValue="0"/>
            </component>
            <component componentGuid="1dc8f540-37d0-4492-be50-bafc2ee9a112" id="rackOutput" powered="true">
              <parameter index="0" parameterValue="1"/>
              <parameter index="1" parameterValue="0"/>
            </component>
            <slot powered="true" slotIndex="0">
              <component componentGuid="c54b1763-2f78-41ed-b2b7-d67b93a64b55" componentID="e0b23f05-f1a7-4ef7-9b50-7ec3e3002058" name="Limitador pesado" presetName="(Padrão)">
                <busConfig><![CDATA[{"in":[{"layout":[100,101],"name":"","type":0}],"out":[{"layout":[100,101],"name":"","type":0}]}]]></busConfig>
                <parameter index="0" name="Amplitude máxima" parameterValue="0.99800002574920654296875"/>
                <parameter index="1" name="Aumento de entrada" parameterValue="0.63333332538604736328125"/>
                <parameter index="2" name="Período look-ahead" parameterValue="0.13333301246166229248046875"/>
                <parameter index="3" name="Tempo de liberação" parameterValue="0.375"/>
                <parameter index="4" name="Vincular canais" parameterValue="1"/>
                <parameter index="5" name="Diminuir para o limite superior" parameterValue="1"/>
                <parameter index="6" name="Limitar pico verdadeiro" parameterValue="1"/>
              </component>
            </slot>
          </effectsRack>
          <component componentGuid="065e8544-49b5-4e4b-9b22-bb0f8f1ae9fe" componentID="Audition.Fader" id="clipGain" name="volume" powered="true">
            <parameter index="0" name="volume" parameterValue="1"/>
            <parameter index="1" name="static gain" parameterValue="1"/>
          </component>
          <component componentGuid="e65b1c88-dd2c-49ae-a29c-7ef43aa594f1" componentID="Audition.Mute" id="clipMute" name="Mute" powered="true">
            <parameter index="0" parameterValue="0"/>
            <parameter index="1" name="mute" parameterValue="0"/>
          </component>
          <component componentGuid="38bd5610-eee1-46c2-aa96-28987708e66a" componentID="Audition.StereoPanner" id="clipPan" name="StereoPanner" powered="true">
            <parameter index="0" name="Deslocar" parameterValue="0"/>
          </component>
          <fadeIn crossFadeLinkType="linkedAsymmetric" endPoint="0" shape="19" startPoint="0" type="log"/>
          <fadeOut crossFadeLinkType="linkedAsymmetric" endPoint="1756304" shape="19" startPoint="1756304" type="log"/>
          <editParameter parameterIndex="0" slotIndex="4294967280"/>
          <editParameter parameterIndex="0" slotIndex="4294967281"/>
          <channelMap>
            <channel index="0" sourceIndex="0"/>
            <channel index="1" sourceIndex="1"/>
          </channelMap>
        </audioClip>
        <audioClip clipAutoCrossfade="true" crossFadeHeadClipID="-1" crossFadeTailClipID="2" endPoint="2116872" fileID="8" hue="-1" id="1" lockedInTime="false" looped="false" name="Footsteps - Sound Effect" offline="false" select="false" sourceInPoint="0" sourceOutPoint="180810" startPoint="1936062" zOrder="31">
          <component componentGuid="1f645f48-1422-4510-8d29-08c6f76df56d" componentID="Audition.Fader" id="clipGain" name="volume" powered="true">
            <parameter index="0" name="volume" parameterValue="1"/>
            <parameter index="1" name="static gain" parameterValue="1"/>
          </component>
          <component componentGuid="3cfb5700-1f2c-4f24-9a12-8f2d0ab62404" componentID="Audition.Mute" id="clipMute" name="Mute" powered="true">
            <parameter index="0" parameterValue="0"/>
            <parameter index="1" name="mute" parameterValue="0"/>
          </component>
          <component componentGuid="cad9b38d-08ec-4539-b298-bc79db5bf8b3" componentID="Audition.StereoPanner" id="clipPan" name="StereoPanner" powered="true">
            <parameter index="0" name="Deslocar" parameterValue="0"/>
          </component>
          <fadeIn crossFadeLinkType="linkedAsymmetric" endPoint="0" shape="19" startPoint="0" type="log"/>
          <fadeOut crossFadeLinkType="linkedAsymmetric" endPoint="180810" shape="18" startPoint="144312" type="log"/>
          <editParameter parameterIndex="0" slotIndex="4294967280"/>
          <editParameter parameterIndex="0" slotIndex="4294967281"/>
          <channelMap>
            <channel index="0" sourceIndex="0"/>
            <channel index="1" sourceIndex="1"/>
          </channelMap>
        </audioClip>
        <audioClip clipAutoCrossfade="true" crossFadeHeadClipID="1" crossFadeTailClipID="3" endPoint="2261184" fileID="8" hue="-1" id="2" lockedInTime="false" looped="false" name="Footsteps - Sound Effect" offline="false" select="false" sourceInPoint="0" sourceOutPoint="180810" startPoint="2080374" zOrder="32">
          <component componentGuid="8ab74dcc-bcc2-4cc5-9264-1278ed81785c" componentID="Audition.Fader" id="clipGain" name="volume" powered="true">
            <parameter index="0" name="volume" parameterValue="1"/>
            <parameter index="1" name="static gain" parameterValue="1"/>
          </component>
          <component componentGuid="06adc2aa-248a-42e6-a709-74fb8a43ec50" componentID="Audition.Mute" id="clipMute" name="Mute" powered="true">
            <parameter index="0" parameterValue="0"/>
            <parameter index="1" name="mute" parameterValue="0"/>
          </component>
          <component componentGuid="0b4f6028-a99c-475d-91f9-7c8654cd6b5a" componentID="Audition.StereoPanner" id="clipPan" name="StereoPanner" powered="true">
            <parameter index="0" name="Deslocar" parameterValue="0"/>
          </component>
          <fadeIn crossFadeLinkType="linkedAsymmetric" endPoint="36498" shape="19" startPoint="0" type="log"/>
          <fadeOut crossFadeLinkType="linkedAsymmetric" endPoint="180810" shape="19" startPoint="142501" type="log"/>
          <editParameter parameterIndex="0" slotIndex="4294967280"/>
          <editParameter parameterIndex="0" slotIndex="4294967281"/>
          <channelMap>
            <channel index="0" sourceIndex="0"/>
            <channel index="1" sourceIndex="1"/>
          </channelMap>
        </audioClip>
        <audioClip clipAutoCrossfade="true" crossFadeHeadClipID="2" crossFadeTailClipID="4" endPoint="2403685" fileID="8" hue="-1" id="3" lockedInTime="false" looped="false" name="Footsteps - Sound Effect" offline="false" select="false" sourceInPoint="0" sourceOutPoint="180810" startPoint="2222875" zOrder="34">
          <component componentGuid="a4dc7e9d-ff9b-4740-926e-c0abb3633c44" componentID="Audition.Fader" id="clipGain" name="volume" powered="true">
            <parameter index="0" name="volume" parameterValue="1"/>
            <parameter index="1" name="static gain" parameterValue="1"/>
          </component>
          <component componentGuid="4e9efcc2-a849-446a-82be-dcd1fcda0e22" componentID="Audition.Mute" id="clipMute" name="Mute" powered="true">
            <parameter index="0" parameterValue="0"/>
            <parameter index="1" name="mute" parameterValue="0"/>
          </component>
          <component componentGuid="8972333b-44f1-40b8-8846-a190428e26fd" componentID="Audition.StereoPanner" id="clipPan" name="StereoPanner" powered="true">
            <parameter index="0" name="Deslocar" parameterValue="0"/>
          </component>
          <fadeIn crossFadeLinkType="linkedAsymmetric" endPoint="38309" shape="18" startPoint="0" type="log"/>
          <fadeOut crossFadeLinkType="linkedAsymmetric" endPoint="180810" shape="18" startPoint="124626" type="log"/>
          <editParameter parameterIndex="0" slotIndex="4294967280"/>
          <editParameter parameterIndex="0" slotIndex="4294967281"/>
          <channelMap>
            <channel index="0" sourceIndex="0"/>
            <channel index="1" sourceIndex="1"/>
          </channelMap>
        </audioClip>
        <audioClip clipAutoCrossfade="true" crossFadeHeadClipID="3" crossFadeTailClipID="-1" endPoint="2528311" fileID="8" hue="-1" id="4" lockedInTime="false" looped="false" name="Footsteps - Sound Effect" offline="false" select="false" sourceInPoint="0" sourceOutPoint="180810" startPoint="2347501" zOrder="33">
          <component componentGuid="d68fea0e-0397-466e-a837-1c8b0757f9b1" componentID="Audition.Fader" id="clipGain" name="volume" powered="true">
            <parameter index="0" name="volume" parameterValue="1"/>
            <parameter index="1" name="static gain" parameterValue="1"/>
          </component>
          <component componentGuid="742ade95-b076-4a60-a312-6fd7f54f6708" componentID="Audition.Mute" id="clipMute" name="Mute" powered="true">
            <parameter index="0" parameterValue="0"/>
            <parameter index="1" name="mute" parameterValue="0"/>
          </component>
          <component componentGuid="ab208c1f-c7eb-4a47-a087-979dcfead399" componentID="Audition.StereoPanner" id="clipPan" name="StereoPanner" powered="true">
            <parameter index="0" name="Deslocar" parameterValue="0"/>
          </component>
          <fadeIn crossFadeLinkType="linkedAsymmetric" endPoint="56184" shape="19" startPoint="0" type="log"/>
          <fadeOut crossFadeLinkType="linkedAsymmetric" endPoint="180810" shape="29" startPoint="140818" type="log"/>
          <editParameter parameterIndex="0" slotIndex="4294967280"/>
          <editParameter parameterIndex="0" slotIndex="4294967281"/>
          <channelMap>
            <channel index="0" sourceIndex="0"/>
            <channel index="1" sourceIndex="1"/>
          </channelMap>
        </audioClip>
        <audioClip clipAutoCrossfade="true" crossFadeHeadClipID="-1" crossFadeTailClipID="-1" endPoint="3194561" fileID="9" hue="-1" id="5" lockedInTime="false" looped="false" name="som-de-porta-abrindo 44100 1" offline="false" select="false" sourceInPoint="0" sourceOutPoint="438177" startPoint="2756384" zOrder="35">
          <component componentGuid="e6333e60-59de-4028-ac3b-b8679d12d4ed" componentID="Audition.Fader" id="clipGain" name="volume" powered="true">
            <parameter index="0" name="volume" parameterValue="1"/>
            <parameter index="1" name="static gain" parameterValue="1"/>
          </component>
          <component componentGuid="ab8bfbf4-85cb-43a6-8bad-a29c5dfede13" componentID="Audition.Mute" id="clipMute" name="Mute" powered="true">
            <parameter index="0" parameterValue="0"/>
            <parameter index="1" name="mute" parameterValue="0"/>
          </component>
          <component componentGuid="13bc5db1-96a8-466b-bcd4-fa1e3eb5f7fb" componentID="Audition.StereoPanner" id="clipPan" name="StereoPanner" powered="true">
            <parameter index="0" name="Deslocar" parameterValue="0"/>
          </component>
          <fadeIn crossFadeLinkType="linkedAsymmetric" endPoint="0" shape="19" startPoint="0" type="log"/>
          <fadeOut crossFadeLinkType="linkedAsymmetric" endPoint="438177" shape="0" startPoint="144991" type="log"/>
          <editParameter parameterIndex="0" slotIndex="4294967280"/>
          <editParameter parameterIndex="0" slotIndex="4294967281"/>
          <channelMap>
            <channel index="0" sourceIndex="0"/>
            <channel index="1" sourceIndex="1"/>
          </channelMap>
        </audioClip>
        <audioClip clipAutoCrossfade="true" crossFadeHeadClipID="-1" crossFadeTailClipID="-1" endPoint="3360495" fileID="10" hue="-1" id="6" lockedInTime="false" looped="false" name="door-broken-sound-effect 44100 1" offline="false" select="false" sourceInPoint="0" sourceOutPoint="109015" startPoint="3251480" zOrder="36">
          <component componentGuid="47b9a77f-3b63-49ac-9afa-9e89a7f134ae" componentID="Audition.Fader" id="clipGain" name="volume" powered="true">
            <parameter index="0" name="volume" parameterValue="1"/>
            <parameter index="1" name="static gain" parameterValue="1"/>
          </component>
          <component componentGuid="71bd1430-4dc6-405c-a0c0-e64c2019ee04" componentID="Audition.Mute" id="clipMute" name="Mute" powered="true">
            <parameter index="0" parameterValue="0"/>
            <parameter index="1" name="mute" parameterValue="0"/>
          </component>
          <component componentGuid="a2f96757-cf9b-4462-a739-434a05fa2870" componentID="Audition.StereoPanner" id="clipPan" name="StereoPanner" powered="true">
            <parameter index="0" name="Deslocar" parameterValue="0"/>
          </component>
          <fadeIn crossFadeLinkType="linkedAsymmetric" endPoint="0" shape="19" startPoint="0" type="log"/>
          <fadeOut crossFadeLinkType="linkedAsymmetric" endPoint="109015" shape="19" startPoint="109015" type="log"/>
          <editParameter parameterIndex="0" slotIndex="4294967281"/>
          <editParameter parameterIndex="0" slotIndex="4294967280"/>
          <channelMap>
            <channel index="0" sourceIndex="0"/>
            <channel index="1" sourceIndex="1"/>
          </channelMap>
        </audioClip>
        <audioClip clipAutoCrossfade="true" crossFadeHeadClipID="-1" crossFadeTailClipID="-1" endPoint="3448695" fileID="11" hue="-1" id="7" lockedInTime="false" looped="false" name="efeito-sonoro-grito-download-na-descricao 44100 1" offline="false" select="false" sourceInPoint="0" sourceOutPoint="44100" startPoint="3404595" zOrder="37">
          <component componentGuid="968cecae-9004-4fc6-9bc4-8b224d5bce08" componentID="Audition.Fader" id="clipGain" name="volume" powered="true">
            <parameter index="0" name="volume" parameterValue="1"/>
            <parameter index="1" name="static gain" parameterValue="1"/>
          </component>
          <component componentGuid="bdb62c84-7aaa-4d39-aa6f-da1e31bd439b" componentID="Audition.Mute" id="clipMute" name="Mute" powered="true">
            <parameter index="0" parameterValue="0"/>
            <parameter index="1" name="mute" parameterValue="0"/>
          </component>
          <component componentGuid="8186c08c-7218-49f9-acad-c5d1fd9d9542" componentID="Audition.StereoPanner" id="clipPan" name="StereoPanner" powered="true">
            <parameter index="0" name="Deslocar" parameterValue="0"/>
          </component>
          <fadeIn crossFadeLinkType="linkedAsymmetric" endPoint="0" shape="19" startPoint="0" type="log"/>
          <fadeOut crossFadeLinkType="linkedAsymmetric" endPoint="44100" shape="19" startPoint="44100" type="log"/>
          <editParameter parameterIndex="0" slotIndex="4294967281"/>
          <editParameter parameterIndex="0" slotIndex="4294967280"/>
          <channelMap>
            <channel index="0" sourceIndex="0"/>
            <channel index="1" sourceIndex="1"/>
          </channelMap>
        </audioClip>
        <audioClip clipAutoCrossfade="true" crossFadeHeadClipID="-1" crossFadeTailClipID="-1" endPoint="7612841" fileID="5" hue="-1" id="8" lockedInTime="false" looped="false" name="heartbeat sound effect" offline="true" select="false" sourceInPoint="0" sourceOutPoint="1114705" startPoint="6498136" zOrder="38">
          <component componentGuid="c06f9784-5cc3-41e1-b229-163afda33ab6" componentID="Audition.Fader" id="clipGain" name="volume" powered="true">
            <parameter index="0" name="volume" parameterValue="1"/>
            <parameter index="1" name="static gain" parameterValue="1"/>
          </component>
          <component componentGuid="05bd787e-e3bb-4bd4-88c5-c293b68aefd7" componentID="Audition.Mute" id="clipMute" name="Mute" powered="true">
            <parameter index="0" parameterValue="0"/>
            <parameter index="1" name="mute" parameterValue="0"/>
          </component>
          <component componentGuid="61bc710a-1ec7-41a0-8a06-5bb1f3b8c135" componentID="Audition.StereoPanner" id="clipPan" name="StereoPanner" powered="true">
            <parameter index="0" name="Deslocar" parameterValue="0"/>
          </component>
          <fadeIn crossFadeLinkType="linkedAsymmetric" endPoint="195892" shape="19" startPoint="0" type="log"/>
          <fadeOut crossFadeLinkType="linkedAsymmetric" endPoint="1114705" shape="19" startPoint="979607" type="log"/>
          <editParameter parameterIndex="0" slotIndex="4294967280"/>
          <editParameter parameterIndex="0" slotIndex="4294967281"/>
          <channelMap>
            <channel index="0" sourceIndex="0"/>
            <channel index="1" sourceIndex="1"/>
          </channelMap>
        </audioClip>
      </audioTrack>
      <audioTrack automationLaneOpenState="false" id="10004" index="4" select="false" visible="true">
        <trackParameters trackHeight="30" trackHue="182" trackMinimized="false">
          <name>Faixa 4</name>
        </trackParameters>
        <trackAudioParameters audioChannelType="stereo" automationMode="1" monitoring="false" recordArmed="false" solo="false" soloSafe="false">
          <trackOutput outputID="10000" type="trackID"/>
          <trackInput inputID="1"/>
          <component componentGuid="aa5cf3ac-97e1-40fd-9c78-29d1c4fe12ce" componentID="Audition.Fader" id="trackFader" name="volume" powered="true">
            <parameter index="0" name="volume" parameterValue="1.1481535434722900390625"/>
            <parameter index="1" name="static gain" parameterValue="1"/>
          </component>
          <component componentGuid="e9901edd-1a68-4958-b917-5e0277a766d5" componentID="Audition.Mute" id="trackMute" name="Mute" powered="true">
            <parameter index="0" parameterValue="0"/>
            <parameter index="1" name="mute" parameterValue="0"/>
          </component>
          <component componentGuid="f30fda6a-37c0-494e-b61f-8c743c838c24" componentID="Audition.StereoTo51Panner" id="trackPan" name="StereoTo51Panner" powered="true">
            <parameter index="0" name="Panorâmica: Ângulo" parameterValue="1.5707962512969970703125"/>
            <parameter index="1" name="Panorâmica: Raio" parameterValue="1"/>
            <parameter index="2" name="Panorâmica: Centro" parameterValue="1"/>
            <parameter index="3" name="Panorâmica: LFE" parameterValue="0"/>
            <parameter index="4" name="Panorâmica: difusão estéreo" parameterValue="0.523599147796630859375"/>
            <parameter index="5" name="leftEnable" parameterValue="1"/>
            <parameter index="6" name="rightEnable" parameterValue="1"/>
            <parameter index="7" name="centerEnable" parameterValue="1"/>
            <parameter index="8" name="lfeEnable" parameterValue="1"/>
            <parameter index="9" name="leftSurroundEnable" parameterValue="1"/>
            <parameter index="10" name="rightSurroundEnable" parameterValue="1"/>
            <parameter index="11" name="leftSolo" parameterValue="0"/>
            <parameter index="12" name="rightSolo" parameterValue="0"/>
            <parameter index="13" name="centerSolo" parameterValue="0"/>
            <parameter index="14" name="lfeSolo" parameterValue="0"/>
            <parameter index="15" name="leftSurroundSolo" parameterValue="0"/>
            <parameter index="16" name="rightSurroundSolo" parameterValue="0"/>
          </component>
          <component componentGuid="55486af9-9181-4455-9780-1090ad72e6cc" componentID="Audition.EQ" id="trackEQ" name="EQ" powered="false">
            <parameter index="0" name="Frequência de estante inferior" parameterValue="0.0009078529546968638896942138671875"/>
            <parameter index="1" name="Ganho de estante inferior" parameterValue="0.5"/>
            <parameter index="2" name="Frequência de prateleira superior" parameterValue="0.816159784793853759765625"/>
            <parameter index="3" name="Ganho de estante superior" parameterValue="0.5"/>
            <parameter index="4" name="Frequência central de banda de EQ 1" parameterValue="0.0013617794029414653778076171875"/>
            <parameter index="5" name="Banda de EQ 1 Q" parameterValue="0.000199989997781813144683837890625"/>
            <parameter index="6" name="Ganho de banda de EQ 1" parameterValue="0.5"/>
            <parameter index="7" name="Ativar Banda de EQ 1" parameterValue="1"/>
            <parameter index="8" name="Frequências centrais de banda de EQ 2" parameterValue="0.008170676417648792266845703125"/>
            <parameter index="9" name="Banda de EQ 2 Q" parameterValue="0.000199989997781813144683837890625"/>
            <parameter index="10" name="Ganho de banda de EQ 2" parameterValue="0.5"/>
            <parameter index="11" name="Ativar banda de EQ 2" parameterValue="1"/>
            <parameter index="12" name="Frequências centrais de banda de EQ 3" parameterValue="0.0354062654078006744384765625"/>
            <parameter index="13" name="Banda de EQ 3 Q" parameterValue="0.000199989997781813144683837890625"/>
            <parameter index="14" name="Ganho de banda de EQ 3" parameterValue="0.5"/>
            <parameter index="15" name="Ativar banda de EQ 3" parameterValue="1"/>
            <parameter index="16" name="Frequência central de banda de EQ 4" parameterValue="0.144348621368408203125"/>
            <parameter index="17" name="Banda de EQ 4 Q" parameterValue="0.000199989997781813144683837890625"/>
            <parameter index="18" name="Ganho de banda de EQ 4" parameterValue="0.5"/>
            <parameter index="19" name="Ativar banda de EQ 4" parameterValue="1"/>
            <parameter index="20" name="Frequências centrais de banda de EQ 5" parameterValue="0.580118000507354736328125"/>
            <parameter index="21" name="Banda de EQ 5 Q" parameterValue="0.000199989997781813144683837890625"/>
            <parameter index="22" name="Ganho de banda de EQ 5" parameterValue="0.5"/>
            <parameter index="23" name="Ativar banda de EQ 5" parameterValue="1"/>
            <parameter index="24" name="Ganho" parameterValue="0.666666686534881591796875"/>
            <parameter index="25" name="ConstantQ" parameterValue="1"/>
            <parameter index="26" name="Ordem de filtro de estante inferior" parameterValue="0"/>
            <parameter index="27" name="Ordem de filtro de estante superior" parameterValue="0"/>
            <parameter index="28" name="Modo ultra silencioso" parameterValue="0"/>
            <parameter index="29" name="Ativar estante inferior" parameterValue="1"/>
            <parameter index="30" name="Ativar estante superior" parameterValue="1"/>
            <parameter index="31" name="Taxa de amostragem original" parameterValue="0.22968749701976776123046875"/>
            <parameter index="32" name="Largura de banda de banda de EQ 1" parameterValue="0.002499990165233612060546875"/>
            <parameter index="33" name="Largura de banda de EQ 2" parameterValue="0.0099999904632568359375"/>
            <parameter index="34" name="Largura de banda de EQ 3" parameterValue="0.0399999916553497314453125"/>
            <parameter index="35" name="Largura de banda de EQ 4" parameterValue="0.15999998152256011962890625"/>
            <parameter index="36" name="Largura de banda de EQ 5" parameterValue="0.63999998569488525390625"/>
            <parameter index="37" name="Ativar filtro de alta frequência" parameterValue="0"/>
            <parameter index="38" name="Frequência de corte de alta frequência" parameterValue="0"/>
            <parameter index="39" name="Inclinação de alta frequência" parameterValue="0.4000000059604644775390625"/>
            <parameter index="40" name="Ativar filtro de passagem de baixa aprovação" parameterValue="0"/>
            <parameter index="41" name="Frequência de corte de passe para baixo" parameterValue="0.906945049762725830078125"/>
            <parameter index="42" name="Inclinação de passe para baixo" parameterValue="0.4000000059604644775390625"/>
            <parameter index="43" name="Desvio" parameterValue="0"/>
            <parameter index="44" name="Faixa de gráfico baixa" parameterValue="1"/>
          </component>
        </trackAudioParameters>
        <editParameter parameterIndex="0" slotIndex="4294967280"/>
        <audioClip clipAutoCrossfade="true" crossFadeHeadClipID="-1" crossFadeTailClipID="-1" endPoint="397792" fileID="8" hue="-1" id="0" lockedInTime="false" looped="false" name="Footsteps - Sound Effect" offline="false" select="false" sourceInPoint="0" sourceOutPoint="180810" startPoint="216982" zOrder="10">
          <component componentGuid="49d5977c-5e82-4cdc-809c-d382460699ba" componentID="Audition.Fader" id="clipGain" name="volume" powered="true">
            <parameter index="0" name="volume" parameterValue="1"/>
            <parameter index="1" name="static gain" parameterValue="1"/>
          </component>
          <component componentGuid="efe407d0-cc58-451e-bcb3-34dfa55c76ac" componentID="Audition.Mute" id="clipMute" name="Mute" powered="true">
            <parameter index="0" parameterValue="0"/>
            <parameter index="1" name="mute" parameterValue="0"/>
          </component>
          <component componentGuid="732fc5f2-272f-4dea-9622-1e16605d4d6e" componentID="Audition.StereoPanner" id="clipPan" name="StereoPanner" powered="true">
            <parameter index="0" name="Deslocar" parameterValue="0"/>
          </component>
          <fadeIn crossFadeLinkType="linkedAsymmetric" endPoint="0" shape="19" startPoint="0" type="log"/>
          <fadeOut crossFadeLinkType="linkedAsymmetric" endPoint="180810" shape="18" startPoint="180810" type="log"/>
          <editParameter parameterIndex="0" slotIndex="4294967280"/>
          <editParameter parameterIndex="0" slotIndex="4294967281"/>
          <channelMap>
            <channel index="0" sourceIndex="0"/>
            <channel index="1" sourceIndex="1"/>
          </channelMap>
        </audioClip>
        <audioClip clipAutoCrossfade="true" crossFadeHeadClipID="-1" crossFadeTailClipID="2" endPoint="778942" fileID="12" hue="-1" id="1" lockedInTime="false" looped="false" name="atsound-effect 44100 1" offline="false" select="false" sourceInPoint="0" sourceOutPoint="249782" startPoint="529160" zOrder="16">
          <component componentGuid="303f4915-8c04-4e80-aa25-601360c2e0a8" componentID="Audition.Fader" id="clipGain" name="volume" powered="true">
            <parameter index="0" name="volume" parameterValue="1"/>
            <parameter index="1" name="static gain" parameterValue="1"/>
          </component>
          <component componentGuid="8cc4fa9e-f2c2-4cc9-be71-90c57ce3461c" componentID="Audition.Mute" id="clipMute" name="Mute" powered="true">
            <parameter index="0" parameterValue="0"/>
            <parameter index="1" name="mute" parameterValue="0"/>
          </component>
          <component componentGuid="9e193a44-7f78-4fe8-8cb3-8237b773a045" componentID="Audition.StereoPanner" id="clipPan" name="StereoPanner" powered="true">
            <parameter index="0" name="Deslocar" parameterValue="0"/>
          </component>
          <fadeIn crossFadeLinkType="linkedAsymmetric" endPoint="0" shape="19" startPoint="0" type="log"/>
          <fadeOut crossFadeLinkType="linkedAsymmetric" endPoint="249782" shape="19" startPoint="243825" type="log"/>
          <editParameter parameterIndex="0" slotIndex="4294967280"/>
          <editParameter parameterIndex="0" slotIndex="4294967281"/>
          <channelMap>
            <channel index="0" sourceIndex="0"/>
            <channel index="1" sourceIndex="1"/>
          </channelMap>
        </audioClip>
        <audioClip clipAutoCrossfade="true" crossFadeHeadClipID="1" crossFadeTailClipID="-1" endPoint="882000" fileID="10" hue="-1" id="2" lockedInTime="false" looped="false" name="door-broken-sound-effect 44100 1" offline="false" select="false" sourceInPoint="0" sourceOutPoint="109015" startPoint="772985" zOrder="17">
          <component componentGuid="74f043eb-eea4-438a-b934-ff029ec982b4" componentID="Audition.Fader" id="clipGain" name="volume" powered="true">
            <parameter index="0" name="volume" parameterValue="1"/>
            <parameter index="1" name="static gain" parameterValue="1"/>
          </component>
          <component componentGuid="4b73fb7b-8348-4f81-88ae-099fe6c3a9b4" componentID="Audition.Mute" id="clipMute" name="Mute" powered="true">
            <parameter index="0" parameterValue="0"/>
            <parameter index="1" name="mute" parameterValue="0"/>
          </component>
          <component componentGuid="e0a31c60-fb9b-4728-9adb-722dc4956caa" componentID="Audition.StereoPanner" id="clipPan" name="StereoPanner" powered="true">
            <parameter index="0" name="Deslocar" parameterValue="0"/>
          </component>
          <fadeIn crossFadeLinkType="linkedAsymmetric" endPoint="5957" shape="18" startPoint="0" type="log"/>
          <fadeOut crossFadeLinkType="linkedAsymmetric" endPoint="109015" shape="19" startPoint="109015" type="log"/>
          <editParameter parameterIndex="0" slotIndex="4294967280"/>
          <editParameter parameterIndex="0" slotIndex="4294967281"/>
          <channelMap>
            <channel index="0" sourceIndex="0"/>
            <channel index="1" sourceIndex="1"/>
          </channelMap>
        </audioClip>
        <audioClip clipAutoCrossfade="true" crossFadeHeadClipID="-1" crossFadeTailClipID="-1" endPoint="1543093" fileID="13" hue="-1" id="3" lockedInTime="false" looped="false" name="barulho-chato-de-prato-arranhando 44100 1" offline="false" select="false" sourceInPoint="0" sourceOutPoint="372952" startPoint="1170141" zOrder="21">
          <component componentGuid="5984c225-ad4b-452f-af18-fb5b2a2bc66b" componentID="Audition.Fader" id="clipGain" name="volume" powered="true">
            <parameter index="0" name="volume" parameterValue="1"/>
            <parameter index="1" name="static gain" parameterValue="1"/>
          </component>
          <component componentGuid="48b6f043-d355-4441-a2c2-c5df2eeae54f" componentID="Audition.Mute" id="clipMute" name="Mute" powered="true">
            <parameter index="0" parameterValue="0"/>
            <parameter index="1" name="mute" parameterValue="0"/>
          </component>
          <component componentGuid="128434ed-b6d5-4abf-99b1-d2718ce2d234" componentID="Audition.StereoPanner" id="clipPan" name="StereoPanner" powered="true">
            <parameter index="0" name="Deslocar" parameterValue="0"/>
          </component>
          <fadeIn crossFadeLinkType="linkedAsymmetric" endPoint="0" shape="19" startPoint="0" type="log"/>
          <fadeOut crossFadeLinkType="linkedAsymmetric" endPoint="372952" shape="0" startPoint="291615" type="log"/>
          <editParameter parameterIndex="0" slotIndex="4294967280"/>
          <editParameter parameterIndex="0" slotIndex="4294967281"/>
          <channelMap>
            <channel index="0" sourceIndex="0"/>
            <channel index="1" sourceIndex="1"/>
          </channelMap>
        </audioClip>
        <audioClip clipAutoCrossfade="true" crossFadeHeadClipID="-1" crossFadeTailClipID="-1" endPoint="2559856" fileID="14" hue="-1" id="4" lockedInTime="false" looped="false" name="Creepy Woman Breathing Sound Effect (HD) (FREE)" offline="true" select="false" sourceInPoint="0" sourceOutPoint="88200" startPoint="2471656" zOrder="31">
          <component componentGuid="92b67f6c-6103-4d0b-866d-308d16fbc967" componentID="Audition.Fader" id="clipGain" name="volume" powered="true">
            <parameter index="0" name="volume" parameterValue="1"/>
            <parameter index="1" name="static gain" parameterValue="1"/>
          </component>
          <component componentGuid="4e160343-ff03-4e66-bfb0-bc87e8e44c70" componentID="Audition.Mute" id="clipMute" name="Mute" powered="true">
            <parameter index="0" parameterValue="0"/>
            <parameter index="1" name="mute" parameterValue="0"/>
          </component>
          <component componentGuid="5d4841d2-1b01-44b2-a292-7875ca280b05" componentID="Audition.StereoPanner" id="clipPan" name="StereoPanner" powered="true">
            <parameter index="0" name="Deslocar" parameterValue="0"/>
          </component>
          <fadeIn crossFadeLinkType="linkedAsymmetric" endPoint="37781" shape="0" startPoint="0" type="log"/>
          <fadeOut crossFadeLinkType="linkedAsymmetric" endPoint="88200" shape="19" startPoint="88200" type="log"/>
          <editParameter parameterIndex="0" slotIndex="4294967280"/>
          <editParameter parameterIndex="0" slotIndex="4294967281"/>
          <channelMap>
            <channel index="0" sourceIndex="0"/>
            <channel index="1" sourceIndex="1"/>
          </channelMap>
        </audioClip>
        <audioClip clipAutoCrossfade="true" crossFadeHeadClipID="-1" crossFadeTailClipID="6" endPoint="2648056" fileID="14" hue="-1" id="5" lockedInTime="false" looped="false" name="Creepy Woman Breathing Sound Effect (HD) (FREE)" offline="true" select="false" sourceInPoint="0" sourceOutPoint="88200" startPoint="2559856" zOrder="32">
          <component componentGuid="65f14def-7305-4473-9df2-ffdd43031ba5" componentID="Audition.Fader" id="clipGain" name="volume" powered="true">
            <parameter index="0" name="volume" parameterValue="1"/>
            <parameter index="1" name="static gain" parameterValue="1"/>
          </component>
          <component componentGuid="e5e18ba3-bfbc-4e29-8dcd-96ea5c0c01b3" componentID="Audition.Mute" id="clipMute" name="Mute" powered="true">
            <parameter index="0" parameterValue="0"/>
            <parameter index="1" name="mute" parameterValue="0"/>
          </component>
          <component componentGuid="5d7e35e0-a1d9-4fbb-9350-97d73c909b00" componentID="Audition.StereoPanner" id="clipPan" name="StereoPanner" powered="true">
            <parameter index="0" name="Deslocar" parameterValue="0"/>
          </component>
          <fadeIn crossFadeLinkType="linkedAsymmetric" endPoint="0" shape="19" startPoint="0" type="log"/>
          <fadeOut crossFadeLinkType="linkedAsymmetric" endPoint="88200" shape="19" startPoint="86144" type="log"/>
          <editParameter parameterIndex="0" slotIndex="4294967280"/>
          <editParameter parameterIndex="0" slotIndex="4294967281"/>
          <channelMap>
            <channel index="0" sourceIndex="0"/>
            <channel index="1" sourceIndex="1"/>
          </channelMap>
        </audioClip>
        <audioClip clipAutoCrossfade="true" crossFadeHeadClipID="5" crossFadeTailClipID="-1" endPoint="2734200" fileID="14" hue="-1" id="6" lockedInTime="false" looped="false" name="Creepy Woman Breathing Sound Effect (HD) (FREE)" offline="true" select="false" sourceInPoint="0" sourceOutPoint="88200" startPoint="2646000" zOrder="33">
          <component componentGuid="645cbfd6-e9e3-41f7-bc7e-eff95693ad7d" componentID="Audition.Fader" id="clipGain" name="volume" powered="true">
            <parameter index="0" name="volume" parameterValue="1"/>
            <parameter index="1" name="static gain" parameterValue="1"/>
          </component>
          <component componentGuid="f5bcfc6d-fcf5-4f1a-b41c-6beb198a53b2" componentID="Audition.Mute" id="clipMute" name="Mute" powered="true">
            <parameter index="0" parameterValue="0"/>
            <parameter index="1" name="mute" parameterValue="0"/>
          </component>
          <component componentGuid="6be57543-3e9a-49ac-b20b-97cad65c56ff" componentID="Audition.StereoPanner" id="clipPan" name="StereoPanner" powered="true">
            <parameter index="0" name="Deslocar" parameterValue="0"/>
          </component>
          <fadeIn crossFadeLinkType="linkedAsymmetric" endPoint="2056" shape="18" startPoint="0" type="log"/>
          <fadeOut crossFadeLinkType="linkedAsymmetric" endPoint="88200" shape="19" startPoint="88200" type="log"/>
          <editParameter parameterIndex="0" slotIndex="4294967280"/>
          <editParameter parameterIndex="0" slotIndex="4294967281"/>
          <channelMap>
            <channel index="0" sourceIndex="0"/>
            <channel index="1" sourceIndex="1"/>
          </channelMap>
        </audioClip>
        <audioClip clipAutoCrossfade="true" crossFadeHeadClipID="-1" crossFadeTailClipID="-1" endPoint="2822400" fileID="14" hue="-1" id="7" lockedInTime="false" looped="false" name="Creepy Woman Breathing Sound Effect (HD) (FREE)" offline="true" select="false" sourceInPoint="0" sourceOutPoint="88200" startPoint="2734200" zOrder="34">
          <component componentGuid="cddf621b-1721-4d8d-9b06-ed14a7addeda" componentID="Audition.Fader" id="clipGain" name="volume" powered="true">
            <parameter index="0" name="volume" parameterValue="1"/>
            <parameter index="1" name="static gain" parameterValue="1"/>
          </component>
          <component componentGuid="96d3f7b4-6410-4612-93d1-fa5a5c780b08" componentID="Audition.Mute" id="clipMute" name="Mute" powered="true">
            <parameter index="0" parameterValue="0"/>
            <parameter index="1" name="mute" parameterValue="0"/>
          </component>
          <component componentGuid="3191f12c-c935-495e-a434-73555941bffe" componentID="Audition.StereoPanner" id="clipPan" name="StereoPanner" powered="true">
            <parameter index="0" name="Deslocar" parameterValue="0"/>
          </component>
          <fadeIn crossFadeLinkType="linkedAsymmetric" endPoint="0" shape="19" startPoint="0" type="log"/>
          <fadeOut crossFadeLinkType="linkedAsymmetric" endPoint="88200" shape="0" startPoint="1" type="log"/>
          <editParameter parameterIndex="0" slotIndex="4294967280"/>
          <editParameter parameterIndex="0" slotIndex="4294967281"/>
          <channelMap>
            <channel index="0" sourceIndex="0"/>
            <channel index="1" sourceIndex="1"/>
          </channelMap>
        </audioClip>
        <audioClip clipAutoCrossfade="true" crossFadeHeadClipID="-1" crossFadeTailClipID="-1" endPoint="3267810" fileID="8" hue="-1" id="8" lockedInTime="false" looped="false" name="Footsteps - Sound Effect" offline="false" select="false" sourceInPoint="0" sourceOutPoint="180810" startPoint="3087000" zOrder="35">
          <component componentGuid="9c7cd301-6a34-47b9-b8e6-8dffc6754056" componentID="Audition.Fader" id="clipGain" name="volume" powered="true">
            <parameter index="0" name="volume" parameterValue="1"/>
            <parameter index="1" name="static gain" parameterValue="1"/>
          </component>
          <component componentGuid="ac944887-4b72-483c-bf90-6c5668e471c9" componentID="Audition.Mute" id="clipMute" name="Mute" powered="true">
            <parameter index="0" parameterValue="0"/>
            <parameter index="1" name="mute" parameterValue="0"/>
          </component>
          <component componentGuid="f2ebdbbc-5093-418c-92c8-ab6e5187e8f8" componentID="Audition.StereoPanner" id="clipPan" name="StereoPanner" powered="true">
            <parameter index="0" name="Deslocar" parameterValue="0"/>
          </component>
          <fadeIn crossFadeLinkType="linkedAsymmetric" endPoint="0" shape="19" startPoint="0" type="log"/>
          <fadeOut crossFadeLinkType="linkedAsymmetric" endPoint="180810" shape="29" startPoint="140818" type="log"/>
          <editParameter parameterIndex="0" slotIndex="4294967280"/>
          <editParameter parameterIndex="0" slotIndex="4294967281"/>
          <channelMap>
            <channel index="0" sourceIndex="0"/>
            <channel index="1" sourceIndex="1"/>
          </channelMap>
        </audioClip>
        <audioClip clipAutoCrossfade="true" crossFadeHeadClipID="-1" crossFadeTailClipID="-1" endPoint="3404595" fileID="8" hue="-1" id="9" lockedInTime="false" looped="false" name="Footsteps - Sound Effect" offline="false" select="false" sourceInPoint="0" sourceOutPoint="136785" startPoint="3267810" zOrder="36">
          <component componentGuid="b5f79c57-85c4-4947-be7e-5249187c7a38" componentID="Audition.Fader" id="clipGain" name="volume" powered="true">
            <parameter index="0" name="volume" parameterValue="1"/>
            <parameter index="1" name="static gain" parameterValue="1"/>
          </component>
          <component componentGuid="de1ddbc9-14ef-4e16-86a9-dc45989d276a" componentID="Audition.Mute" id="clipMute" name="Mute" powered="true">
            <parameter index="0" parameterValue="0"/>
            <parameter index="1" name="mute" parameterValue="0"/>
          </component>
          <component componentGuid="84ad61be-52a7-4523-8ce7-3e748ebc17b7" componentID="Audition.StereoPanner" id="clipPan" name="StereoPanner" powered="true">
            <parameter index="0" name="Deslocar" parameterValue="0"/>
          </component>
          <fadeIn crossFadeLinkType="linkedAsymmetric" endPoint="0" shape="19" startPoint="0" type="log"/>
          <fadeOut crossFadeLinkType="linkedAsymmetric" endPoint="136785" shape="29" startPoint="136785" type="log"/>
          <editParameter parameterIndex="0" slotIndex="4294967280"/>
          <editParameter parameterIndex="0" slotIndex="4294967281"/>
          <channelMap>
            <channel index="0" sourceIndex="0"/>
            <channel index="1" sourceIndex="1"/>
          </channelMap>
        </audioClip>
        <audioClip clipAutoCrossfade="true" crossFadeHeadClipID="-1" crossFadeTailClipID="-1" endPoint="7148637" fileID="15" hue="-1" id="10" lockedInTime="false" looped="false" name="efeito-para-producao 44100 1" offline="false" select="false" sourceInPoint="0" sourceOutPoint="223878" startPoint="6924759" zOrder="37">
          <component componentGuid="e377d115-f70f-4da6-b250-d01a47080342" componentID="Audition.Fader" id="clipGain" name="volume" powered="true">
            <parameter index="0" name="volume" parameterValue="1">
              <parameterKeyframes enableSplines="false" readOnly="false">
                <parameterKeyframe sampleOffset="50186" select="false" type="linear" value="0.64999997615814208984375"/>
              </parameterKeyframes>
            </parameter>
            <parameter index="1" name="static gain" parameterValue="1"/>
          </component>
          <component componentGuid="ca6967a8-58a7-4061-beb1-c09a047c17c9" componentID="Audition.Mute" id="clipMute" name="Mute" powered="true">
            <parameter index="0" parameterValue="0"/>
            <parameter index="1" name="mute" parameterValue="0"/>
          </component>
          <component componentGuid="b5b65270-1ecd-4a80-97ae-1f514faf4bc3" componentID="Audition.StereoPanner" id="clipPan" name="StereoPanner" powered="true">
            <parameter index="0" name="Deslocar" parameterValue="0"/>
          </component>
          <fadeIn crossFadeLinkType="linkedAsymmetric" endPoint="0" shape="19" startPoint="0" type="log"/>
          <fadeOut crossFadeLinkType="linkedAsymmetric" endPoint="223878" shape="18" startPoint="223878" type="log"/>
          <editParameter parameterIndex="0" slotIndex="4294967281"/>
          <editParameter parameterIndex="0" slotIndex="4294967280"/>
          <channelMap>
            <channel index="0" sourceIndex="0"/>
            <channel index="1" sourceIndex="1"/>
          </channelMap>
        </audioClip>
        <audioClip clipAutoCrossfade="true" crossFadeHeadClipID="-1" crossFadeTailClipID="12" endPoint="7468059" fileID="15" hue="-1" id="11" lockedInTime="false" looped="false" name="efeito-para-producao 44100 1" offline="false" select="false" sourceInPoint="36223" sourceOutPoint="267775" startPoint="7236507" zOrder="38">
          <component componentGuid="ea43c055-b7ab-4360-a285-cfeb97bbdd44" componentID="Audition.Fader" id="clipGain" name="volume" powered="true">
            <parameter index="0" name="volume" parameterValue="1"/>
            <parameter index="1" name="static gain" parameterValue="1"/>
          </component>
          <component componentGuid="b578f645-1de1-4f5a-8b64-032231e99ac4" componentID="Audition.Mute" id="clipMute" name="Mute" powered="true">
            <parameter index="0" parameterValue="0"/>
            <parameter index="1" name="mute" parameterValue="0"/>
          </component>
          <component componentGuid="bfb16b89-5f22-4281-8869-9674ba0e3446" componentID="Audition.StereoPanner" id="clipPan" name="StereoPanner" powered="true">
            <parameter index="0" name="Deslocar" parameterValue="0"/>
          </component>
          <fadeIn crossFadeLinkType="linkedAsymmetric" endPoint="45155" shape="6" startPoint="0" type="log"/>
          <fadeOut crossFadeLinkType="linkedAsymmetric" endPoint="231552" shape="19" startPoint="87268" type="log"/>
          <editParameter parameterIndex="0" slotIndex="4294967281"/>
          <editParameter parameterIndex="0" slotIndex="4294967280"/>
          <channelMap>
            <channel index="0" sourceIndex="0"/>
            <channel index="1" sourceIndex="1"/>
          </channelMap>
        </audioClip>
        <audioClip clipAutoCrossfade="true" crossFadeHeadClipID="11" crossFadeTailClipID="-1" endPoint="7591550" fileID="15" hue="-1" id="12" lockedInTime="false" looped="false" name="efeito-para-producao 44100 1" offline="false" select="false" sourceInPoint="0" sourceOutPoint="267775" startPoint="7323775" zOrder="39">
          <component componentGuid="ad071d9e-ffb8-4c55-aff9-3488f20f8451" componentID="Audition.Fader" id="clipGain" name="volume" powered="true">
            <parameter index="0" name="volume" parameterValue="1"/>
            <parameter index="1" name="static gain" parameterValue="1"/>
          </component>
          <component componentGuid="61ec3098-1a38-4c52-bb69-5fb9af7b4b18" componentID="Audition.Mute" id="clipMute" name="Mute" powered="true">
            <parameter index="0" parameterValue="0"/>
            <parameter index="1" name="mute" parameterValue="0"/>
          </component>
          <component componentGuid="07a8c88a-168e-4a72-94ae-b9ecc8aaf49f" componentID="Audition.StereoPanner" id="clipPan" name="StereoPanner" powered="true">
            <parameter index="0" name="Deslocar" parameterValue="0"/>
          </component>
          <fadeIn crossFadeLinkType="linkedAsymmetric" endPoint="144284" shape="18" startPoint="0" type="log"/>
          <fadeOut crossFadeLinkType="linkedAsymmetric" endPoint="267775" shape="30" startPoint="146687" type="log"/>
          <editParameter parameterIndex="0" slotIndex="4294967280"/>
          <editParameter parameterIndex="0" slotIndex="4294967281"/>
          <channelMap>
            <channel index="0" sourceIndex="0"/>
            <channel index="1" sourceIndex="1"/>
          </channelMap>
        </audioClip>
      </audioTrack>
      <audioTrack automationLaneOpenState="false" id="10005" index="5" select="false" visible="true">
        <trackParameters trackHeight="30" trackHue="294" trackMinimized="false">
          <name>Faixa 5</name>
        </trackParameters>
        <trackAudioParameters audioChannelType="stereo" automationMode="1" monitoring="false" recordArmed="false" solo="false" soloSafe="false">
          <trackOutput outputID="10000" type="trackID"/>
          <trackInput inputID="1"/>
          <component componentGuid="a849bd4a-004a-408c-a635-02f587983206" componentID="Audition.Fader" id="trackFader" name="volume" powered="true">
            <parameter index="0" name="volume" parameterValue="1.230268955230712890625"/>
            <parameter index="1" name="static gain" parameterValue="1"/>
          </component>
          <component componentGuid="4cecbaa7-bce9-43dc-a591-cb192b5bad65" componentID="Audition.Mute" id="trackMute" name="Mute" powered="true">
            <parameter index="0" parameterValue="0"/>
            <parameter index="1" name="mute" parameterValue="0"/>
          </component>
          <component componentGuid="494cc3f2-c319-4ccd-a308-1adb3b5d9c41" componentID="Audition.StereoTo51Panner" id="trackPan" name="StereoTo51Panner" powered="true">
            <parameter index="0" name="Panorâmica: Ângulo" parameterValue="1.5707962512969970703125"/>
            <parameter index="1" name="Panorâmica: Raio" parameterValue="1"/>
            <parameter index="2" name="Panorâmica: Centro" parameterValue="1"/>
            <parameter index="3" name="Panorâmica: LFE" parameterValue="0"/>
            <parameter index="4" name="Panorâmica: difusão estéreo" parameterValue="0.523599147796630859375"/>
            <parameter index="5" name="leftEnable" parameterValue="1"/>
            <parameter index="6" name="rightEnable" parameterValue="1"/>
            <parameter index="7" name="centerEnable" parameterValue="1"/>
            <parameter index="8" name="lfeEnable" parameterValue="1"/>
            <parameter index="9" name="leftSurroundEnable" parameterValue="1"/>
            <parameter index="10" name="rightSurroundEnable" parameterValue="1"/>
            <parameter index="11" name="leftSolo" parameterValue="0"/>
            <parameter index="12" name="rightSolo" parameterValue="0"/>
            <parameter index="13" name="centerSolo" parameterValue="0"/>
            <parameter index="14" name="lfeSolo" parameterValue="0"/>
            <parameter index="15" name="leftSurroundSolo" parameterValue="0"/>
            <parameter index="16" name="rightSurroundSolo" parameterValue="0"/>
          </component>
          <component componentGuid="ebb649f6-fa6f-4e45-9dc6-cc36916d3f55" componentID="Audition.EQ" id="trackEQ" name="EQ" powered="false">
            <parameter index="0" name="Frequência de estante inferior" parameterValue="0.0009078529546968638896942138671875"/>
            <parameter index="1" name="Ganho de estante inferior" parameterValue="0.5"/>
            <parameter index="2" name="Frequência de prateleira superior" parameterValue="0.816159784793853759765625"/>
            <parameter index="3" name="Ganho de estante superior" parameterValue="0.5"/>
            <parameter index="4" name="Frequência central de banda de EQ 1" parameterValue="0.0013617794029414653778076171875"/>
            <parameter index="5" name="Banda de EQ 1 Q" parameterValue="0.000199989997781813144683837890625"/>
            <parameter index="6" name="Ganho de banda de EQ 1" parameterValue="0.5"/>
            <parameter index="7" name="Ativar Banda de EQ 1" parameterValue="1"/>
            <parameter index="8" name="Frequências centrais de banda de EQ 2" parameterValue="0.008170676417648792266845703125"/>
            <parameter index="9" name="Banda de EQ 2 Q" parameterValue="0.000199989997781813144683837890625"/>
            <parameter index="10" name="Ganho de banda de EQ 2" parameterValue="0.5"/>
            <parameter index="11" name="Ativar banda de EQ 2" parameterValue="1"/>
            <parameter index="12" name="Frequências centrais de banda de EQ 3" parameterValue="0.0354062654078006744384765625"/>
            <parameter index="13" name="Banda de EQ 3 Q" parameterValue="0.000199989997781813144683837890625"/>
            <parameter index="14" name="Ganho de banda de EQ 3" parameterValue="0.5"/>
            <parameter index="15" name="Ativar banda de EQ 3" parameterValue="1"/>
            <parameter index="16" name="Frequência central de banda de EQ 4" parameterValue="0.144348621368408203125"/>
            <parameter index="17" name="Banda de EQ 4 Q" parameterValue="0.000199989997781813144683837890625"/>
            <parameter index="18" name="Ganho de banda de EQ 4" parameterValue="0.5"/>
            <parameter index="19" name="Ativar banda de EQ 4" parameterValue="1"/>
            <parameter index="20" name="Frequências centrais de banda de EQ 5" parameterValue="0.580118000507354736328125"/>
            <parameter index="21" name="Banda de EQ 5 Q" parameterValue="0.000199989997781813144683837890625"/>
            <parameter index="22" name="Ganho de banda de EQ 5" parameterValue="0.5"/>
            <parameter index="23" name="Ativar banda de EQ 5" parameterValue="1"/>
            <parameter index="24" name="Ganho" parameterValue="0.666666686534881591796875"/>
            <parameter index="25" name="ConstantQ" parameterValue="1"/>
            <parameter index="26" name="Ordem de filtro de estante inferior" parameterValue="0"/>
            <parameter index="27" name="Ordem de filtro de estante superior" parameterValue="0"/>
            <parameter index="28" name="Modo ultra silencioso" parameterValue="0"/>
            <parameter index="29" name="Ativar estante inferior" parameterValue="1"/>
            <parameter index="30" name="Ativar estante superior" parameterValue="1"/>
            <parameter index="31" name="Taxa de amostragem original" parameterValue="0.22968749701976776123046875"/>
            <parameter index="32" name="Largura de banda de banda de EQ 1" parameterValue="0.002499990165233612060546875"/>
            <parameter index="33" name="Largura de banda de EQ 2" parameterValue="0.0099999904632568359375"/>
            <parameter index="34" name="Largura de banda de EQ 3" parameterValue="0.0399999916553497314453125"/>
            <parameter index="35" name="Largura de banda de EQ 4" parameterValue="0.15999998152256011962890625"/>
            <parameter index="36" name="Largura de banda de EQ 5" parameterValue="0.63999998569488525390625"/>
            <parameter index="37" name="Ativar filtro de alta frequência" parameterValue="0"/>
            <parameter index="38" name="Frequência de corte de alta frequência" parameterValue="0"/>
            <parameter index="39" name="Inclinação de alta frequência" parameterValue="0.4000000059604644775390625"/>
            <parameter index="40" name="Ativar filtro de passagem de baixa aprovação" parameterValue="0"/>
            <parameter index="41" name="Frequência de corte de passe para baixo" parameterValue="0.906945049762725830078125"/>
            <parameter index="42" name="Inclinação de passe para baixo" parameterValue="0.4000000059604644775390625"/>
            <parameter index="43" name="Desvio" parameterValue="0"/>
            <parameter index="44" name="Faixa de gráfico baixa" parameterValue="1"/>
          </component>
        </trackAudioParameters>
        <editParameter parameterIndex="0" slotIndex="4294967280"/>
        <audioClip clipAutoCrossfade="true" crossFadeHeadClipID="-1" crossFadeTailClipID="-1" endPoint="1860877" fileID="5" hue="-1" id="0" lockedInTime="false" looped="false" name="heartbeat sound effect" offline="true" select="false" sourceInPoint="0" sourceOutPoint="978877" startPoint="882000" zOrder="19">
          <component componentGuid="407832d7-54db-472a-b37a-2fe7afde6cac" componentID="Audition.Fader" id="clipGain" name="volume" powered="true">
            <parameter index="0" name="volume" parameterValue="1"/>
            <parameter index="1" name="static gain" parameterValue="1"/>
          </component>
          <component componentGuid="66bf00fc-f169-4ec5-8c45-f9480bd2d76c" componentID="Audition.Mute" id="clipMute" name="Mute" powered="true">
            <parameter index="0" parameterValue="0"/>
            <parameter index="1" name="mute" parameterValue="0"/>
          </component>
          <component componentGuid="066de70b-c9ab-4852-a131-e578ef356456" componentID="Audition.StereoPanner" id="clipPan" name="StereoPanner" powered="true">
            <parameter index="0" name="Deslocar" parameterValue="0"/>
          </component>
          <fadeIn crossFadeLinkType="linkedAsymmetric" endPoint="0" shape="19" startPoint="0" type="log"/>
          <fadeOut crossFadeLinkType="linkedAsymmetric" endPoint="978877" shape="0" startPoint="803203" type="log"/>
          <editParameter parameterIndex="0" slotIndex="4294967280"/>
          <editParameter parameterIndex="0" slotIndex="4294967281"/>
          <channelMap>
            <channel index="0" sourceIndex="0"/>
            <channel index="1" sourceIndex="1"/>
          </channelMap>
        </audioClip>
      </audioTrack>
      <audioTrack automationLaneOpenState="false" id="10006" index="6" select="false" visible="true">
        <trackParameters trackHeight="30" trackHue="92" trackMinimized="false">
          <name>Faixa 6</name>
        </trackParameters>
        <trackAudioParameters audioChannelType="stereo" automationMode="1" monitoring="false" recordArmed="false" solo="false" soloSafe="false">
          <trackOutput outputID="10000" type="trackID"/>
          <trackInput inputID="1"/>
          <component componentGuid="03a64f29-818a-448f-a855-8d067fe4c9d1" componentID="Audition.Fader" id="trackFader" name="volume" powered="true">
            <parameter index="0" name="volume" parameterValue="1"/>
            <parameter index="1" name="static gain" parameterValue="1"/>
          </component>
          <component componentGuid="98c7fe0d-8762-4da2-ae66-b06152ad47a3" componentID="Audition.Mute" id="trackMute" name="Mute" powered="true">
            <parameter index="0" parameterValue="0"/>
            <parameter index="1" name="mute" parameterValue="0"/>
          </component>
          <component componentGuid="518dc897-b1ef-47da-8761-130a29f3626d" componentID="Audition.StereoTo51Panner" id="trackPan" name="StereoTo51Panner" powered="true">
            <parameter index="0" name="Panorâmica: Ângulo" parameterValue="1.5707962512969970703125"/>
            <parameter index="1" name="Panorâmica: Raio" parameterValue="1"/>
            <parameter index="2" name="Panorâmica: Centro" parameterValue="1"/>
            <parameter index="3" name="Panorâmica: LFE" parameterValue="0"/>
            <parameter index="4" name="Panorâmica: difusão estéreo" parameterValue="0.523599147796630859375"/>
            <parameter index="5" name="leftEnable" parameterValue="1"/>
            <parameter index="6" name="rightEnable" parameterValue="1"/>
            <parameter index="7" name="centerEnable" parameterValue="1"/>
            <parameter index="8" name="lfeEnable" parameterValue="1"/>
            <parameter index="9" name="leftSurroundEnable" parameterValue="1"/>
            <parameter index="10" name="rightSurroundEnable" parameterValue="1"/>
            <parameter index="11" name="leftSolo" parameterValue="0"/>
            <parameter index="12" name="rightSolo" parameterValue="0"/>
            <parameter index="13" name="centerSolo" parameterValue="0"/>
            <parameter index="14" name="lfeSolo" parameterValue="0"/>
            <parameter index="15" name="leftSurroundSolo" parameterValue="0"/>
            <parameter index="16" name="rightSurroundSolo" parameterValue="0"/>
          </component>
          <component componentGuid="ab17208b-df43-45ef-bb06-a6b95fdba70b" componentID="Audition.EQ" id="trackEQ" name="EQ" powered="false">
            <parameter index="0" name="Frequência de estante inferior" parameterValue="0.0009078529546968638896942138671875"/>
            <parameter index="1" name="Ganho de estante inferior" parameterValue="0.5"/>
            <parameter index="2" name="Frequência de prateleira superior" parameterValue="0.816159784793853759765625"/>
            <parameter index="3" name="Ganho de estante superior" parameterValue="0.5"/>
            <parameter index="4" name="Frequência central de banda de EQ 1" parameterValue="0.0013617794029414653778076171875"/>
            <parameter index="5" name="Banda de EQ 1 Q" parameterValue="0.000199989997781813144683837890625"/>
            <parameter index="6" name="Ganho de banda de EQ 1" parameterValue="0.5"/>
            <parameter index="7" name="Ativar Banda de EQ 1" parameterValue="1"/>
            <parameter index="8" name="Frequências centrais de banda de EQ 2" parameterValue="0.008170676417648792266845703125"/>
            <parameter index="9" name="Banda de EQ 2 Q" parameterValue="0.000199989997781813144683837890625"/>
            <parameter index="10" name="Ganho de banda de EQ 2" parameterValue="0.5"/>
            <parameter index="11" name="Ativar banda de EQ 2" parameterValue="1"/>
            <parameter index="12" name="Frequências centrais de banda de EQ 3" parameterValue="0.0354062654078006744384765625"/>
            <parameter index="13" name="Banda de EQ 3 Q" parameterValue="0.000199989997781813144683837890625"/>
            <parameter index="14" name="Ganho de banda de EQ 3" parameterValue="0.5"/>
            <parameter index="15" name="Ativar banda de EQ 3" parameterValue="1"/>
            <parameter index="16" name="Frequência central de banda de EQ 4" parameterValue="0.144348621368408203125"/>
            <parameter index="17" name="Banda de EQ 4 Q" parameterValue="0.000199989997781813144683837890625"/>
            <parameter index="18" name="Ganho de banda de EQ 4" parameterValue="0.5"/>
            <parameter index="19" name="Ativar banda de EQ 4" parameterValue="1"/>
            <parameter index="20" name="Frequências centrais de banda de EQ 5" parameterValue="0.580118000507354736328125"/>
            <parameter index="21" name="Banda de EQ 5 Q" parameterValue="0.000199989997781813144683837890625"/>
            <parameter index="22" name="Ganho de banda de EQ 5" parameterValue="0.5"/>
            <parameter index="23" name="Ativar banda de EQ 5" parameterValue="1"/>
            <parameter index="24" name="Ganho" parameterValue="0.666666686534881591796875"/>
            <parameter index="25" name="ConstantQ" parameterValue="1"/>
            <parameter index="26" name="Ordem de filtro de estante inferior" parameterValue="0"/>
            <parameter index="27" name="Ordem de filtro de estante superior" parameterValue="0"/>
            <parameter index="28" name="Modo ultra silencioso" parameterValue="0"/>
            <parameter index="29" name="Ativar estante inferior" parameterValue="1"/>
            <parameter index="30" name="Ativar estante superior" parameterValue="1"/>
            <parameter index="31" name="Taxa de amostragem original" parameterValue="0.22968749701976776123046875"/>
            <parameter index="32" name="Largura de banda de banda de EQ 1" parameterValue="0.002499990165233612060546875"/>
            <parameter index="33" name="Largura de banda de EQ 2" parameterValue="0.0099999904632568359375"/>
            <parameter index="34" name="Largura de banda de EQ 3" parameterValue="0.0399999916553497314453125"/>
            <parameter index="35" name="Largura de banda de EQ 4" parameterValue="0.15999998152256011962890625"/>
            <parameter index="36" name="Largura de banda de EQ 5" parameterValue="0.63999998569488525390625"/>
            <parameter index="37" name="Ativar filtro de alta frequência" parameterValue="0"/>
            <parameter index="38" name="Frequência de corte de alta frequência" parameterValue="0"/>
            <parameter index="39" name="Inclinação de alta frequência" parameterValue="0.4000000059604644775390625"/>
            <parameter index="40" name="Ativar filtro de passagem de baixa aprovação" parameterValue="0"/>
            <parameter index="41" name="Frequência de corte de passe para baixo" parameterValue="0.906945049762725830078125"/>
            <parameter index="42" name="Inclinação de passe para baixo" parameterValue="0.4000000059604644775390625"/>
            <parameter index="43" name="Desvio" parameterValue="0"/>
            <parameter index="44" name="Faixa de gráfico baixa" parameterValue="1"/>
          </component>
        </trackAudioParameters>
        <editParameter parameterIndex="0" slotIndex="4294967280"/>
      </audioTrack>
      <audioTrack automationLaneOpenState="false" id="10007" index="7" select="false" visible="true">
        <trackParameters trackHeight="30" trackHue="211" trackMinimized="false">
          <name>Faixa 7</name>
        </trackParameters>
        <trackAudioParameters audioChannelType="stereo" automationMode="1" monitoring="false" recordArmed="false" solo="false" soloSafe="false">
          <trackOutput outputID="10000" type="trackID"/>
          <trackInput inputID="1"/>
          <component componentGuid="b1518804-252f-48a7-8e82-479035e4c840" componentID="Audition.Fader" id="trackFader" name="volume" powered="true">
            <parameter index="0" name="volume" parameterValue="1"/>
            <parameter index="1" name="static gain" parameterValue="1"/>
          </component>
          <component componentGuid="12e18c46-182c-42ef-aed6-22a87929a28a" componentID="Audition.Mute" id="trackMute" name="Mute" powered="true">
            <parameter index="0" parameterValue="0"/>
            <parameter index="1" name="mute" parameterValue="0"/>
          </component>
          <component componentGuid="292ea1db-d14b-4ee7-a322-bcacefff1a88" componentID="Audition.StereoTo51Panner" id="trackPan" name="StereoTo51Panner" powered="true">
            <parameter index="0" name="Panorâmica: Ângulo" parameterValue="1.5707962512969970703125"/>
            <parameter index="1" name="Panorâmica: Raio" parameterValue="1"/>
            <parameter index="2" name="Panorâmica: Centro" parameterValue="1"/>
            <parameter index="3" name="Panorâmica: LFE" parameterValue="0"/>
            <parameter index="4" name="Panorâmica: difusão estéreo" parameterValue="0.523599147796630859375"/>
            <parameter index="5" name="leftEnable" parameterValue="1"/>
            <parameter index="6" name="rightEnable" parameterValue="1"/>
            <parameter index="7" name="centerEnable" parameterValue="1"/>
            <parameter index="8" name="lfeEnable" parameterValue="1"/>
            <parameter index="9" name="leftSurroundEnable" parameterValue="1"/>
            <parameter index="10" name="rightSurroundEnable" parameterValue="1"/>
            <parameter index="11" name="leftSolo" parameterValue="0"/>
            <parameter index="12" name="rightSolo" parameterValue="0"/>
            <parameter index="13" name="centerSolo" parameterValue="0"/>
            <parameter index="14" name="lfeSolo" parameterValue="0"/>
            <parameter index="15" name="leftSurroundSolo" parameterValue="0"/>
            <parameter index="16" name="rightSurroundSolo" parameterValue="0"/>
          </component>
          <component componentGuid="adaa2dac-2fc9-4217-86f8-0daf296b318b" componentID="Audition.EQ" id="trackEQ" name="EQ" powered="false">
            <parameter index="0" name="Frequência de estante inferior" parameterValue="0.0009078529546968638896942138671875"/>
            <parameter index="1" name="Ganho de estante inferior" parameterValue="0.5"/>
            <parameter index="2" name="Frequência de prateleira superior" parameterValue="0.816159784793853759765625"/>
            <parameter index="3" name="Ganho de estante superior" parameterValue="0.5"/>
            <parameter index="4" name="Frequência central de banda de EQ 1" parameterValue="0.0013617794029414653778076171875"/>
            <parameter index="5" name="Banda de EQ 1 Q" parameterValue="0.000199989997781813144683837890625"/>
            <parameter index="6" name="Ganho de banda de EQ 1" parameterValue="0.5"/>
            <parameter index="7" name="Ativar Banda de EQ 1" parameterValue="1"/>
            <parameter index="8" name="Frequências centrais de banda de EQ 2" parameterValue="0.008170676417648792266845703125"/>
            <parameter index="9" name="Banda de EQ 2 Q" parameterValue="0.000199989997781813144683837890625"/>
            <parameter index="10" name="Ganho de banda de EQ 2" parameterValue="0.5"/>
            <parameter index="11" name="Ativar banda de EQ 2" parameterValue="1"/>
            <parameter index="12" name="Frequências centrais de banda de EQ 3" parameterValue="0.0354062654078006744384765625"/>
            <parameter index="13" name="Banda de EQ 3 Q" parameterValue="0.000199989997781813144683837890625"/>
            <parameter index="14" name="Ganho de banda de EQ 3" parameterValue="0.5"/>
            <parameter index="15" name="Ativar banda de EQ 3" parameterValue="1"/>
            <parameter index="16" name="Frequência central de banda de EQ 4" parameterValue="0.144348621368408203125"/>
            <parameter index="17" name="Banda de EQ 4 Q" parameterValue="0.000199989997781813144683837890625"/>
            <parameter index="18" name="Ganho de banda de EQ 4" parameterValue="0.5"/>
            <parameter index="19" name="Ativar banda de EQ 4" parameterValue="1"/>
            <parameter index="20" name="Frequências centrais de banda de EQ 5" parameterValue="0.580118000507354736328125"/>
            <parameter index="21" name="Banda de EQ 5 Q" parameterValue="0.000199989997781813144683837890625"/>
            <parameter index="22" name="Ganho de banda de EQ 5" parameterValue="0.5"/>
            <parameter index="23" name="Ativar banda de EQ 5" parameterValue="1"/>
            <parameter index="24" name="Ganho" parameterValue="0.666666686534881591796875"/>
            <parameter index="25" name="ConstantQ" parameterValue="1"/>
            <parameter index="26" name="Ordem de filtro de estante inferior" parameterValue="0"/>
            <parameter index="27" name="Ordem de filtro de estante superior" parameterValue="0"/>
            <parameter index="28" name="Modo ultra silencioso" parameterValue="0"/>
            <parameter index="29" name="Ativar estante inferior" parameterValue="1"/>
            <parameter index="30" name="Ativar estante superior" parameterValue="1"/>
            <parameter index="31" name="Taxa de amostragem original" parameterValue="0.22968749701976776123046875"/>
            <parameter index="32" name="Largura de banda de banda de EQ 1" parameterValue="0.002499990165233612060546875"/>
            <parameter index="33" name="Largura de banda de EQ 2" parameterValue="0.0099999904632568359375"/>
            <parameter index="34" name="Largura de banda de EQ 3" parameterValue="0.0399999916553497314453125"/>
            <parameter index="35" name="Largura de banda de EQ 4" parameterValue="0.15999998152256011962890625"/>
            <parameter index="36" name="Largura de banda de EQ 5" parameterValue="0.63999998569488525390625"/>
            <parameter index="37" name="Ativar filtro de alta frequência" parameterValue="0"/>
            <parameter index="38" name="Frequência de corte de alta frequência" parameterValue="0"/>
            <parameter index="39" name="Inclinação de alta frequência" parameterValue="0.4000000059604644775390625"/>
            <parameter index="40" name="Ativar filtro de passagem de baixa aprovação" parameterValue="0"/>
            <parameter index="41" name="Frequência de corte de passe para baixo" parameterValue="0.906945049762725830078125"/>
            <parameter index="42" name="Inclinação de passe para baixo" parameterValue="0.4000000059604644775390625"/>
            <parameter index="43" name="Desvio" parameterValue="0"/>
            <parameter index="44" name="Faixa de gráfico baixa" parameterValue="1"/>
          </component>
        </trackAudioParameters>
        <editParameter parameterIndex="0" slotIndex="4294967280"/>
      </audioTrack>
      <masterTrack automationLaneOpenState="false" id="10000" index="8" select="true" visible="true">
        <trackParameters trackHeight="30" trackHue="-1" trackMinimized="false">
          <name>Mixagem</name>
        </trackParameters>
        <trackAudioParameters audioChannelType="fivePointOne" automationMode="1" monitoring="false" recordArmed="false" solo="false" soloSafe="true">
          <trackOutput outputID="1" type="hardwareOutput"/>
          <trackInput inputID="-1"/>
          <component componentGuid="e8e603c1-ea5b-4021-89a9-138422bdf254" componentID="Audition.Fader" id="trackFader" name="volume" powered="true">
            <parameter index="0" name="volume" parameterValue="1"/>
            <parameter index="1" name="static gain" parameterValue="1"/>
          </component>
          <component componentGuid="45a16a91-fe93-4d5f-b706-64f9c71e52c0" componentID="Audition.Mute" id="trackMute" name="Mute" powered="true">
            <parameter index="0" parameterValue="0"/>
            <parameter index="1" name="mute" parameterValue="0"/>
          </component>
          <component componentGuid="ee3b8535-f40a-4fd8-a9c4-dc70f5f26af1" componentID="Audition.StereoPanner" id="trackPan" name="StereoPanner" powered="true">
            <parameter index="0" name="Deslocar" parameterValue="0"/>
          </component>
          <component componentGuid="64a55a7d-ebcb-4bca-a117-bab3fc79fd4a" componentID="Audition.EQ" id="trackEQ" name="EQ" powered="false">
            <parameter index="0" name="Frequência de estante inferior" parameterValue="0.0009078529546968638896942138671875"/>
            <parameter index="1" name="Ganho de estante inferior" parameterValue="0.5"/>
            <parameter index="2" name="Frequência de prateleira superior" parameterValue="0.816159784793853759765625"/>
            <parameter index="3" name="Ganho de estante superior" parameterValue="0.5"/>
            <parameter index="4" name="Frequência central de banda de EQ 1" parameterValue="0.0013617794029414653778076171875"/>
            <parameter index="5" name="Banda de EQ 1 Q" parameterValue="0.000199989997781813144683837890625"/>
            <parameter index="6" name="Ganho de banda de EQ 1" parameterValue="0.5"/>
            <parameter index="7" name="Ativar Banda de EQ 1" parameterValue="1"/>
            <parameter index="8" name="Frequências centrais de banda de EQ 2" parameterValue="0.008170676417648792266845703125"/>
            <parameter index="9" name="Banda de EQ 2 Q" parameterValue="0.000199989997781813144683837890625"/>
            <parameter index="10" name="Ganho de banda de EQ 2" parameterValue="0.5"/>
            <parameter index="11" name="Ativar banda de EQ 2" parameterValue="1"/>
            <parameter index="12" name="Frequências centrais de banda de EQ 3" parameterValue="0.0354062654078006744384765625"/>
            <parameter index="13" name="Banda de EQ 3 Q" parameterValue="0.000199989997781813144683837890625"/>
            <parameter index="14" name="Ganho de banda de EQ 3" parameterValue="0.5"/>
            <parameter index="15" name="Ativar banda de EQ 3" parameterValue="1"/>
            <parameter index="16" name="Frequência central de banda de EQ 4" parameterValue="0.144348621368408203125"/>
            <parameter index="17" name="Banda de EQ 4 Q" parameterValue="0.000199989997781813144683837890625"/>
            <parameter index="18" name="Ganho de banda de EQ 4" parameterValue="0.5"/>
            <parameter index="19" name="Ativar banda de EQ 4" parameterValue="1"/>
            <parameter index="20" name="Frequências centrais de banda de EQ 5" parameterValue="0.580118000507354736328125"/>
            <parameter index="21" name="Banda de EQ 5 Q" parameterValue="0.000199989997781813144683837890625"/>
            <parameter index="22" name="Ganho de banda de EQ 5" parameterValue="0.5"/>
            <parameter index="23" name="Ativar banda de EQ 5" parameterValue="1"/>
            <parameter index="24" name="Ganho" parameterValue="0.666666686534881591796875"/>
            <parameter index="25" name="ConstantQ" parameterValue="1"/>
            <parameter index="26" name="Ordem de filtro de estante inferior" parameterValue="0"/>
            <parameter index="27" name="Ordem de filtro de estante superior" parameterValue="0"/>
            <parameter index="28" name="Modo ultra silencioso" parameterValue="0"/>
            <parameter index="29" name="Ativar estante inferior" parameterValue="1"/>
            <parameter index="30" name="Ativar estante superior" parameterValue="1"/>
            <parameter index="31" name="Taxa de amostragem original" parameterValue="0.22968749701976776123046875"/>
            <parameter index="32" name="Largura de banda de banda de EQ 1" parameterValue="0.002499990165233612060546875"/>
            <parameter index="33" name="Largura de banda de EQ 2" parameterValue="0.0099999904632568359375"/>
            <parameter index="34" name="Largura de banda de EQ 3" parameterValue="0.0399999916553497314453125"/>
            <parameter index="35" name="Largura de banda de EQ 4" parameterValue="0.15999998152256011962890625"/>
            <parameter index="36" name="Largura de banda de EQ 5" parameterValue="0.63999998569488525390625"/>
            <parameter index="37" name="Ativar filtro de alta frequência" parameterValue="0"/>
            <parameter index="38" name="Frequência de corte de alta frequência" parameterValue="0"/>
            <parameter index="39" name="Inclinação de alta frequência" parameterValue="0.4000000059604644775390625"/>
            <parameter index="40" name="Ativar filtro de passagem de baixa aprovação" parameterValue="0"/>
            <parameter index="41" name="Frequência de corte de passe para baixo" parameterValue="0.906945049762725830078125"/>
            <parameter index="42" name="Inclinação de passe para baixo" parameterValue="0.4000000059604644775390625"/>
            <parameter index="43" name="Desvio" parameterValue="0"/>
            <parameter index="44" name="Faixa de gráfico baixa" parameterValue="1"/>
          </component>
        </trackAudioParameters>
        <editParameter parameterIndex="0" slotIndex="4294967280"/>
      </masterTrack>
    </tracks>
    <sessionState ctiPosition="8479893" smpteStart="0">
      <selectionState selectionDuration="0" selectionStart="8479893"/>
      <viewState horizontalViewDuration="677434" horizontalViewStart="8425907" trackControlsWidth="224" verticalScrollOffset="0"/>
      <timeFormatState beatsPerBar="4" beatsPerMinute="120" customFrameRate="12" linkToDefaultTimeSettings="true" noteLength="4" subdivisions="16" timeCodeDropFrame="false" timeCodeFrameRate="30" timeCodeNTSC="false" timeFormat="timeFormatDecimal"/>
      <mixingOptionState defaultPanModeLogarithmic="false" panPower="-3" playOverlappingClips="false"/>
    </sessionState>
    <xmpMetadata><![CDATA[<?xpacket begin="﻿" id="W5M0MpCehiHzreSzNTczkc9d"?>
<x:xmpmeta xmlns:x="adobe:ns:meta/" x:xmptk="Adobe XMP Core 7.1-c000 79.4d2f597, 2021/09/01-20:51:22        ">
   <rdf:RDF xmlns:rdf="http://www.w3.org/1999/02/22-rdf-syntax-ns#">
      <rdf:Description rdf:about=""
            xmlns:xmp="http://ns.adobe.com/xap/1.0/"
            xmlns:xmpMM="http://ns.adobe.com/xap/1.0/mm/"
            xmlns:stEvt="http://ns.adobe.com/xap/1.0/sType/ResourceEvent#"
            xmlns:stRef="http://ns.adobe.com/xap/1.0/sType/ResourceRef#"
            xmlns:dc="http://purl.org/dc/elements/1.1/"
            xmlns:xmpDM="http://ns.adobe.com/xmp/1.0/DynamicMedia/">
         <xmp:CreatorTool>Adobe Audition 22.0 (Windows)</xmp:CreatorTool>
         <xmp:CreateDate>2022-06-16T20:15:33-03:00</xmp:CreateDate>
         <xmp:MetadataDate>2022-06-21T20:55:51-03:00</xmp:MetadataDate>
         <xmp:ModifyDate>2022-06-21T20:55:51-03:00</xmp:ModifyDate>
         <xmpMM:InstanceID>xmp.iid:a7b4c30d-2895-964f-adff-14e62524defe</xmpMM:InstanceID>
         <xmpMM:DocumentID>xmp.did:a7b4c30d-2895-964f-adff-14e62524defe</xmpMM:DocumentID>
         <xmpMM:OriginalDocumentID>xmp.did:4bc39c62-b3f1-4542-bbfe-f276fc930b20</xmpMM:OriginalDocumentID>
         <xmpMM:History>
            <rdf:Seq>
               <rdf:li rdf:parseType="Resource">
                  <stEvt:action>saved</stEvt:action>
                  <stEvt:instanceID>xmp.iid:4bc39c62-b3f1-4542-bbfe-f276fc930b20</stEvt:instanceID>
                  <stEvt:when>2022-06-16T20:15:33-03:00</stEvt:when>
                  <stEvt:softwareAgent>Adobe Audition 22.0 (Windows)</stEvt:softwareAgent>
                  <stEvt:changed>/metadata</stEvt:changed>
               </rdf:li>
               <rdf:li rdf:parseType="Resource">
                  <stEvt:action>saved</stEvt:action>
                  <stEvt:instanceID>xmp.iid:e1f8e05c-8ccf-8941-87b8-c8551407aaba</stEvt:instanceID>
                  <stEvt:when>2022-06-16T20:38:20-03:00</stEvt:when>
                  <stEvt:softwareAgent>Adobe Audition 22.0 (Windows)</stEvt:softwareAgent>
                  <stEvt:changed>/metadata</stEvt:changed>
               </rdf:li>
               <rdf:li rdf:parseType="Resource">
                  <stEvt:action>saved</stEvt:action>
                  <stEvt:instanceID>xmp.iid:bb79562e-83ba-dc43-b8a7-b78ea41b54f4</stEvt:instanceID>
                  <stEvt:when>2022-06-16T20:38:20-03:00</stEvt:when>
                  <stEvt:softwareAgent>Adobe Audition 22.0 (Windows)</stEvt:softwareAgent>
                  <stEvt:changed>/</stEvt:changed>
               </rdf:li>
               <rdf:li rdf:parseType="Resource">
                  <stEvt:action>saved</stEvt:action>
                  <stEvt:instanceID>xmp.iid:a3619ea1-85e8-4946-aad8-27acb19585dc</stEvt:instanceID>
                  <stEvt:when>2022-06-21T16:27:04-03:00</stEvt:when>
                  <stEvt:softwareAgent>Adobe Audition 22.0 (Windows)</stEvt:softwareAgent>
                  <stEvt:changed>/metadata</stEvt:changed>
               </rdf:li>
               <rdf:li rdf:parseType="Resource">
                  <stEvt:action>saved</stEvt:action>
                  <stEvt:instanceID>xmp.iid:a9394616-a452-7c4e-aafd-11c8b6752714</stEvt:instanceID>
                  <stEvt:when>2022-06-21T16:27:04-03:00</stEvt:when>
                  <stEvt:softwareAgent>Adobe Audition 22.0 (Windows)</stEvt:softwareAgent>
                  <stEvt:changed>/</stEvt:changed>
               </rdf:li>
               <rdf:li rdf:parseType="Resource">
                  <stEvt:action>saved</stEvt:action>
                  <stEvt:instanceID>xmp.iid:7429236d-7a42-654a-b0cd-9d04fe540dfd</stEvt:instanceID>
                  <stEvt:when>2022-06-21T17:19:08-03:00</stEvt:when>
                  <stEvt:softwareAgent>Adobe Audition 22.0 (Windows)</stEvt:softwareAgent>
                  <stEvt:changed>/metadata</stEvt:changed>
               </rdf:li>
               <rdf:li rdf:parseType="Resource">
                  <stEvt:action>saved</stEvt:action>
                  <stEvt:instanceID>xmp.iid:0a83e46f-d67f-cf45-8068-d7c0ab690f2f</stEvt:instanceID>
                  <stEvt:when>2022-06-21T17:19:08-03:00</stEvt:when>
                  <stEvt:softwareAgent>Adobe Audition 22.0 (Windows)</stEvt:softwareAgent>
                  <stEvt:changed>/</stEvt:changed>
               </rdf:li>
               <rdf:li rdf:parseType="Resource">
                  <stEvt:action>saved</stEvt:action>
                  <stEvt:instanceID>xmp.iid:1363e68f-9078-e943-ab2b-e770bd2268d7</stEvt:instanceID>
                  <stEvt:when>2022-06-21T20:55:51-03:00</stEvt:when>
                  <stEvt:softwareAgent>Adobe Audition 22.0 (Windows)</stEvt:softwareAgent>
                  <stEvt:changed>/metadata</stEvt:changed>
               </rdf:li>
               <rdf:li rdf:parseType="Resource">
                  <stEvt:action>saved</stEvt:action>
                  <stEvt:instanceID>xmp.iid:a7b4c30d-2895-964f-adff-14e62524defe</stEvt:instanceID>
                  <stEvt:when>2022-06-21T20:55:51-03:00</stEvt:when>
                  <stEvt:softwareAgent>Adobe Audition 22.0 (Windows)</stEvt:softwareAgent>
                  <stEvt:changed>/</stEvt:changed>
               </rdf:li>
            </rdf:Seq>
         </xmpMM:History>
         <xmpMM:DerivedFrom rdf:parseType="Resource">
            <stRef:instanceID>xmp.iid:1363e68f-9078-e943-ab2b-e770bd2268d7</stRef:instanceID>
            <stRef:documentID>xmp.did:a9394616-a452-7c4e-aafd-11c8b6752714</stRef:documentID>
            <stRef:originalDocumentID>xmp.did:4bc39c62-b3f1-4542-bbfe-f276fc930b20</stRef:originalDocumentID>
         </xmpMM:DerivedFrom>
         <dc:format>application/xml</dc:format>
         <xmpDM:Tracks>
            <rdf:Bag>
               <rdf:li rdf:parseType="Resource">
                  <xmpDM:trackName>CuePoint Markers</xmpDM:trackName>
                  <xmpDM:trackType>Cue</xmpDM:trackType>
                  <xmpDM:frameRate>f44100</xmpDM:frameRate>
               </rdf:li>
               <rdf:li rdf:parseType="Resource">
                  <xmpDM:trackName>CD Track Markers</xmpDM:trackName>
                  <xmpDM:trackType>Track</xmpDM:trackType>
                  <xmpDM:frameRate>f44100</xmpDM:frameRate>
               </rdf:li>
               <rdf:li rdf:parseType="Resource">
                  <xmpDM:trackName>Subclip Markers</xmpDM:trackName>
                  <xmpDM:trackType>InOut</xmpDM:trackType>
                  <xmpDM:frameRate>f44100</xmpDM:frameRate>
               </rdf:li>
            </rdf:Bag>
         </xmpDM:Tracks>
      </rdf:Description>
   </rdf:RDF>
</x:xmpmeta>
                                                                                                    
                                                                                                    
                                                                                                    
                                                                                                    
                                                                                                    
                                                                                                    
                                                                                                    
                                                                                                    
                                                                                                    
                                                                                                    
                                                                                                    
                                                                                                    
                                                                                                    
                                                                                                    
                                                                                                    
                                                                                                    
                                                                                                    
                                                                                                    
                                                                                                    
                                                                                                    
                           
<?xpacket end="w"?>]]></xmpMetadata>
    <clipGroups/>
    <metronome enabled="false" pattern="downBeat subdivision subdivision subdivision " soundSet="sticks">
      <metronomeTrack automationLaneOpenState="false" id="40000" index="0" select="false" visible="false">
        <trackParameters trackHeight="77" trackHue="-1" trackMinimized="false">
          <name>Metrônomo</name>
        </trackParameters>
        <trackAudioParameters audioChannelType="mono" automationMode="1" monitoring="false" recordArmed="false" solo="false" soloSafe="true">
          <trackOutput outputID="10000" type="trackID"/>
          <trackInput inputID="-1"/>
          <component componentGuid="b9f2068a-1632-4be7-81c8-1333e89907b8" componentID="Audition.Fader" id="trackFader" name="volume" powered="true">
            <parameter index="0" name="volume" parameterValue="0.50118720531463623046875"/>
            <parameter index="1" name="static gain" parameterValue="1"/>
          </component>
          <component componentGuid="cd67eb65-6e17-48fb-8e8e-00c0cde6de53" componentID="Audition.Mute" id="trackMute" name="Mute" powered="true">
            <parameter index="0" parameterValue="0"/>
            <parameter index="1" name="mute" parameterValue="0"/>
          </component>
          <component componentGuid="de214192-4418-4ad8-9e95-43a5d98f61a2" componentID="Audition.MonoTo51Panner" id="trackPan" name="MonoTo51Panner" powered="true">
            <parameter index="0" name="Panorâmica: ângulo" parameterValue="1.5707962512969970703125"/>
            <parameter index="1" name="Panorâmica: Raio" parameterValue="1"/>
            <parameter index="2" name="Panorâmica: Centro" parameterValue="1"/>
            <parameter index="3" name="Panorâmica: LFE" parameterValue="0"/>
            <parameter index="4" name="leftEnable" parameterValue="1"/>
            <parameter index="5" name="rightEnable" parameterValue="1"/>
            <parameter index="6" name="centerEnable" parameterValue="1"/>
            <parameter index="7" name="lfeEnable" parameterValue="1"/>
            <parameter index="8" name="leftSurroundEnable" parameterValue="1"/>
            <parameter index="9" name="rightSurroundEnable" parameterValue="1"/>
            <parameter index="10" name="leftSolo" parameterValue="0"/>
            <parameter index="11" name="rightSolo" parameterValue="0"/>
            <parameter index="12" name="centerSolo" parameterValue="0"/>
            <parameter index="13" name="lfeSolo" parameterValue="0"/>
            <parameter index="14" name="leftSurroundSolo" parameterValue="0"/>
            <parameter index="15" name="rightSurroundSolo" parameterValue="0"/>
          </component>
          <component componentGuid="4020004b-cf26-4a88-82e4-609c22faa078" componentID="Audition.EQ" id="trackEQ" name="EQ" powered="false">
            <parameter index="0" name="Frequência de estante inferior" parameterValue="0.0009078529546968638896942138671875"/>
            <parameter index="1" name="Ganho de estante inferior" parameterValue="0.5"/>
            <parameter index="2" name="Frequência de prateleira superior" parameterValue="0.816159784793853759765625"/>
            <parameter index="3" name="Ganho de estante superior" parameterValue="0.5"/>
            <parameter index="4" name="Frequência central de banda de EQ 1" parameterValue="0.0013617794029414653778076171875"/>
            <parameter index="5" name="Banda de EQ 1 Q" parameterValue="0.000199989997781813144683837890625"/>
            <parameter index="6" name="Ganho de banda de EQ 1" parameterValue="0.5"/>
            <parameter index="7" name="Ativar Banda de EQ 1" parameterValue="1"/>
            <parameter index="8" name="Frequências centrais de banda de EQ 2" parameterValue="0.008170676417648792266845703125"/>
            <parameter index="9" name="Banda de EQ 2 Q" parameterValue="0.000199989997781813144683837890625"/>
            <parameter index="10" name="Ganho de banda de EQ 2" parameterValue="0.5"/>
            <parameter index="11" name="Ativar banda de EQ 2" parameterValue="1"/>
            <parameter index="12" name="Frequências centrais de banda de EQ 3" parameterValue="0.0354062654078006744384765625"/>
            <parameter index="13" name="Banda de EQ 3 Q" parameterValue="0.000199989997781813144683837890625"/>
            <parameter index="14" name="Ganho de banda de EQ 3" parameterValue="0.5"/>
            <parameter index="15" name="Ativar banda de EQ 3" parameterValue="1"/>
            <parameter index="16" name="Frequência central de banda de EQ 4" parameterValue="0.144348621368408203125"/>
            <parameter index="17" name="Banda de EQ 4 Q" parameterValue="0.000199989997781813144683837890625"/>
            <parameter index="18" name="Ganho de banda de EQ 4" parameterValue="0.5"/>
            <parameter index="19" name="Ativar banda de EQ 4" parameterValue="1"/>
            <parameter index="20" name="Frequências centrais de banda de EQ 5" parameterValue="0.580118000507354736328125"/>
            <parameter index="21" name="Banda de EQ 5 Q" parameterValue="0.000199989997781813144683837890625"/>
            <parameter index="22" name="Ganho de banda de EQ 5" parameterValue="0.5"/>
            <parameter index="23" name="Ativar banda de EQ 5" parameterValue="1"/>
            <parameter index="24" name="Ganho" parameterValue="0.666666686534881591796875"/>
            <parameter index="25" name="ConstantQ" parameterValue="1"/>
            <parameter index="26" name="Ordem de filtro de estante inferior" parameterValue="0"/>
            <parameter index="27" name="Ordem de filtro de estante superior" parameterValue="0"/>
            <parameter index="28" name="Modo ultra silencioso" parameterValue="0"/>
            <parameter index="29" name="Ativar estante inferior" parameterValue="1"/>
            <parameter index="30" name="Ativar estante superior" parameterValue="1"/>
            <parameter index="31" name="Taxa de amostragem original" parameterValue="0.22968749701976776123046875"/>
            <parameter index="32" name="Largura de banda de banda de EQ 1" parameterValue="0.002499990165233612060546875"/>
            <parameter index="33" name="Largura de banda de EQ 2" parameterValue="0.0099999904632568359375"/>
            <parameter index="34" name="Largura de banda de EQ 3" parameterValue="0.0399999916553497314453125"/>
            <parameter index="35" name="Largura de banda de EQ 4" parameterValue="0.15999998152256011962890625"/>
            <parameter index="36" name="Largura de banda de EQ 5" parameterValue="0.63999998569488525390625"/>
            <parameter index="37" name="Ativar filtro de alta frequência" parameterValue="0"/>
            <parameter index="38" name="Frequência de corte de alta frequência" parameterValue="0"/>
            <parameter index="39" name="Inclinação de alta frequência" parameterValue="0.4000000059604644775390625"/>
            <parameter index="40" name="Ativar filtro de passagem de baixa aprovação" parameterValue="0"/>
            <parameter index="41" name="Frequência de corte de passe para baixo" parameterValue="0.906945049762725830078125"/>
            <parameter index="42" name="Inclinação de passe para baixo" parameterValue="0.4000000059604644775390625"/>
            <parameter index="43" name="Desvio" parameterValue="0"/>
            <parameter index="44" name="Faixa de gráfico baixa" parameterValue="1"/>
          </component>
        </trackAudioParameters>
        <editParameter parameterIndex="0" slotIndex="4294967280"/>
      </metronomeTrack>
    </metronome>
    <properties>
      <property key="EssentialSoundConfigurations">[{"Guid":"a8b40e3e-13e7-4c1f-b382-96058f1f691d","Name":"$$$/app/Presets/DefaultPresetName=(Default)","PresetData":{"ModeID":"ambience","Models":{"model_ducking":{},"model_loudness":{"DefaultLoudness":{"type":"float","value":-30},"LoudnessStandard":{"type":"std::uint32_t","value":0},"MaxLoudness":{"type":"float","value":-12},"MinLoudness":{"type":"float","value":-42}},"model_soundeffects":{"ReverbPresets":{"type":"tree::any","value":{"$$$/app/Presets/EssentialSound/ReverbPreset/LargeRoomAmbience=Large Room Ambience":{"type":"array::float","value":[0.051507499068975449,0.32432401180267334,0.29292899370193481,0.30000001192092896,0.20000000298023224,0,0.14285700023174286,0.40000000596046448,0.5,0.69999998807907104,0.30000001192092896,0.25125628709793091,0.03125]},"$$$/app/Presets/EssentialSound/ReverbPreset/OutsideAmbience=Outside Ambience":{"type":"array::float","value":[0.091708503663539886,0.043893899768590927,1,0.5,0.20000000298023224,0.80000001192092896,0.18367299437522888,1,0.5,0,0.80000001192092896,0.25125628709793091,0.03125]},"$$$/app/Presets/EssentialSound/ReverbPreset/RoomAmbience=Room Ambience":{"type":"array::float","value":[0.057788901031017303,0.44944900274276733,0.49494898319244385,0.89999997615814209,0.10000000149011612,0.15000000596046448,0.081632703542709351,0.40000000596046448,0.5,0.80000001192092896,0.20000000298023224,0.25125628709793091,0.03125]},"$$$/app/Presets/EssentialSound/ReverbPreset/WindEffect=Wind Effect":{"type":"array::float","value":[0.19597999751567841,0.6896899938583374,0.69696998596191406,0.25,0.5,0.5,0.23469400405883789,0.51999998092651367,0.5,0.75,0.25,0.25125628709793091,0.03125]}}}},"model_stereowidth":{},"model_volume":{"MaxGain":{"type":"float","value":15},"MinGain":{"type":"float","value":-60}}},"Version":1},"Type":"1c19ca71-c24c-49cd-8dd5-2cc46018507a","Version":1},{"Guid":"58dc27a8-6a2a-480c-bd0c-4b45fff346a6","Name":"$$$/app/Presets/DefaultPresetName=(Default)","PresetData":{"ModeID":"dialog","Models":{"model_clarity":{"EQPresets":{"type":"tree::any","value":{"$$$/app/Presets/EssentialSound/EQPreset/BackgroundVoice=Background Voice":{"type":"array::float","value":[0.12099699676036835,0.5,0.39240506291389465,0,0.5,0.5,0.5,0.5,0.5,0.47827938199043274,0.45772689580917358,0.45778733491897583,0.47946760058403015,0.5,0]},"$$$/app/Presets/EssentialSound/EQPreset/Intercom=Intercom":{"type":"array::float","value":[0.19432899355888367,0.5,1,0,0.071499988436698914,0.071499988436698914,0.071499988436698914,0.40238627791404724,0.48571401834487915,0.5,0.55155748128890991,0.59602576494216919,0.22246670722961426,0.071499988436698914,0]},"$$$/app/Presets/EssentialSound/EQPreset/LockedInTheTrunk=Locked in the Trunk":{"type":"array::float","value":[0.12099699676036835,0.5,0.79746836423873901,0,0.5,0.5,0.5,0.5,0.5,0.32846158742904663,0.15721426904201508,0.15721426904201508,0.15721426904201508,0.15721426904201508,0]},"$$$/app/Presets/EssentialSound/EQPreset/OldRadio=Old Radio":{"type":"array::float","value":[0.12099699676036835,0.5,0.79746836423873901,0,0.15721426904201508,0.15721426904201508,0.15721426904201508,0.28442040085792542,0.48315632343292236,0.36498492956161499,0.52853888273239136,0.43511500954627991,0.27154684066772461,0.15721426904201508,0]},"$$$/app/Presets/EssentialSound/EQPreset/OnTheTelephone=On the Telephone":{"type":"array::float","value":[0.12099699676036835,0.5,0.39240506291389465,0,0.32864287495613098,0.32864287495613098,0.32864287495613098,0.32864287495613098,0.48571401834487915,0.53071397542953491,0.53071397542953491,0.48357096314430237,0.32864287495613098,0.32864287495613098,0]},"$$$/app/Presets/EssentialSound/EQPreset/OutsideOfTheRoom=Outside of the Room":{"type":"array::float","value":[0.12099699676036835,0.5,0.79746836423873901,0,0.42539370059967041,0.47865453362464905,0.5,0.5,0.48571401834487915,0.40073278546333313,0.25656309723854065,0.15721426904201508,0.15721426904201508,0.15721426904201508,0]},"$$$/app/Presets/EssentialSound/EQPreset/PodcastVoice=Podcast Voice":{"type":"array::float","value":[0.12099699676036835,0.5,0.39240506291389465,0,0.5,0.5,0.5,0.51789408922195435,0.50770342350006104,0.5,0.51789408922195435,0.528114914894104,0.5102812647819519,0.5,0]},"$$$/app/Presets/EssentialSound/EQPreset/SubtleBoostFemale=Subtle Boost (Female)":{"type":"array::float","value":[0.096553400158882141,0.5,0.29113924503326416,0,0.5,0.5,0.5,0.5,0.5,0.51933407783508301,0.54642897844314575,0.52706766128540039,0.5,0.5,0]},"$$$/app/Presets/EssentialSound/EQPreset/SubtleBoostMale=Subtle Boost (Male)":{"type":"array::float","value":[0.096553400158882141,0.5,0.29113924503326416,0,0.5,0.5,0.5,0.5,0.5,0.5135338306427002,0.54642897844314575,0.51933407783508301,0.5,0.5,0]},"$$$/app/Presets/EssentialSound/EQPreset/ThatPublicRadioSound=That Public Radio Sound":{"type":"array::float","value":[0.12099699676036835,0.5,0.79746836423873901,0,0.15721426904201508,0.15721426904201508,0.15721426904201508,0.36334344744682312,0.49468311667442322,0.5,0.5,0.5,0.5,0.5,0]},"$$$/app/Presets/EssentialSound/EQPreset/VocalPresence=Vocal Presence":{"type":"array::float","value":[0.096553400158882141,0.5,0.32489451766014099,0,0.3572143018245697,0.3572143018245697,0.46428570151329041,0.47857141494750977,0.4763694703578949,0.49570354819297791,0.55924957990646362,0.56523394584655762,0.50859290361404419,0.46992480754852295,0]}}}},"model_loudness":{"DefaultLoudness":{"type":"float","value":-23},"LoudnessStandard":{"type":"std::uint32_t","value":0},"MaxLoudness":{"type":"float","value":-12},"MinLoudness":{"type":"float","value":-42}},"model_restoration":{"ReduceNoiseMaxSetting":{"type":"array::float","value":[1,0,0,0,0]},"ReduceNoiseMinSetting":{"type":"array::float","value":[0,0,0,0,0]},"ReduceReverbMaxSetting":{"type":"array::float","value":[1,0,1,0,0]},"ReduceReverbMinSetting":{"type":"array::float","value":[0,0,1,0,0]},"ReduceRumbleMaxSetting":{"type":"array::float","value":[1,0.061583578586578369,0.375,0,0,0.00083333335351198912,1,0,1,0.0390625,0.00083408987848088145,0,0.0041666668839752674,0.00022554649331141263,0.0046875001862645149,0.75,0.0052083334885537624,0.75,1,0.75,0.0040520834736526012,0.75,0.0042629167437553406,0.00022554649331141263,0.0064883334562182426,0.00022554649331141263,0.006866666954010725,0.75,0.0071704164147377014,0.00022554649331141263,0.01041458360850811,0.00022554649331141263,0.010900000110268593,0.75,0.011407917365431786,0.00022554649331141263,0.015606249682605267,0.00022554649331141263,0.016333334147930145,0.75,0.017094582319259644,0.00022554649331141263,0.026243748143315315,0.00022554649331141263,0.0274666678160429,0.75,0.028746666386723518,0.00022554649331141263,0.041658751666545868,0.00022554649331141263,0.043600000441074371,0.75,0.045631669461727142,0.00022554649331141263,0.062424581497907639,0.00022554649331141263,0.065333336591720581,0.75,0.068377502262592316,0.00022554649331141263,0.10497540980577469,0.00022554649331141263,0.1098666712641716,0.75,0.11498583108186722,0.00022554649331141263,0.16663584113121033,0.00022554649331141263,0.17440000176429749,0.75,0.18252624571323395,0.00022554649331141263,0.91874998807907104,0.00022554649331141263,1,0.00022554649331141263,0,0,0,0,0,0,0,0,0,0,0,0,0,0,0,0,0,0,0,0,0,0,0,0,0,0,0,0,0,0,0,0,0,0,0,0,0,0,0,0,0,0,0,0,0,0,0,0,0,0,0,0,0,0,0,0,0,0,0,0,0,0,0,0,0,0,0,0,0,0,0,0,0,0,0,0,0,0,0,0,0,0,0,0,0,0,0,0,0,0,0,0,0,0,0,0,0,0,0,0,0,0,0,0,0,0,0,0,0,0,0,0,0,0,0,0,0,0,0,0,0,0,0,0,0,0,0,0,0,0,0,0,0,0,0,0,0,0,0,0,0,0,0,0,0,0,0,0,0,0,0,0,0,0,0,0,0,0,0,0,0,0,0,0,0,0,0,0,0,0,0,0,0,0,0,0,0,0,0,0,0,0,0,0,0,0,0,0,0,0]},"ReduceRumbleMinSetting":{"type":"array::float","value":[1,0.061583578586578369,0.375,0,0,0.00083333335351198912,1,0,1,0.0390625,0.00083408987848088145,0.75,0.0041666668839752674,0.75,0.0046875001862645149,0.75,0.0052083334885537624,0.75,1,0.75,0.91874998807907104,0.61237245798110962,1,0.61237245798110962,0,0,0,0,0,0,0,0,0,0,0,0,0,0,0,0,0,0,0,0,0,0,0,0,0,0,0,0,0,0,0,0,0,0,0,0,0,0,0,0,0,0,0,0,0,0,0,0,0,0,0,0,0,0,0,0,0,0,0,0,0,0,0,0,0,0,0,0,0,0,0,0,0,0,0,0,0,0,0,0,0,0,0,0,0,0,0,0,0,0,0,0,0,0,0,0,0,0,0,0,0,0,0,0,0,0,0,0,0,0,0,0,0,0,0,0,0,0,0,0,0,0,0,0,0,0,0,0,0,0,0,0,0,0,0,0,0,0,0,0,0,0,0,0,0,0,0,0,0,0,0,0,0,0,0,0,0,0,0,0,0,0,0,0,0,0,0,0,0,0,0,0,0,0,0,0,0,0,0,0,0,0,0,0,0,0,0,0,0,0,0,0,0,0,0,0,0,0,0,0,0,0,0,0,0,0,0,0,0,0,0,0,0,0,0,0,0,0,0,0,0,0,0,0,0,0,0,0,0,0,0,0,0,0,0,0,0,0,0,0,0,0]},"ReduceSibilanceMaxSetting":{"type":"array::float","value":[0.5,0.19983997941017151,0.18367347121238708,0.26086956262588501,0.52702701091766357,0,1,0,0,0,0,0.75,1,1,0.40000000596046448]},"ReduceSibilanceMinSetting":{"type":"array::float","value":[0.875,0.19983997941017151,0.18367347121238708,0.19130434095859528,0.25675675272941589,0,1,0,0,0,0,0.75,1,1,0.40000000596046448]}},"model_soundeffects":{"ReverbPresets":{"type":"tree::any","value":{"$$$/app/Presets/EssentialSound/ReverbPreset/Auditorium=Auditorium":{"type":"array::float","value":[0.013047545216977596,0.15895412862300873,1,0.89999997615814209,0,0.52007436752319336,0.41663265228271484,0.46000000834465027,0.5,0.73000001907348633,0.15999999642372131,0.75376886129379272,0.03125]},"$$$/app/Presets/EssentialSound/ReverbPreset/Church=Church":{"type":"array::float","value":[0.032663315534591675,0.39939939975738525,0.79797977209091187,0.25,0.5,0.5,0.2297959178686142,0.72000002861022949,0.5,0.62999999523162842,0.87999999523162842,0.25125628709793091,0.03125]},"$$$/app/Presets/EssentialSound/ReverbPreset/LargeReflectiveRoom=Large Reflective Room":{"type":"array::float","value":[0.0074449013918638229,0.098988421261310577,0.79890537261962891,0.89999997615814209,0.10000000149011612,0.40110713243484497,0.060284845530986786,0.27522978186607361,0.5,0.73000001907348633,0.31999999284744263,0.25125628709793091,0.03125]},"$$$/app/Presets/EssentialSound/ReverbPreset/OutsideTheClub=Outside the Club":{"type":"array::float","value":[0.020615793764591217,0.050136558711528778,0.69696998596191406,0.25,0.094355784356594086,0.22242647409439087,0.1071428582072258,0.2800000011920929,0.5,0.73000001907348633,0.46000000834465027,0.25125628709793091,0.03125]},"$$$/app/Presets/EssentialSound/ReverbPreset/SmallDryRoom=Small Dry Room":{"type":"array::float","value":[0.24623115360736847,0.69975000619888306,0.29292899370193481,0.40000000596046448,0.20000000298023224,0.40000000596046448,0.039285715669393539,0.10000000149011612,0.5,1,0.5,0.75376886129379272,0.03125]},"$$$/app/Presets/EssentialSound/ReverbPreset/ThickenVoice=Thicken Voice":{"type":"array::float","value":[0.19597999751567841,0.23931467533111572,0.69696998596191406,0.25,0.5,0.53999996185302734,0.020408162847161293,0.20945435762405396,0.5,1,0.34999999403953552,0.25125628709793091,0.03125]},"$$$/app/Presets/EssentialSound/ReverbPreset/WarmRoom=Warm Room":{"type":"array::float","value":[0.020100502297282219,0.074074074625968933,0.49494948983192444,0.40000000596046448,0.74960309267044067,0.40000000596046448,0.1239795908331871,0.67000001668930054,0.5,0.85000002384185791,0.56000000238418579,0.25125628709793091,0.03125]},"$$$/app/Presets/EssentialSound/ReverbPreset/WarmVoice=Warm Voice":{"type":"array::float","value":[0.19597989320755005,0.89989989995956421,0,0.40000000596046448,0.20000000298023224,0.40000000596046448,0.10204081982374191,0.090000003576278687,0.5,1,0.30000001192092896,0.25125628709793091,0.03125]}}}},"model_volume":{"MaxGain":{"type":"float","value":15},"MinGain":{"type":"float","value":-60}}},"Version":2},"Type":"1c19ca71-c24c-49cd-8dd5-2cc46018507a","Version":1},{"Guid":"353811fa-4179-435e-8e5e-23028ba15a7a","Name":"$$$/app/Presets/DefaultPresetName=(Default)","PresetData":{"ModeID":"generic","Models":{"model_loudness":{"DefaultLoudness":{"type":"float","value":-24},"LoudnessStandard":{"type":"std::uint32_t","value":0},"MaxLoudness":{"type":"float","value":-12},"MinLoudness":{"type":"float","value":-42}},"model_volume":{"MaxGain":{"type":"float","value":15},"MinGain":{"type":"float","value":-60}}},"Version":1},"Type":"1c19ca71-c24c-49cd-8dd5-2cc46018507a","Version":1},{"Guid":"31ba96a6-5d3e-4d89-b1e1-1dbe3c055d0c","Name":"$$$/app/Presets/DefaultPresetName=(Default)","PresetData":{"ModeID":"music","Models":{"model_ducking":{},"model_duration":{},"model_loudness":{"DefaultLoudness":{"type":"float","value":-25},"LoudnessStandard":{"type":"std::uint32_t","value":0},"MaxLoudness":{"type":"float","value":-12},"MinLoudness":{"type":"float","value":-42}},"model_volume":{"MaxGain":{"type":"float","value":15},"MinGain":{"type":"float","value":-60}}},"Version":1},"Type":"1c19ca71-c24c-49cd-8dd5-2cc46018507a","Version":1},{"Guid":"cea63332-1adc-44a9-a6eb-5490f965859b","Name":"$$$/app/Presets/DefaultPresetName=(Default)","PresetData":{"ModeID":"sfx","Models":{"model_loudness":{"DefaultLoudness":{"type":"float","value":-21},"LoudnessStandard":{"type":"std::uint32_t","value":0},"MaxLoudness":{"type":"float","value":-12},"MinLoudness":{"type":"float","value":-42}},"model_pan":{},"model_soundeffects":{"ReverbPresets":{"type":"tree::any","value":{"$$$/app/Presets/EssentialSound/ReverbPreset/HeavyReverb=Heavy Reverb":{"type":"array::float","value":[0.13316600024700165,0.29929900169372559,1,0.95999997854232788,0.85000002384185791,0.5,0.51530599594116211,0.30000001192092896,0.5,0.5,0.5,0.25125628709793091,0.0625]},"$$$/app/Presets/EssentialSound/ReverbPreset/LightReverb=Light Reverb":{"type":"array::float","value":[0.095477402210235596,0.29929900169372559,0.090909101068973541,1,1,0.80000001192092896,0.22449000179767609,0.60000002384185791,0.5,0.69999998807907104,0.30000001192092896,0.25125628709793091,0.0625]},"$$$/app/Presets/EssentialSound/ReverbPreset/OutsideReverb=Outside Reverb":{"type":"array::float","value":[0.091708503663539886,0.043893899768590927,1,0.5,0.20000000298023224,0.80000001192092896,0.18367299437522888,1,0.5,0,0.80000001192092896,0.25125628709793091,0.0625]},"$$$/app/Presets/EssentialSound/ReverbPreset/RoomReverb=Room Reverb":{"type":"array::float","value":[0.057788901031017303,0.44944900274276733,0.49494898319244385,0.89999997615814209,0.10000000149011612,0.15000000596046448,0.081632703542709351,0.40000000596046448,0.5,0.80000001192092896,0.20000000298023224,0.25125628709793091,0.0625]}}}},"model_volume":{"MaxGain":{"type":"float","value":15},"MinGain":{"type":"float","value":-60}}},"Version":1},"Type":"1c19ca71-c24c-49cd-8dd5-2cc46018507a","Version":1}]</property>
    </properties>
  </session>

  <files>
    <file absolutePath="C:\Users\Windows\OneDrive - Etec Centro Paula Souza\Desktop\VersãoFinal\VersãoFinal\Segmento3\LUTAR\Lutar\Conformed Files\Ato1Perg3Esc1D - NORMAL 44100 1.wav" id="0" importerPrivateSettings="Compression:0:0;LargeFileSupport:0:0;SampleType:0:1;" mediaHandler="AmioWav" recoveryID="6b96e658-311e-47ce-b1f1-223110895f58" relativePath="../Conformed Files/Ato1Perg3Esc1D - NORMAL 44100 1.wav"/>
    <file absolutePath="C:\Users\Windows\OneDrive - Etec Centro Paula Souza\Desktop\VersãoFinal\VersãoFinal\Segmento3\LUTAR\Lutar\Arquivos importados\Ato1Perg3Esc2E 44100 1.wav" id="1" importerPrivateSettings="Compression:0:0;LargeFileSupport:0:0;SampleType:0:1;" mediaHandler="AmioWav" recoveryID="9ae2df38-3188-46ef-b724-b57a13249457" relativePath="../Arquivos importados/Ato1Perg3Esc2E 44100 1.wav"/>
    <file absolutePath="C:\Users\Windows\OneDrive - Etec Centro Paula Souza\Desktop\VersãoFinal\VersãoFinal\Segmento3\LUTAR\Lutar\Arquivos importados\Radio turning on sound effect 44100 2.wav" id="2" importerPrivateSettings="Compression:0:0;LargeFileSupport:0:0;SampleType:0:1;" mediaHandler="AmioWav" recoveryID="da7ad8b1-9ec5-4b55-92dc-ddfb135becc9" relativePath="../Arquivos importados/Radio turning on sound effect 44100 2.wav"/>
    <file absolutePath="C:\Users\Windows\OneDrive - Etec Centro Paula Souza\Desktop\VersãoFinal\VersãoFinal\Segmento3\LUTAR\Lutar\Conformed Files\Radio turning on sound effect 44100 1.wav" id="3" importerPrivateSettings="Compression:0:0;LargeFileSupport:0:0;SampleType:0:1;" mediaHandler="AmioWav" recoveryID="9ecb7084-2f19-44e7-a322-b352a58a4294" relativePath="../Conformed Files/Radio turning on sound effect 44100 1.wav"/>
    <file absolutePath="C:\Users\Windows\OneDrive - Etec Centro Paula Souza\Desktop\VersãoFinal\VersãoFinal\Segmento3\LUTAR\Lutar\Conformed Files\soco 44100 1.wav" id="4" importerPrivateSettings="Compression:0:0;LargeFileSupport:0:0;SampleType:0:1;" mediaHandler="AmioWav" recoveryID="8add669f-909e-40fa-8e76-c4cd3bbd9882" relativePath="../Conformed Files/soco 44100 1.wav"/>
    <file absolutePath="C:\Users\Windows\OneDrive - Etec Centro Paula Souza\Desktop\VersãoFinal\VersãoFinal\Segmento3\LUTAR\Lutar\Arquivos importados\heartbeat sound effect.mp3" id="5" importerPrivateSettings="BitsPerSecond:0:192000;CompressionQuality:0:4;CompressionType:0:0;Encoder:0:1181239072;" mediaHandler="AmioMP3" recoveryID="b80b5ede-02d5-4d4e-b216-685d51189153" relativePath="../Arquivos importados/heartbeat sound effect.mp3"/>
    <file absolutePath="C:\Users\Windows\OneDrive - Etec Centro Paula Souza\Desktop\VersãoFinal\VersãoFinal\Segmento3\FUGIR\Fugir\Conformed Files\atsound-effect 44100 1.wav" id="6" importerPrivateSettings="Compression:0:0;LargeFileSupport:0:0;SampleType:0:1;" mediaHandler="AmioWav" recoveryID="335e688d-de0a-48f8-8957-090e15aad307" relativePath="../../../FUGIR/Fugir/Conformed Files/atsound-effect 44100 1.wav"/>
    <file absolutePath="C:\Users\Windows\OneDrive - Etec Centro Paula Souza\Desktop\VersãoFinal\VersãoFinal\Segmento3\LUTAR\Lutar\Arquivos importados\Radio Static - Sound Effect (1).mp3" id="7" importerPrivateSettings="BitsPerSecond:0:192000;CompressionQuality:0:4;CompressionType:0:0;Encoder:0:1181239072;" mediaHandler="AmioMP3" recoveryID="044098d2-7c62-4077-bc6f-3c2f91e3fcb5" relativePath="../Arquivos importados/Radio Static - Sound Effect (1).mp3"/>
    <file absolutePath="C:\Users\Windows\OneDrive - Etec Centro Paula Souza\Desktop\VersãoFinal\VersãoFinal\Segmento3\LUTAR\Lutar\Arquivos importados\Footsteps - Sound Effect.mp3" id="8" importerPrivateSettings="BitsPerSecond:0:192000;CompressionQuality:0:4;CompressionType:0:0;Encoder:0:1181239072;" mediaHandler="AmioMP3" recoveryID="22580ecf-20a8-4637-af72-de17fdaca234" relativePath="../Arquivos importados/Footsteps - Sound Effect.mp3"/>
    <file absolutePath="C:\Users\Windows\OneDrive - Etec Centro Paula Souza\Desktop\VersãoFinal\VersãoFinal\Segmento3\LUTAR\Lutar\Arquivos importados\som-de-porta-abrindo 44100 1.wav" id="9" importerPrivateSettings="Compression:0:0;LargeFileSupport:0:0;SampleType:0:1;" mediaHandler="AmioWav" recoveryID="4e5e41a0-3bd3-4b68-a886-772e45bedb65" relativePath="../Arquivos importados/som-de-porta-abrindo 44100 1.wav"/>
    <file absolutePath="C:\Users\Windows\OneDrive - Etec Centro Paula Souza\Desktop\VersãoFinal\VersãoFinal\Segmento3\LUTAR\Lutar\Arquivos importados\door-broken-sound-effect 44100 1.wav" id="10" importerPrivateSettings="Compression:0:0;LargeFileSupport:0:0;SampleType:0:1;" mediaHandler="AmioWav" recoveryID="ca62f095-9925-4175-aa57-f069ec5b29f1" relativePath="../Arquivos importados/door-broken-sound-effect 44100 1.wav"/>
    <file absolutePath="C:\Users\Windows\OneDrive - Etec Centro Paula Souza\Desktop\VersãoFinal\VersãoFinal\Segmento3\LUTAR\Lutar\Arquivos importados\efeito-sonoro-grito-download-na-descricao 44100 1.wav" id="11" importerPrivateSettings="Compression:0:0;LargeFileSupport:0:0;SampleType:0:1;" mediaHandler="AmioWav" recoveryID="6b92ddeb-3276-4750-9000-5a56c3626eb0" relativePath="../Arquivos importados/efeito-sonoro-grito-download-na-descricao 44100 1.wav"/>
    <file absolutePath="C:\Users\Windows\OneDrive - Etec Centro Paula Souza\Desktop\VersãoFinal\VersãoFinal\Segmento3\LUTAR\Lutar\Conformed Files\atsound-effect 44100 1.wav" id="12" importerPrivateSettings="Compression:0:0;LargeFileSupport:0:0;SampleType:0:1;" mediaHandler="AmioWav" recoveryID="abd1824e-620f-46ee-a887-5cc187d75e8b" relativePath="../Conformed Files/atsound-effect 44100 1.wav"/>
    <file absolutePath="C:\Users\Windows\OneDrive - Etec Centro Paula Souza\Desktop\VersãoFinal\VersãoFinal\Segmento3\LUTAR\Lutar\Conformed Files\barulho-chato-de-prato-arranhando 44100 1.wav" id="13" importerPrivateSettings="Compression:0:0;LargeFileSupport:0:0;SampleType:0:1;" mediaHandler="AmioWav" recoveryID="8caabc0d-e3f9-45c1-b863-430a59580056" relativePath="../Conformed Files/barulho-chato-de-prato-arranhando 44100 1.wav"/>
    <file absolutePath="C:\Users\Windows\OneDrive - Etec Centro Paula Souza\Desktop\VersãoFinal\VersãoFinal\Segmento3\LUTAR\Lutar\Arquivos importados\Creepy Woman Breathing Sound Effect (HD) (FREE).mp3" id="14" importerPrivateSettings="BitsPerSecond:0:192000;CompressionQuality:0:4;CompressionType:0:0;Encoder:0:1181239072;" mediaHandler="AmioMP3" recoveryID="ea5c8aa7-b0c5-4072-b496-bbac7b3bb6b0" relativePath="../Arquivos importados/Creepy Woman Breathing Sound Effect (HD) (FREE).mp3"/>
    <file absolutePath="C:\Users\Windows\OneDrive - Etec Centro Paula Souza\Desktop\VersãoFinal\VersãoFinal\Segmento3\LUTAR\Lutar\Arquivos importados\efeito-para-producao 44100 1.wav" id="15" importerPrivateSettings="Compression:0:0;LargeFileSupport:0:0;SampleType:0:1;" mediaHandler="AmioWav" recoveryID="ee5624a0-2c43-40ca-9094-9b128a0c4c46" relativePath="../Arquivos importados/efeito-para-producao 44100 1.wav"/>
  </files>

  <audioDevice inputID="22222222-2222-2222-2222-22222222" outputID="11111111-1111-1111-1111-11111111">
    <inputPort id="1" name="Entrada estéreo padrão"/>
    <inputPort id="2" name="[01M] Sistema padrão - Microfone (Realtek High Definition Audio) 1"/>
    <inputPort id="3" name="[02M] Sistema padrão - Microfone (Realtek High Definition Audio) 2"/>
    <inputPort id="4" name="[01S] Sistema padrão - Microfone (Realtek High Definition Audio) 1"/>
    <outputPort id="1" name="Saída padrão"/>
    <outputPort id="2" name="[01M] Sistema padrão - Alto-falantes (Realtek High Definition Audio) 1"/>
    <outputPort id="3" name="[02M] Sistema padrão - Alto-falantes (Realtek High Definition Audio) 2"/>
    <outputPort id="4" name="Saída estéreo padrão"/>
    <outputPort id="5" name="[01S] Sistema padrão - Alto-falantes (Realtek High Definition Audio) 1"/>
    <outputPort id="6" name="Saída surround padrão"/>
  </audioDevice>

</sesx>
